<?xml version="1.0" standalone="no"?>
<!DOCTYPE svg PUBLIC "-//W3C//DTD SVG 1.1//EN" "http://www.w3.org/Graphics/SVG/1.1/DTD/svg11.dtd" >
<svg xmlns="http://www.w3.org/2000/svg" xmlns:xlink="http://www.w3.org/1999/xlink" version="1.1">
<metadata>
Created by FontForge 20170731 at Fri Aug 28 15:30:06 1998
 By Aleksey,,,
designed by Dieter Schumacher (c) 1998
</metadata>
<defs>
<font id="MovieTimes" horiz-adv-x="912" >
  <font-face 
    font-family="Movie Times"
    font-weight="400"
    font-stretch="normal"
    units-per-em="1000"
    panose-1="0 0 4 0 0 0 0 0 0 0"
    ascent="800"
    descent="-200"
    x-height="800"
    cap-height="800"
    bbox="1 -8 921 801"
    underline-thickness="20"
    underline-position="-163"
    unicode-range="U+0020-0388"
  />
<missing-glyph horiz-adv-x="500" 
d="M63 0v800h375v-800h-375zM125 63h250v675h-250v-675z" />
    <glyph glyph-name=".notdef" horiz-adv-x="500" 
d="M63 0v800h375v-800h-375zM125 63h250v675h-250v-675z" />
    <glyph glyph-name=".null" horiz-adv-x="0" 
 />
    <glyph glyph-name="nonmarkingreturn" horiz-adv-x="500" 
 />
    <glyph glyph-name="space" unicode=" " horiz-adv-x="500" 
 />
    <glyph glyph-name="exclam" unicode="!" 
d="M914 -1h-382q-2 8 -6 25q-4 14 -24 26.5t-33 12.5q-2 0 -11.5 -1t-11.5 -1t-15 -4t-25 -17t-14 -26q1 -7 -3 -15h-387v801h388q1 -8 4 -22q0 -2 10 -21q5 -9 24 -19q16 -8 26 -8q1 0 9.5 1t10 1t4.5 1t6.5 1t20.5 11q27 17 25 52q0 1 2 3h382v-801zM881 742
q0 11 -9.5 21.5t-22.5 10.5q-12 0 -22 -10.5t-10 -21.5q0 -9 7.5 -19.5t18.5 -10.5q1 0 3 -1t3 -1h4q3 1 5.5 1t9.5 5q13 10 13 26zM755 742q0 11 -10 21.5t-22 10.5t-22 -10.5t-10 -21.5q0 -9 7.5 -19.5t18.5 -10.5q1 0 3 -1t3 -1h4q3 1 5.5 1t9.5 5q13 9 13 26zM629 742
q0 11 -10 21.5t-22 10.5t-22 -10.5t-10 -21.5q0 -9 7.5 -19.5t18.5 -10.5q1 0 3 -1t3 -1h4q3 1 5.5 1t9.5 5q13 9 13 26zM350 742q0 11 -9.5 21.5t-22.5 10.5q-12 0 -22 -10.5t-10 -21.5q0 -12 9.5 -22t22.5 -10h4q3 1 4 1q8 0 18 13q6 7 6 18zM224 742q0 11 -9.5 21.5
t-22.5 10.5q-12 0 -22 -10.5t-10 -21.5q0 -12 9.5 -22t22.5 -10h4q3 1 4 1q8 0 18 13q6 7 6 18zM881 60q0 11 -9.5 21.5t-22.5 10.5q-12 0 -22 -10.5t-10 -21.5q0 -12 10 -22t22 -10q13 0 22.5 10t9.5 22zM903 118v562h-890v-562h890zM98 742q0 11 -9.5 21.5t-22.5 10.5
q-12 0 -22 -10.5t-10 -21.5q0 -12 10 -22t22 -10h4q3 1 4 1q8 0 18 13q6 7 6 18zM755 60q0 12 -9.5 22t-22.5 10q-12 0 -22 -10.5t-10 -21.5q0 -12 9.5 -22t22.5 -10q11 0 21.5 10t10.5 22zM629 60q0 12 -9.5 22t-22.5 10q-12 0 -22 -10.5t-10 -21.5q0 -12 9.5 -22t22.5 -10
q11 0 21.5 10t10.5 22zM350 63q0 12 -9.5 22t-22.5 10q-12 0 -22 -10.5t-10 -21.5t9.5 -21.5t22.5 -10.5q11 0 21.5 10t10.5 22zM224 63q0 12 -9.5 22t-22.5 10q-12 0 -22 -10.5t-10 -21.5t9.5 -21.5t22.5 -10.5q11 0 21.5 10t10.5 22zM98 63q0 11 -9.5 21.5t-22.5 10.5
q-12 0 -22 -10.5t-10 -21.5t10 -21.5t22 -10.5q13 0 22.5 10.5t9.5 21.5zM521 586q0 -18 -18 -81q-22 -71 -33 -178h-21l-9 72q0 -5 -4 25q-7 42 -17 73q-21 65 -21 91q0 73 62 73q61 0 61 -75zM521 207q0 -41 -39 -57q-11 -4 -15 -4h-7q-28 0 -44.5 18t-16.5 44q0 43 41 59
q7 3 31 3q1 0 13 -4.5t23.5 -19t13.5 -27.5v-12z" />
    <glyph glyph-name="quotedbl" unicode="&#x22;" 
d="M914 -1h-382q-2 8 -6 25q-4 14 -24 26.5t-33 12.5q-2 0 -11.5 -1t-11.5 -1t-15 -4t-25 -17t-14 -26q1 -7 -3 -15h-387v801h388q1 -8 4 -22q0 -2 10 -21q5 -9 24 -19q16 -8 26 -8q1 0 9.5 1t10 1t4.5 1t6.5 1t20.5 11q27 17 25 52q0 1 2 3h382v-801zM881 742
q0 11 -9.5 21.5t-22.5 10.5q-12 0 -22 -10.5t-10 -21.5q0 -9 7.5 -19.5t18.5 -10.5q1 0 3 -1t3 -1h4q3 1 5.5 1t9.5 5q13 10 13 26zM755 742q0 11 -10 21.5t-22 10.5t-22 -10.5t-10 -21.5q0 -9 7.5 -19.5t18.5 -10.5q1 0 3 -1t3 -1h4q3 1 5.5 1t9.5 5q13 9 13 26zM629 742
q0 11 -10 21.5t-22 10.5t-22 -10.5t-10 -21.5q0 -9 7.5 -19.5t18.5 -10.5q1 0 3 -1t3 -1h4q3 1 5.5 1t9.5 5q13 9 13 26zM350 742q0 11 -9.5 21.5t-22.5 10.5q-12 0 -22 -10.5t-10 -21.5q0 -12 9.5 -22t22.5 -10h4q3 1 4 1q8 0 18 13q6 7 6 18zM224 742q0 11 -9.5 21.5
t-22.5 10.5q-12 0 -22 -10.5t-10 -21.5q0 -12 9.5 -22t22.5 -10h4q3 1 4 1q8 0 18 13q6 7 6 18zM881 60q0 11 -9.5 21.5t-22.5 10.5q-12 0 -22 -10.5t-10 -21.5q0 -12 10 -22t22 -10q13 0 22.5 10t9.5 22zM903 118v562h-890v-562h890zM98 742q0 11 -9.5 21.5t-22.5 10.5
q-12 0 -22 -10.5t-10 -21.5q0 -12 10 -22t22 -10h4q3 1 4 1q8 0 18 13q6 7 6 18zM755 60q0 12 -9.5 22t-22.5 10q-12 0 -22 -10.5t-10 -21.5q0 -12 9.5 -22t22.5 -10q11 0 21.5 10t10.5 22zM629 60q0 12 -9.5 22t-22.5 10q-12 0 -22 -10.5t-10 -21.5q0 -12 9.5 -22t22.5 -10
q11 0 21.5 10t10.5 22zM350 63q0 12 -9.5 22t-22.5 10q-12 0 -22 -10.5t-10 -21.5t9.5 -21.5t22.5 -10.5q11 0 21.5 10t10.5 22zM224 63q0 12 -9.5 22t-22.5 10q-12 0 -22 -10.5t-10 -21.5t9.5 -21.5t22.5 -10.5q11 0 21.5 10t10.5 22zM98 63q0 11 -9.5 21.5t-22.5 10.5
q-12 0 -22 -10.5t-10 -21.5t10 -21.5t22 -10.5q13 0 22.5 10.5t9.5 21.5zM877 499h-10q-6 56 -15 78q-17 38 -60 43l-1 -397q2 -7 5 -23t34 -19v-18h-141v18q7 1 22 5q9 3 11 14q5 18 5 25v394q1 1 -1 1q-9 0 -23 -6q-30 -12 -42 -52q-5 -16 -9 -63h-11v143h236v-143z
M626 401q0 -55 -11 -105q-12 -54 -42 -99q-11 -15 -31 -30q-23 -15 -38 -15q-1 0 -8 -1.5t-9 -1.5q-45 0 -79 39q-29 34 -44 88q-17 59 -17 121q0 53 10 102q5 27 13 47q20 52 52 81q29 26 58 26q103 0 137 -158q9 -40 9 -94zM326 163h-134v18h4q6 0 15 5.5t10 8l3 7.5
q4 13 4 18v173h-95v-179q1 -11 9 -21t19 -10q1 0 3.5 -1t3.5 -1v-18h-132v18l7 1q11 0 17 10q2 3 5.5 11.5t3.5 16.5v365q0 14 -7 26q-10 14 -26 13v18h132v-18q-27 0 -32 -23q-1 -4 -3 -10v-164h95v158q-1 3 -2 8q0 13 -10 22.5t-24 8.5v18h134v-18q-14 1 -24 -9.5
t-10 -23.5v-377q0 -1 1 -2.5t1 -3.5q1 -22 32 -27v-18zM556 356v84v8q-1 7 -1 10q-1 36 -11 90q-16 82 -57 82q-48 0 -66 -144q-3 -23 -3 -31v-115q0 -40 13 -95q9 -42 28 -61q12 -11 28 -11q60 0 68 164q0 4 1 11v8z" />
    <glyph glyph-name="numbersign" unicode="#" 
d="M914 -1h-382q-2 8 -6 25q-4 14 -24 26.5t-33 12.5q-2 0 -11.5 -1t-11.5 -1t-15 -4t-25 -17t-14 -26q1 -7 -3 -15h-387v801h388q1 -8 4 -22q0 -2 10 -21q5 -9 24 -19q16 -8 26 -8q1 0 9.5 1t10 1t4.5 1t6.5 1t20.5 11q27 17 25 52q0 1 2 3h382v-801zM881 742
q0 11 -9.5 21.5t-22.5 10.5q-12 0 -22 -10.5t-10 -21.5q0 -9 7.5 -19.5t18.5 -10.5q1 0 3 -1t3 -1h4q3 1 5.5 1t9.5 5q13 10 13 26zM755 742q0 11 -10 21.5t-22 10.5t-22 -10.5t-10 -21.5q0 -9 7.5 -19.5t18.5 -10.5q1 0 3 -1t3 -1h4q3 1 5.5 1t9.5 5q13 9 13 26zM629 742
q0 11 -10 21.5t-22 10.5t-22 -10.5t-10 -21.5q0 -9 7.5 -19.5t18.5 -10.5q1 0 3 -1t3 -1h4q3 1 5.5 1t9.5 5q13 9 13 26zM350 742q0 11 -9.5 21.5t-22.5 10.5q-12 0 -22 -10.5t-10 -21.5q0 -12 9.5 -22t22.5 -10h4q3 1 4 1q8 0 18 13q6 7 6 18zM224 742q0 11 -9.5 21.5
t-22.5 10.5q-12 0 -22 -10.5t-10 -21.5q0 -12 9.5 -22t22.5 -10h4q3 1 4 1q8 0 18 13q6 7 6 18zM881 60q0 11 -9.5 21.5t-22.5 10.5q-12 0 -22 -10.5t-10 -21.5q0 -12 10 -22t22 -10q13 0 22.5 10t9.5 22zM903 118v562h-890v-562h890zM98 742q0 11 -9.5 21.5t-22.5 10.5
q-12 0 -22 -10.5t-10 -21.5q0 -12 10 -22t22 -10h4q3 1 4 1q8 0 18 13q6 7 6 18zM755 60q0 12 -9.5 22t-22.5 10q-12 0 -22 -10.5t-10 -21.5q0 -12 9.5 -22t22.5 -10q11 0 21.5 10t10.5 22zM629 60q0 12 -9.5 22t-22.5 10q-12 0 -22 -10.5t-10 -21.5q0 -12 9.5 -22t22.5 -10
q11 0 21.5 10t10.5 22zM350 63q0 12 -9.5 22t-22.5 10q-12 0 -22 -10.5t-10 -21.5t9.5 -21.5t22.5 -10.5q11 0 21.5 10t10.5 22zM224 63q0 12 -9.5 22t-22.5 10q-12 0 -22 -10.5t-10 -21.5t9.5 -21.5t22.5 -10.5q11 0 21.5 10t10.5 22zM98 63q0 11 -9.5 21.5t-22.5 10.5
q-12 0 -22 -10.5t-10 -21.5t10 -21.5t22 -10.5q13 0 22.5 10.5t9.5 21.5zM879 324l-12 -161h-171v16q6 2 16 9q10 11 10 34v360q0 42 -26 43v18h103v-18q-7 1 -21 -8q-9 -12 -9 -39v-365q0 -29 20 -29h7q38 0 59 66q8 37 15 74h9zM680 401l-3 -74q0 -4 -8 -44
q-25 -135 -99 -135l-6 2q-55 17 -81 125q-12 49 -12 123q0 66 12 129q8 43 28 78q28 48 64 48q40 0 68 -56q19 -37 26 -78q11 -63 11 -118zM449 398q0 -59 -9 -112q-8 -44 -22 -74q-26 -56 -61 -62q-12 -2 -7 -2q-65 0 -93 111q-17 66 -17 142l4 75q0 12 7 43q12 51 21 70
q19 44 55 62q6 2 27 2q9 0 24 -12t19 -18q9 -12 23 -39q11 -29 17 -57q12 -56 12 -129zM220 252q0 2 -3 -7q-17 -46 -35.5 -71.5t-49.5 -25.5q-5 0 -15 4q-53 23 -75 128q-11 52 -11 119q0 65 13 129q8 41 27 75q27 50 64 50q17 0 36.5 -17.5t21.5 -17.5q6 0 14 33h7v-166
h-6q-17 70 -21 79q-22 66 -49 66q-31 0 -45 -78q-9 -47 -9 -91v-114q0 -6 2 -23q3 -27 6 -55q6 -41 20 -63.5t30 -22.5q40 0 68 87q10 -16 10 -18zM627 344v106q0 74 -22 149q-14 31 -24 31q-17 0 -23 -8q-12 -16 -21.5 -52t-11.5 -90q0 -3 -1 -10v-6v-133q0 -44 11 -93
q14 -66 40 -66q30 0 44 82q8 50 8 90zM397 332v131q0 45 -11 97q-15 70 -41 70t-41 -76q-11 -54 -11 -103v-107q0 -41 8 -90q14 -82 44 -82q22 0 36 47q10 33 12 68q0 8 2 26t2 19z" />
    <glyph glyph-name="dollar" unicode="$" 
d="M914 -1h-382q-2 8 -6 25q-4 14 -24 26.5t-33 12.5q-2 0 -11.5 -1t-11.5 -1t-15 -4t-25 -17t-14 -26q1 -7 -3 -15h-387v801h388q1 -8 4 -22q0 -2 10 -21q5 -9 24 -19q16 -8 26 -8q1 0 9.5 1t10 1t4.5 1t6.5 1t20.5 11q27 17 25 52q0 1 2 3h382v-801zM881 742
q0 11 -9.5 21.5t-22.5 10.5q-12 0 -22 -10.5t-10 -21.5q0 -9 7.5 -19.5t18.5 -10.5q1 0 3 -1t3 -1h4q3 1 5.5 1t9.5 5q13 10 13 26zM755 742q0 11 -10 21.5t-22 10.5t-22 -10.5t-10 -21.5q0 -9 7.5 -19.5t18.5 -10.5q1 0 3 -1t3 -1h4q3 1 5.5 1t9.5 5q13 9 13 26zM629 742
q0 11 -10 21.5t-22 10.5t-22 -10.5t-10 -21.5q0 -9 7.5 -19.5t18.5 -10.5q1 0 3 -1t3 -1h4q3 1 5.5 1t9.5 5q13 9 13 26zM350 742q0 11 -9.5 21.5t-22.5 10.5q-12 0 -22 -10.5t-10 -21.5q0 -12 9.5 -22t22.5 -10h4q3 1 4 1q8 0 18 13q6 7 6 18zM224 742q0 11 -9.5 21.5
t-22.5 10.5q-12 0 -22 -10.5t-10 -21.5q0 -12 9.5 -22t22.5 -10h4q3 1 4 1q8 0 18 13q6 7 6 18zM881 60q0 11 -9.5 21.5t-22.5 10.5q-12 0 -22 -10.5t-10 -21.5q0 -12 10 -22t22 -10q13 0 22.5 10t9.5 22zM903 118v562h-890v-562h890zM98 742q0 11 -9.5 21.5t-22.5 10.5
q-12 0 -22 -10.5t-10 -21.5q0 -12 10 -22t22 -10h4q3 1 4 1q8 0 18 13q6 7 6 18zM755 60q0 12 -9.5 22t-22.5 10q-12 0 -22 -10.5t-10 -21.5q0 -12 9.5 -22t22.5 -10q11 0 21.5 10t10.5 22zM629 60q0 12 -9.5 22t-22.5 10q-12 0 -22 -10.5t-10 -21.5q0 -12 9.5 -22t22.5 -10
q11 0 21.5 10t10.5 22zM350 63q0 12 -9.5 22t-22.5 10q-12 0 -22 -10.5t-10 -21.5t9.5 -21.5t22.5 -10.5q11 0 21.5 10t10.5 22zM224 63q0 12 -9.5 22t-22.5 10q-12 0 -22 -10.5t-10 -21.5t9.5 -21.5t22.5 -10.5q11 0 21.5 10t10.5 22zM98 63q0 11 -9.5 21.5t-22.5 10.5
q-12 0 -22 -10.5t-10 -21.5t10 -21.5t22 -10.5q13 0 22.5 10.5t9.5 21.5zM646 329q0 -29 -12 -52t-36 -37q-5 -3 -34 -16q-2 -1 -36 -9t-41 -8h-3.5h-1.5v-61h-46v60q-20 2 -61 7q-20 3 -76 21v94q15 1 16 0h1q13 -35 38 -62q27 -31 59 -36q7 -2 16 -4h6v154q-72 30 -98 48
q-52 37 -52 85q0 50 49 81q43 27 98 28q1 0 4 2v47h45v-46l70 -13q10 0 35 -10q21 -8 24 -11v-86h-17q-11 36 -41 65q-34 32 -71 33v-132q92 -39 108 -50q57 -37 57 -92zM435 488v117h-4q-68 -14 -68 -56q0 -41 72 -61zM556 292q0 28 -24 44q-8 6 -51 25v-135h6q1 0 6 1t6 1
t15 5q42 16 42 59z" />
    <glyph glyph-name="percent" unicode="%" 
d="M914 -1h-382q-2 8 -6 25q-4 14 -24 26.5t-33 12.5q-2 0 -11.5 -1t-11.5 -1t-15 -4t-25 -17t-14 -26q1 -7 -3 -15h-387v801h388q1 -8 4 -22q0 -2 10 -21q5 -9 24 -19q16 -8 26 -8q1 0 9.5 1t10 1t4.5 1t6.5 1t20.5 11q27 17 25 52q0 1 2 3h382v-801zM881 742
q0 11 -9.5 21.5t-22.5 10.5q-12 0 -22 -10.5t-10 -21.5q0 -9 7.5 -19.5t18.5 -10.5q1 0 3 -1t3 -1h4q3 1 5.5 1t9.5 5q13 10 13 26zM755 742q0 11 -10 21.5t-22 10.5t-22 -10.5t-10 -21.5q0 -9 7.5 -19.5t18.5 -10.5q1 0 3 -1t3 -1h4q3 1 5.5 1t9.5 5q13 9 13 26zM629 742
q0 11 -10 21.5t-22 10.5t-22 -10.5t-10 -21.5q0 -9 7.5 -19.5t18.5 -10.5q1 0 3 -1t3 -1h4q3 1 5.5 1t9.5 5q13 9 13 26zM350 742q0 11 -9.5 21.5t-22.5 10.5q-12 0 -22 -10.5t-10 -21.5q0 -12 9.5 -22t22.5 -10h4q3 1 4 1q8 0 18 13q6 7 6 18zM224 742q0 11 -9.5 21.5
t-22.5 10.5q-12 0 -22 -10.5t-10 -21.5q0 -12 9.5 -22t22.5 -10h4q3 1 4 1q8 0 18 13q6 7 6 18zM881 60q0 11 -9.5 21.5t-22.5 10.5q-12 0 -22 -10.5t-10 -21.5q0 -12 10 -22t22 -10q13 0 22.5 10t9.5 22zM903 118v562h-890v-562h890zM98 742q0 11 -9.5 21.5t-22.5 10.5
q-12 0 -22 -10.5t-10 -21.5q0 -12 10 -22t22 -10h4q3 1 4 1q8 0 18 13q6 7 6 18zM755 60q0 12 -9.5 22t-22.5 10q-12 0 -22 -10.5t-10 -21.5q0 -12 9.5 -22t22.5 -10q11 0 21.5 10t10.5 22zM629 60q0 12 -9.5 22t-22.5 10q-12 0 -22 -10.5t-10 -21.5q0 -12 9.5 -22t22.5 -10
q11 0 21.5 10t10.5 22zM350 63q0 12 -9.5 22t-22.5 10q-12 0 -22 -10.5t-10 -21.5t9.5 -21.5t22.5 -10.5q11 0 21.5 10t10.5 22zM224 63q0 12 -9.5 22t-22.5 10q-12 0 -22 -10.5t-10 -21.5t9.5 -21.5t22.5 -10.5q11 0 21.5 10t10.5 22zM98 63q0 11 -9.5 21.5t-22.5 10.5
q-12 0 -22 -10.5t-10 -21.5t10 -21.5t22 -10.5q13 0 22.5 10.5t9.5 21.5zM883 348q0 -1 -2 -20.5t-2 -21.5l-7 -68h-147v12q23 5 23 31v260q0 30 -23 30v12h89v-12q-20 1 -23 -17l-3 -18v-261q0 -21 22 -21q33 0 50 42q7 29 15 58h8v-6zM716 238h-89v14q24 0 24 32v254
q0 20 -10 28q-2 2 -14 4v13h89v-12q-25 -1 -25 -27v-266q0 -14 7 -19q1 -1 18 -9v-12zM614 238h-83v12q2 3 6 3q14 0 14 19q0 13 -4 31q-6 24 -6.5 28t-1.5 7h-56q-12 -57 -12 -65q0 -20 21 -23v-12h-51v14q14 2 16 26l65 312h7q13 -65 41 -195q1 -4 16 -77q9 -44 18 -62
q3 -7 10 -4v-14zM433 238h-85v14q19 1 23 30l-1 265l-64 -309h-6l-64 300v-254q-2 -9 6 -22t19 -10v-14h-59v14q8 -1 15 6.5t7 15.5v273q0 23 -22 24v12h64l51 -239l51 239h65v-11q-4 -1 -11 -3q-12 -4 -12 -25v-266q0 -7 6 -19q2 -4 13 -7q1 0 4 -2v-12zM192 344l-10 -106
h-150v14q6 0 18 7q5 6 5 14v276q0 6 -6 14t-12 8q-2 0 -5 -1v13h147v-102h-6q-5 47 -15 63q-12 23 -43 23q-13 0 -16 -5.5t-3 -8.5v-128q1 -1 5 -1q23 0 32 35q2 20 5 41h5v-173h-5q-2 21 -5 41q-4 25 -21 35q-2 2 -5.5 2.5t-10.5 0.5v-135q1 -2 2 -5q2 -12 20 -12
q48 0 66 90h8zM535 359l-24 120l-24 -120h48z" />
    <glyph glyph-name="ampersand" unicode="&#x26;" 
d="M914 -1h-382q-2 8 -6 25q-4 14 -24 26.5t-33 12.5q-2 0 -11.5 -1t-11.5 -1t-15 -4t-25 -17t-14 -26q1 -7 -3 -15h-387v801h388q1 -8 4 -22q0 -2 10 -21q5 -9 24 -19q16 -8 26 -8q1 0 9.5 1t10 1t4.5 1t6.5 1t20.5 11q27 17 25 52q0 1 2 3h382v-801zM881 742
q0 11 -9.5 21.5t-22.5 10.5q-12 0 -22 -10.5t-10 -21.5q0 -9 7.5 -19.5t18.5 -10.5q1 0 3 -1t3 -1h4q3 1 5.5 1t9.5 5q13 10 13 26zM755 742q0 11 -10 21.5t-22 10.5t-22 -10.5t-10 -21.5q0 -9 7.5 -19.5t18.5 -10.5q1 0 3 -1t3 -1h4q3 1 5.5 1t9.5 5q13 9 13 26zM629 742
q0 11 -10 21.5t-22 10.5t-22 -10.5t-10 -21.5q0 -9 7.5 -19.5t18.5 -10.5q1 0 3 -1t3 -1h4q3 1 5.5 1t9.5 5q13 9 13 26zM350 742q0 11 -9.5 21.5t-22.5 10.5q-12 0 -22 -10.5t-10 -21.5q0 -12 9.5 -22t22.5 -10h4q3 1 4 1q8 0 18 13q6 7 6 18zM224 742q0 11 -9.5 21.5
t-22.5 10.5q-12 0 -22 -10.5t-10 -21.5q0 -12 9.5 -22t22.5 -10h4q3 1 4 1q8 0 18 13q6 7 6 18zM881 60q0 11 -9.5 21.5t-22.5 10.5q-12 0 -22 -10.5t-10 -21.5q0 -12 10 -22t22 -10q13 0 22.5 10t9.5 22zM903 118v562h-890v-562h890zM98 742q0 11 -9.5 21.5t-22.5 10.5
q-12 0 -22 -10.5t-10 -21.5q0 -12 10 -22t22 -10h4q3 1 4 1q8 0 18 13q6 7 6 18zM755 60q0 12 -9.5 22t-22.5 10q-12 0 -22 -10.5t-10 -21.5q0 -12 9.5 -22t22.5 -10q11 0 21.5 10t10.5 22zM629 60q0 12 -9.5 22t-22.5 10q-12 0 -22 -10.5t-10 -21.5q0 -12 9.5 -22t22.5 -10
q11 0 21.5 10t10.5 22zM350 63q0 12 -9.5 22t-22.5 10q-12 0 -22 -10.5t-10 -21.5t9.5 -21.5t22.5 -10.5q11 0 21.5 10t10.5 22zM224 63q0 12 -9.5 22t-22.5 10q-12 0 -22 -10.5t-10 -21.5t9.5 -21.5t22.5 -10.5q11 0 21.5 10t10.5 22zM98 63q0 11 -9.5 21.5t-22.5 10.5
q-12 0 -22 -10.5t-10 -21.5t10 -21.5t22 -10.5q13 0 22.5 10.5t9.5 21.5zM884 330l-12 -115h-159v13q17 4 20 13.5t3 10.5v301q0 9 -8.5 18t-14.5 6v14h157v-112h-6q-9 55 -14 67q-13 26 -51 26q-18 0 -18 -12v-142q1 -1 5 -1q38 0 38 79l2 3h6v-187h-7q-4 43 -7 52
q-9 34 -31 34h-6v-147q0 -20 23 -20q2 0 6 1.5t6 1.5q26 0 45 47q11 27 15 49h8zM701 577q-6 0 -10.5 -2t-7.5 -9q-5 -11 -5 -24v-280q0 -33 23 -33v-14h-89v13q23 4 23 25v296l-68 -334h-7l-68 324l-1 -277q3 -32 27 -34v-13h-64v13q25 4 25 24v301q0 22 -24 24v14h69
l54 -262l55 262h68v-14zM440 370l-1 -10t-2 -14q-1 -37 -21 -81q-28 -62 -72 -62h-5q-6 0 -17 6q-45 21 -64 98q-10 40 -10 60v65q0 17 8 53q23 114 88 114q41 0 68 -53q20 -38 24 -73q0 -5 2 -19.5t2 -15.5v-68zM233 578q-10 -2 -13 -5q-6 -5 -8 -9q-3 -10 -3 -17v-289
q0 -30 24 -29v-14h-93v13q25 3 25 30v138h-67v-135q1 -33 25 -32v-14h-92v13q24 5 24 28v294q0 2 -1 3.5t-1 2.5q0 19 -22 22l1 13h91v-14q-12 3 -19 -12q-5 -10 -6 -21v-121h67v124q0 11 -6.5 21.5t-18.5 8.5v14h93v-13zM392 351v96q0 37 -10 79q-14 55 -38 55
q-23 0 -37 -56q-11 -43 -11 -80v-92l2 -15q2 -19 3 -38q4 -23 13 -49q11 -29 30 -29q24 0 38 53q10 39 10 76z" />
    <glyph glyph-name="quotesingle" unicode="'" 
d="M914 -1h-382q-2 8 -6 25q-4 14 -24 26.5t-33 12.5q-2 0 -11.5 -1t-11.5 -1t-15 -4t-25 -17t-14 -26q1 -7 -3 -15h-387v801h388q1 -8 4 -22q0 -2 10 -21q5 -9 24 -19q16 -8 26 -8q1 0 9.5 1t10 1t4.5 1t6.5 1t20.5 11q27 17 25 52q0 1 2 3h382v-801zM881 742
q0 11 -9.5 21.5t-22.5 10.5q-12 0 -22 -10.5t-10 -21.5q0 -9 7.5 -19.5t18.5 -10.5q1 0 3 -1t3 -1h4q3 1 5.5 1t9.5 5q13 10 13 26zM755 742q0 11 -10 21.5t-22 10.5t-22 -10.5t-10 -21.5q0 -9 7.5 -19.5t18.5 -10.5q1 0 3 -1t3 -1h4q3 1 5.5 1t9.5 5q13 9 13 26zM629 742
q0 11 -10 21.5t-22 10.5t-22 -10.5t-10 -21.5q0 -9 7.5 -19.5t18.5 -10.5q1 0 3 -1t3 -1h4q3 1 5.5 1t9.5 5q13 9 13 26zM350 742q0 11 -9.5 21.5t-22.5 10.5q-12 0 -22 -10.5t-10 -21.5q0 -12 9.5 -22t22.5 -10h4q3 1 4 1q8 0 18 13q6 7 6 18zM224 742q0 11 -9.5 21.5
t-22.5 10.5q-12 0 -22 -10.5t-10 -21.5q0 -12 9.5 -22t22.5 -10h4q3 1 4 1q8 0 18 13q6 7 6 18zM881 60q0 11 -9.5 21.5t-22.5 10.5q-12 0 -22 -10.5t-10 -21.5q0 -12 10 -22t22 -10q13 0 22.5 10t9.5 22zM903 118v562h-890v-562h890zM98 742q0 11 -9.5 21.5t-22.5 10.5
q-12 0 -22 -10.5t-10 -21.5q0 -12 10 -22t22 -10h4q3 1 4 1q8 0 18 13q6 7 6 18zM755 60q0 12 -9.5 22t-22.5 10q-12 0 -22 -10.5t-10 -21.5q0 -12 9.5 -22t22.5 -10q11 0 21.5 10t10.5 22zM629 60q0 12 -9.5 22t-22.5 10q-12 0 -22 -10.5t-10 -21.5q0 -12 9.5 -22t22.5 -10
q11 0 21.5 10t10.5 22zM350 63q0 12 -9.5 22t-22.5 10q-12 0 -22 -10.5t-10 -21.5t9.5 -21.5t22.5 -10.5q11 0 21.5 10t10.5 22zM224 63q0 12 -9.5 22t-22.5 10q-12 0 -22 -10.5t-10 -21.5t9.5 -21.5t22.5 -10.5q11 0 21.5 10t10.5 22zM98 63q0 11 -9.5 21.5t-22.5 10.5
q-12 0 -22 -10.5t-10 -21.5t10 -21.5t22 -10.5q13 0 22.5 10.5t9.5 21.5zM884 330l-12 -115h-159v13q17 4 20 13.5t3 10.5v301q0 9 -8.5 18t-14.5 6v14h157v-112h-6q-9 55 -14 67q-13 26 -51 26q-18 0 -18 -12v-142q1 -1 5 -1q38 0 38 79l2 3h6v-187h-7q-4 43 -7 52
q-9 34 -31 34h-6v-147q0 -20 23 -20q2 0 6 1.5t6 1.5q26 0 45 47q11 27 15 49h8zM701 577q-6 0 -10.5 -2t-7.5 -9q-5 -11 -5 -24v-280q0 -33 23 -33v-14h-89v13q23 4 23 25v296l-68 -334h-7l-68 324l-1 -277q3 -32 27 -34v-13h-64v13q25 4 25 24v301q0 22 -24 24v14h69
l54 -262l55 262h68v-14zM440 370l-1 -10t-2 -14q-1 -37 -21 -81q-28 -62 -72 -62h-5q-6 0 -17 6q-45 21 -64 98q-10 40 -10 60v65q0 17 8 53q23 114 88 114q41 0 68 -53q20 -38 24 -73q0 -5 2 -19.5t2 -15.5v-68zM233 578q-10 -2 -13 -5q-6 -5 -8 -9q-3 -10 -3 -17v-289
q0 -30 24 -29v-14h-93v13q25 3 25 30v138h-67v-135q1 -33 25 -32v-14h-92v13q24 5 24 28v294q0 2 -1 3.5t-1 2.5q0 19 -22 22l1 13h91v-14q-12 3 -19 -12q-5 -10 -6 -21v-121h67v124q0 11 -6.5 21.5t-18.5 8.5v14h93v-13zM392 351v96q0 37 -10 79q-14 55 -38 55
q-23 0 -37 -56q-11 -43 -11 -80v-92l2 -15q2 -19 3 -38q4 -23 13 -49q11 -29 30 -29q24 0 38 53q10 39 10 76z" />
    <glyph glyph-name="parenright" unicode=")" 
d="M914 -1h-382q-2 8 -6 25q-4 14 -24 26.5t-33 12.5q-2 0 -11.5 -1t-11.5 -1t-15 -4t-25 -17t-14 -26q1 -7 -3 -15h-387v801h388q1 -8 4 -22q0 -2 10 -21q5 -9 24 -19q16 -8 26 -8q1 0 9.5 1t10 1t4.5 1t6.5 1t20.5 11q27 17 25 52q0 1 2 3h382v-801zM881 742
q0 11 -9.5 21.5t-22.5 10.5q-12 0 -22 -10.5t-10 -21.5q0 -9 7.5 -19.5t18.5 -10.5q1 0 3 -1t3 -1h4q3 1 5.5 1t9.5 5q13 10 13 26zM755 742q0 11 -10 21.5t-22 10.5t-22 -10.5t-10 -21.5q0 -9 7.5 -19.5t18.5 -10.5q1 0 3 -1t3 -1h4q3 1 5.5 1t9.5 5q13 9 13 26zM629 742
q0 11 -10 21.5t-22 10.5t-22 -10.5t-10 -21.5q0 -9 7.5 -19.5t18.5 -10.5q1 0 3 -1t3 -1h4q3 1 5.5 1t9.5 5q13 9 13 26zM350 742q0 11 -9.5 21.5t-22.5 10.5q-12 0 -22 -10.5t-10 -21.5q0 -12 9.5 -22t22.5 -10h4q3 1 4 1q8 0 18 13q6 7 6 18zM224 742q0 11 -9.5 21.5
t-22.5 10.5q-12 0 -22 -10.5t-10 -21.5q0 -12 9.5 -22t22.5 -10h4q3 1 4 1q8 0 18 13q6 7 6 18zM881 60q0 11 -9.5 21.5t-22.5 10.5q-12 0 -22 -10.5t-10 -21.5q0 -12 10 -22t22 -10q13 0 22.5 10t9.5 22zM903 118v562h-890v-562h890zM98 742q0 11 -9.5 21.5t-22.5 10.5
q-12 0 -22 -10.5t-10 -21.5q0 -12 10 -22t22 -10h4q3 1 4 1q8 0 18 13q6 7 6 18zM755 60q0 12 -9.5 22t-22.5 10q-12 0 -22 -10.5t-10 -21.5q0 -12 9.5 -22t22.5 -10q11 0 21.5 10t10.5 22zM629 60q0 12 -9.5 22t-22.5 10q-12 0 -22 -10.5t-10 -21.5q0 -12 9.5 -22t22.5 -10
q11 0 21.5 10t10.5 22zM350 63q0 12 -9.5 22t-22.5 10q-12 0 -22 -10.5t-10 -21.5t9.5 -21.5t22.5 -10.5q11 0 21.5 10t10.5 22zM224 63q0 12 -9.5 22t-22.5 10q-12 0 -22 -10.5t-10 -21.5t9.5 -21.5t22.5 -10.5q11 0 21.5 10t10.5 22zM98 63q0 11 -9.5 21.5t-22.5 10.5
q-12 0 -22 -10.5t-10 -21.5t10 -21.5t22 -10.5q13 0 22.5 10.5t9.5 21.5zM879 625q-23 -6 -23 -40v-447h-9l-139 394v-306q1 -5 2 -14q1 -37 27 -43v-17h-69v17q18 5 22.5 18t4.5 20v366q0 5 -10 27.5t-16 25.5v17h65l108 -310v238q0 4 -1 13q-2 35 -23 39q-3 2 -5 2v18h66
v-18zM656 625q-16 -2 -21 -10q-8 -13 -8 -32v-372q0 -41 26 -41q-2 0 3 -1v-17h-107v17q11 3 14 5q8 5 10 12q5 20 5 25v372q0 43 -29 42v18h107v-18zM533 151h-100v18q20 2 21 10t3 19l-7 61q-3 12 -8 36h-68l-15 -95q-2 -9 5.5 -20.5t19.5 -10.5v-17h-62v17q16 10 23 40
q3 23 7 47l70 397h7l38 -205q7 -41 22 -125q9 -51 13 -74.5t20 -73.5q4 -8 11 -5v-19zM312 625q-7 -1 -18 -7q-9 -13 -9 -33v-378q0 -20 7 -26.5t15 -9.5q3 -1 5 -2v-17h-102v17q21 0 24 22q1 5 3 16l-1 383l-77 -438h-9l-75 423l-2 2v-354q2 -16 5 -32q6 -20 26 -22v-17
h-72v17q28 3 28 53v355q0 30 -9.5 39.5t-18.5 7.5v19h79l61 -341l62 341h78v-18zM438 324l-31 173l-29 -173h60z" />
    <glyph glyph-name="asterisk" unicode="*" 
d="M914 -1h-382q-2 8 -6 25q-4 14 -24 26.5t-33 12.5q-2 0 -11.5 -1t-11.5 -1t-15 -4t-25 -17t-14 -26q1 -7 -3 -15h-387v801h388q1 -8 4 -22q0 -2 10 -21q5 -9 24 -19q16 -8 26 -8q1 0 9.5 1t10 1t4.5 1t6.5 1t20.5 11q27 17 25 52q0 1 2 3h382v-801zM881 742
q0 11 -9.5 21.5t-22.5 10.5q-12 0 -22 -10.5t-10 -21.5q0 -9 7.5 -19.5t18.5 -10.5q1 0 3 -1t3 -1h4q3 1 5.5 1t9.5 5q13 10 13 26zM755 742q0 11 -10 21.5t-22 10.5t-22 -10.5t-10 -21.5q0 -9 7.5 -19.5t18.5 -10.5q1 0 3 -1t3 -1h4q3 1 5.5 1t9.5 5q13 9 13 26zM629 742
q0 11 -10 21.5t-22 10.5t-22 -10.5t-10 -21.5q0 -9 7.5 -19.5t18.5 -10.5q1 0 3 -1t3 -1h4q3 1 5.5 1t9.5 5q13 9 13 26zM350 742q0 11 -9.5 21.5t-22.5 10.5q-12 0 -22 -10.5t-10 -21.5q0 -12 9.5 -22t22.5 -10h4q3 1 4 1q8 0 18 13q6 7 6 18zM224 742q0 11 -9.5 21.5
t-22.5 10.5q-12 0 -22 -10.5t-10 -21.5q0 -12 9.5 -22t22.5 -10h4q3 1 4 1q8 0 18 13q6 7 6 18zM881 60q0 11 -9.5 21.5t-22.5 10.5q-12 0 -22 -10.5t-10 -21.5q0 -12 10 -22t22 -10q13 0 22.5 10t9.5 22zM903 118v562h-890v-562h890zM98 742q0 11 -9.5 21.5t-22.5 10.5
q-12 0 -22 -10.5t-10 -21.5q0 -12 10 -22t22 -10h4q3 1 4 1q8 0 18 13q6 7 6 18zM755 60q0 12 -9.5 22t-22.5 10q-12 0 -22 -10.5t-10 -21.5q0 -12 9.5 -22t22.5 -10q11 0 21.5 10t10.5 22zM629 60q0 12 -9.5 22t-22.5 10q-12 0 -22 -10.5t-10 -21.5q0 -12 9.5 -22t22.5 -10
q11 0 21.5 10t10.5 22zM350 63q0 12 -9.5 22t-22.5 10q-12 0 -22 -10.5t-10 -21.5t9.5 -21.5t22.5 -10.5q11 0 21.5 10t10.5 22zM224 63q0 12 -9.5 22t-22.5 10q-12 0 -22 -10.5t-10 -21.5t9.5 -21.5t22.5 -10.5q11 0 21.5 10t10.5 22zM98 63q0 11 -9.5 21.5t-22.5 10.5
q-12 0 -22 -10.5t-10 -21.5t10 -21.5t22 -10.5q13 0 22.5 10.5t9.5 21.5zM879 310l-13 -147h-195v18q29 1 29 32v378q0 11 -7 22t-17 10q-1 1 -5 1v18h192v-143h-8q-4 58 -19 88t-56 30q-16 0 -19 -3q-6 -9 -7 -17v-177q-5 0 13 0q1 0 4 2q11 0 20 17q14 27 18 86h8v-239h-8
q-1 16 -4 43q-4 34 -19 55q-9 12 -22 12h-10v-184q0 -28 28 -28q42 0 64 48q8 15 24 78h9zM656 324l-13 -161h-192v18h4q12 0 18 12.5t6 18.5v380q0 11 -7.5 22t-20.5 10v18h115v-18q4 0 -12 -2q-21 -2 -21 -47v-361q0 -28 17 -28q1 0 6 -1t6 -1q41 0 64 59q6 13 21 81h9z
M434 163h-108v18q18 1 23 9q3 4 3 19q0 19 -14 89q-1 2 -3 4h-72l-16 -91q0 -17 9 -22t19 -10v-16h-67v18q7 2 11 7q9 16 21 77l74 387h8l34 -169q15 -78 39 -192l10 -56q7 -32 17 -49q3 -5 12 -6v-17zM190 298q0 -52 -17 -93q-22 -56 -66 -56q-1 0 -7 1.5t-8 1.5
q-8 0 -23 10.5t-17 10.5q-15 0 -11 -23h-10v174h10q13 -151 68 -151q41 0 41 80q0 14 -3.5 34t-50.5 69q-30 31 -43 58q-3 7 -9 22q-10 28 -10 43v62q0 -1 3 17q13 80 59 93q7 2 9 2q12 0 20.5 -3.5t20.5 -12.5q9 -7 13 -7q6 0 9 11q2 6 3 12h9v-154h-9q2 17 -14 68
q-21 64 -54 64q-4 0 -10 -5q-13 -9 -23 -48q1 -6 0 -32q2 -34 37 -69q23 -22 59 -66q24 -44 24 -113zM331 331l-33 169l-27 -147q-4 -17 -4 -19v-3h64z" />
    <glyph glyph-name="plus" unicode="+" 
d="M914 -1h-382q-2 8 -6 25q-4 14 -24 26.5t-33 12.5q-2 0 -11.5 -1t-11.5 -1t-15 -4t-25 -17t-14 -26q1 -7 -3 -15h-387v801h388q1 -8 4 -22q0 -2 10 -21q5 -9 24 -19q16 -8 26 -8q1 0 9.5 1t10 1t4.5 1t6.5 1t20.5 11q27 17 25 52q0 1 2 3h382v-801zM881 742
q0 11 -9.5 21.5t-22.5 10.5q-12 0 -22 -10.5t-10 -21.5q0 -9 7.5 -19.5t18.5 -10.5q1 0 3 -1t3 -1h4q3 1 5.5 1t9.5 5q13 10 13 26zM755 742q0 11 -10 21.5t-22 10.5t-22 -10.5t-10 -21.5q0 -9 7.5 -19.5t18.5 -10.5q1 0 3 -1t3 -1h4q3 1 5.5 1t9.5 5q13 9 13 26zM629 742
q0 11 -10 21.5t-22 10.5t-22 -10.5t-10 -21.5q0 -9 7.5 -19.5t18.5 -10.5q1 0 3 -1t3 -1h4q3 1 5.5 1t9.5 5q13 9 13 26zM350 742q0 11 -9.5 21.5t-22.5 10.5q-12 0 -22 -10.5t-10 -21.5q0 -12 9.5 -22t22.5 -10h4q3 1 4 1q8 0 18 13q6 7 6 18zM224 742q0 11 -9.5 21.5
t-22.5 10.5q-12 0 -22 -10.5t-10 -21.5q0 -12 9.5 -22t22.5 -10h4q3 1 4 1q8 0 18 13q6 7 6 18zM881 60q0 11 -9.5 21.5t-22.5 10.5q-12 0 -22 -10.5t-10 -21.5q0 -12 10 -22t22 -10q13 0 22.5 10t9.5 22zM903 118v562h-890v-562h890zM98 742q0 11 -9.5 21.5t-22.5 10.5
q-12 0 -22 -10.5t-10 -21.5q0 -12 10 -22t22 -10h4q3 1 4 1q8 0 18 13q6 7 6 18zM755 60q0 12 -9.5 22t-22.5 10q-12 0 -22 -10.5t-10 -21.5q0 -12 9.5 -22t22.5 -10q11 0 21.5 10t10.5 22zM629 60q0 12 -9.5 22t-22.5 10q-12 0 -22 -10.5t-10 -21.5q0 -12 9.5 -22t22.5 -10
q11 0 21.5 10t10.5 22zM350 63q0 12 -9.5 22t-22.5 10q-12 0 -22 -10.5t-10 -21.5t9.5 -21.5t22.5 -10.5q11 0 21.5 10t10.5 22zM224 63q0 12 -9.5 22t-22.5 10q-12 0 -22 -10.5t-10 -21.5t9.5 -21.5t22.5 -10.5q11 0 21.5 10t10.5 22zM98 63q0 11 -9.5 21.5t-22.5 10.5
q-12 0 -22 -10.5t-10 -21.5t10 -21.5t22 -10.5q13 0 22.5 10.5t9.5 21.5zM879 584q0 -28 -25 -47q-21 -15 -37 -15q-3 0 -10.5 -2.5t-8.5 -2.5h-13q-11 -1 -12 -1h-37v-78q0 -6 7 -12.5t13 -6.5t17 -2v-9h-141v9q36 4 36 26v171q0 26 -36 26l1 9h143q2 0 15 -2t15 -2
q14 0 35 -8q38 -16 38 -53zM610 528q0 -86 -89 -117q-8 -3 -29 -7q-12 -2 -31 -2q-2 0 -16 1.5t-15 1.5h-4q-2 1 -2.5 1t-23.5 5q-28 6 -54.5 33t-31.5 55q-3 16 -3 30q0 19 5 36q7 22 23 39q34 39 92 47q1 1 3 2h4h42q63 -7 98 -43q32 -33 32 -82zM791 325q0 -56 -80 -67
q-13 -2 -10 -2h-52v-79q0 -16 18 -16q1 0 3 -1t3.5 -1t6 -1t6.5 -1v-9h-142l1 10q35 -2 35 26v168q0 29 -36 27v9h156q31 0 57 -14q34 -18 34 -49zM529 148h-148v9q39 3 39 20v184q0 17 -39 19v8h148v-9q-9 3 -24.5 -3t-15.5 -18v-180q0 -21 34 -21h3.5h2.5v-9zM287 577h-11
q-2 6 -5 17q-10 43 -75 44q-2 1 -2 -2v-193q0 -25 26 -25h6.5h7.5l2 -10h-151v9q12 2 24 3q16 5 16 20v198q-26 0 -48 -11q-28 -14 -31 -41l-1 -3.5t-1 -5.5h-11v72h254v-72zM359 317h-12q-8 60 -68 60h-13v-198q0 -23 42 -22v-9h-151v9q40 3 41 23v196q-2 1 -7 1
q-68 0 -75 -60h-11v71h254v-71zM806 582q0 54 -49 54q-21 0 -21 -10v-97h20q3 -1 24 5q26 6 26 48zM718 322q0 53 -47 53q-22 0 -22 -9v-97h24q-1 0 17 4q28 6 28 49zM535 502q1 6 0 49q-1 10 -11 45q-5 16 -22.5 31t-32.5 15q-22 0 -35 -5q-49 -19 -49 -110q0 -113 76 -113
q66 0 74 88z" />
    <glyph glyph-name="comma" unicode="," 
d="M914 -1h-382q-2 8 -6 25q-4 14 -24 26.5t-33 12.5q-2 0 -11.5 -1t-11.5 -1t-15 -4t-25 -17t-14 -26q1 -7 -3 -15h-387v801h388q1 -8 4 -22q0 -2 10 -21q5 -9 24 -19q16 -8 26 -8q1 0 9.5 1t10 1t4.5 1t6.5 1t20.5 11q27 17 25 52q0 1 2 3h382v-801zM881 742
q0 11 -9.5 21.5t-22.5 10.5q-12 0 -22 -10.5t-10 -21.5q0 -9 7.5 -19.5t18.5 -10.5q1 0 3 -1t3 -1h4q3 1 5.5 1t9.5 5q13 10 13 26zM755 742q0 11 -10 21.5t-22 10.5t-22 -10.5t-10 -21.5q0 -9 7.5 -19.5t18.5 -10.5q1 0 3 -1t3 -1h4q3 1 5.5 1t9.5 5q13 9 13 26zM629 742
q0 11 -10 21.5t-22 10.5t-22 -10.5t-10 -21.5q0 -9 7.5 -19.5t18.5 -10.5q1 0 3 -1t3 -1h4q3 1 5.5 1t9.5 5q13 9 13 26zM350 742q0 11 -9.5 21.5t-22.5 10.5q-12 0 -22 -10.5t-10 -21.5q0 -12 9.5 -22t22.5 -10h4q3 1 4 1q8 0 18 13q6 7 6 18zM224 742q0 11 -9.5 21.5
t-22.5 10.5q-12 0 -22 -10.5t-10 -21.5q0 -12 9.5 -22t22.5 -10h4q3 1 4 1q8 0 18 13q6 7 6 18zM881 60q0 11 -9.5 21.5t-22.5 10.5q-12 0 -22 -10.5t-10 -21.5q0 -12 10 -22t22 -10q13 0 22.5 10t9.5 22zM903 118v562h-890v-562h890zM98 742q0 11 -9.5 21.5t-22.5 10.5
q-12 0 -22 -10.5t-10 -21.5q0 -12 10 -22t22 -10h4q3 1 4 1q8 0 18 13q6 7 6 18zM755 60q0 12 -9.5 22t-22.5 10q-12 0 -22 -10.5t-10 -21.5q0 -12 9.5 -22t22.5 -10q11 0 21.5 10t10.5 22zM629 60q0 12 -9.5 22t-22.5 10q-12 0 -22 -10.5t-10 -21.5q0 -12 9.5 -22t22.5 -10
q11 0 21.5 10t10.5 22zM350 63q0 12 -9.5 22t-22.5 10q-12 0 -22 -10.5t-10 -21.5t9.5 -21.5t22.5 -10.5q11 0 21.5 10t10.5 22zM224 63q0 12 -9.5 22t-22.5 10q-12 0 -22 -10.5t-10 -21.5t9.5 -21.5t22.5 -10.5q11 0 21.5 10t10.5 22zM98 63q0 11 -9.5 21.5t-22.5 10.5
q-12 0 -22 -10.5t-10 -21.5t10 -21.5t22 -10.5q13 0 22.5 10.5t9.5 21.5zM891 129h-867v540h867v-540z" />
    <glyph glyph-name="hyphen" unicode="-" 
d="M914 -1h-382q-2 8 -6 25q-4 14 -24 26.5t-33 12.5q-2 0 -11.5 -1t-11.5 -1t-15 -4t-25 -17t-14 -26q1 -7 -3 -15h-387v801h388q1 -8 4 -22q0 -2 10 -21q5 -9 24 -19q16 -8 26 -8q1 0 9.5 1t10 1t4.5 1t6.5 1t20.5 11q27 17 25 52q0 1 2 3h382v-801zM881 742
q0 11 -9.5 21.5t-22.5 10.5q-12 0 -22 -10.5t-10 -21.5q0 -9 7.5 -19.5t18.5 -10.5q1 0 3 -1t3 -1h4q3 1 5.5 1t9.5 5q13 10 13 26zM755 742q0 11 -10 21.5t-22 10.5t-22 -10.5t-10 -21.5q0 -9 7.5 -19.5t18.5 -10.5q1 0 3 -1t3 -1h4q3 1 5.5 1t9.5 5q13 9 13 26zM629 742
q0 11 -10 21.5t-22 10.5t-22 -10.5t-10 -21.5q0 -9 7.5 -19.5t18.5 -10.5q1 0 3 -1t3 -1h4q3 1 5.5 1t9.5 5q13 9 13 26zM350 742q0 11 -9.5 21.5t-22.5 10.5q-12 0 -22 -10.5t-10 -21.5q0 -12 9.5 -22t22.5 -10h4q3 1 4 1q8 0 18 13q6 7 6 18zM224 742q0 11 -9.5 21.5
t-22.5 10.5q-12 0 -22 -10.5t-10 -21.5q0 -12 9.5 -22t22.5 -10h4q3 1 4 1q8 0 18 13q6 7 6 18zM881 60q0 11 -9.5 21.5t-22.5 10.5q-12 0 -22 -10.5t-10 -21.5q0 -12 10 -22t22 -10q13 0 22.5 10t9.5 22zM903 118v562h-890v-562h890zM98 742q0 11 -9.5 21.5t-22.5 10.5
q-12 0 -22 -10.5t-10 -21.5q0 -12 10 -22t22 -10h4q3 1 4 1q8 0 18 13q6 7 6 18zM755 60q0 12 -9.5 22t-22.5 10q-12 0 -22 -10.5t-10 -21.5q0 -12 9.5 -22t22.5 -10q11 0 21.5 10t10.5 22zM629 60q0 12 -9.5 22t-22.5 10q-12 0 -22 -10.5t-10 -21.5q0 -12 9.5 -22t22.5 -10
q11 0 21.5 10t10.5 22zM350 63q0 12 -9.5 22t-22.5 10q-12 0 -22 -10.5t-10 -21.5t9.5 -21.5t22.5 -10.5q11 0 21.5 10t10.5 22zM224 63q0 12 -9.5 22t-22.5 10q-12 0 -22 -10.5t-10 -21.5t9.5 -21.5t22.5 -10.5q11 0 21.5 10t10.5 22zM98 63q0 11 -9.5 21.5t-22.5 10.5
q-12 0 -22 -10.5t-10 -21.5t10 -21.5t22 -10.5q13 0 22.5 10.5t9.5 21.5zM891 129h-867v540h867v-540z" />
    <glyph glyph-name="hyphen" unicode="&#x2010;" 
d="M914 -1h-382q-2 8 -6 25q-4 14 -24 26.5t-33 12.5q-2 0 -11.5 -1t-11.5 -1t-15 -4t-25 -17t-14 -26q1 -7 -3 -15h-387v801h388q1 -8 4 -22q0 -2 10 -21q5 -9 24 -19q16 -8 26 -8q1 0 9.5 1t10 1t4.5 1t6.5 1t20.5 11q27 17 25 52q0 1 2 3h382v-801zM881 742
q0 11 -9.5 21.5t-22.5 10.5q-12 0 -22 -10.5t-10 -21.5q0 -9 7.5 -19.5t18.5 -10.5q1 0 3 -1t3 -1h4q3 1 5.5 1t9.5 5q13 10 13 26zM755 742q0 11 -10 21.5t-22 10.5t-22 -10.5t-10 -21.5q0 -9 7.5 -19.5t18.5 -10.5q1 0 3 -1t3 -1h4q3 1 5.5 1t9.5 5q13 9 13 26zM629 742
q0 11 -10 21.5t-22 10.5t-22 -10.5t-10 -21.5q0 -9 7.5 -19.5t18.5 -10.5q1 0 3 -1t3 -1h4q3 1 5.5 1t9.5 5q13 9 13 26zM350 742q0 11 -9.5 21.5t-22.5 10.5q-12 0 -22 -10.5t-10 -21.5q0 -12 9.5 -22t22.5 -10h4q3 1 4 1q8 0 18 13q6 7 6 18zM224 742q0 11 -9.5 21.5
t-22.5 10.5q-12 0 -22 -10.5t-10 -21.5q0 -12 9.5 -22t22.5 -10h4q3 1 4 1q8 0 18 13q6 7 6 18zM881 60q0 11 -9.5 21.5t-22.5 10.5q-12 0 -22 -10.5t-10 -21.5q0 -12 10 -22t22 -10q13 0 22.5 10t9.5 22zM903 118v562h-890v-562h890zM98 742q0 11 -9.5 21.5t-22.5 10.5
q-12 0 -22 -10.5t-10 -21.5q0 -12 10 -22t22 -10h4q3 1 4 1q8 0 18 13q6 7 6 18zM755 60q0 12 -9.5 22t-22.5 10q-12 0 -22 -10.5t-10 -21.5q0 -12 9.5 -22t22.5 -10q11 0 21.5 10t10.5 22zM629 60q0 12 -9.5 22t-22.5 10q-12 0 -22 -10.5t-10 -21.5q0 -12 9.5 -22t22.5 -10
q11 0 21.5 10t10.5 22zM350 63q0 12 -9.5 22t-22.5 10q-12 0 -22 -10.5t-10 -21.5t9.5 -21.5t22.5 -10.5q11 0 21.5 10t10.5 22zM224 63q0 12 -9.5 22t-22.5 10q-12 0 -22 -10.5t-10 -21.5t9.5 -21.5t22.5 -10.5q11 0 21.5 10t10.5 22zM98 63q0 11 -9.5 21.5t-22.5 10.5
q-12 0 -22 -10.5t-10 -21.5t10 -21.5t22 -10.5q13 0 22.5 10.5t9.5 21.5zM891 129h-867v540h867v-540z" />
    <glyph glyph-name="period" unicode="." 
d="M914 -1h-382q-2 8 -6 25q-4 14 -24 26.5t-33 12.5q-2 0 -11.5 -1t-11.5 -1t-15 -4t-25 -17t-14 -26q1 -7 -3 -15h-387v801h388q1 -8 4 -22q0 -2 10 -21q5 -9 24 -19q16 -8 26 -8q1 0 9.5 1t10 1t4.5 1t6.5 1t20.5 11q27 17 25 52q0 1 2 3h382v-801zM881 742
q0 11 -9.5 21.5t-22.5 10.5q-12 0 -22 -10.5t-10 -21.5q0 -9 7.5 -19.5t18.5 -10.5q1 0 3 -1t3 -1h4q3 1 5.5 1t9.5 5q13 10 13 26zM755 742q0 11 -10 21.5t-22 10.5t-22 -10.5t-10 -21.5q0 -9 7.5 -19.5t18.5 -10.5q1 0 3 -1t3 -1h4q3 1 5.5 1t9.5 5q13 9 13 26zM629 742
q0 11 -10 21.5t-22 10.5t-22 -10.5t-10 -21.5q0 -9 7.5 -19.5t18.5 -10.5q1 0 3 -1t3 -1h4q3 1 5.5 1t9.5 5q13 9 13 26zM350 742q0 11 -9.5 21.5t-22.5 10.5q-12 0 -22 -10.5t-10 -21.5q0 -12 9.5 -22t22.5 -10h4q3 1 4 1q8 0 18 13q6 7 6 18zM224 742q0 11 -9.5 21.5
t-22.5 10.5q-12 0 -22 -10.5t-10 -21.5q0 -12 9.5 -22t22.5 -10h4q3 1 4 1q8 0 18 13q6 7 6 18zM881 60q0 11 -9.5 21.5t-22.5 10.5q-12 0 -22 -10.5t-10 -21.5q0 -12 10 -22t22 -10q13 0 22.5 10t9.5 22zM903 118v562h-890v-562h890zM98 742q0 11 -9.5 21.5t-22.5 10.5
q-12 0 -22 -10.5t-10 -21.5q0 -12 10 -22t22 -10h4q3 1 4 1q8 0 18 13q6 7 6 18zM755 60q0 12 -9.5 22t-22.5 10q-12 0 -22 -10.5t-10 -21.5q0 -12 9.5 -22t22.5 -10q11 0 21.5 10t10.5 22zM629 60q0 12 -9.5 22t-22.5 10q-12 0 -22 -10.5t-10 -21.5q0 -12 9.5 -22t22.5 -10
q11 0 21.5 10t10.5 22zM350 63q0 12 -9.5 22t-22.5 10q-12 0 -22 -10.5t-10 -21.5t9.5 -21.5t22.5 -10.5q11 0 21.5 10t10.5 22zM224 63q0 12 -9.5 22t-22.5 10q-12 0 -22 -10.5t-10 -21.5t9.5 -21.5t22.5 -10.5q11 0 21.5 10t10.5 22zM98 63q0 11 -9.5 21.5t-22.5 10.5
q-12 0 -22 -10.5t-10 -21.5t10 -21.5t22 -10.5q13 0 22.5 10.5t9.5 21.5z" />
    <glyph glyph-name="slash" unicode="/" 
d="M914 -1h-382q-2 8 -6 25q-4 14 -24 26.5t-33 12.5q-2 0 -11.5 -1t-11.5 -1t-15 -4t-25 -17t-14 -26q1 -7 -3 -15h-387v801h388q1 -8 4 -22q0 -2 10 -21q5 -9 24 -19q16 -8 26 -8q1 0 9.5 1t10 1t4.5 1t6.5 1t20.5 11q27 17 25 52q0 1 2 3h382v-801zM881 742
q0 11 -9.5 21.5t-22.5 10.5q-12 0 -22 -10.5t-10 -21.5q0 -9 7.5 -19.5t18.5 -10.5q1 0 3 -1t3 -1h4q3 1 5.5 1t9.5 5q13 10 13 26zM755 742q0 11 -10 21.5t-22 10.5t-22 -10.5t-10 -21.5q0 -9 7.5 -19.5t18.5 -10.5q1 0 3 -1t3 -1h4q3 1 5.5 1t9.5 5q13 9 13 26zM629 742
q0 11 -10 21.5t-22 10.5t-22 -10.5t-10 -21.5q0 -9 7.5 -19.5t18.5 -10.5q1 0 3 -1t3 -1h4q3 1 5.5 1t9.5 5q13 9 13 26zM350 742q0 11 -9.5 21.5t-22.5 10.5q-12 0 -22 -10.5t-10 -21.5q0 -12 9.5 -22t22.5 -10h4q3 1 4 1q8 0 18 13q6 7 6 18zM224 742q0 11 -9.5 21.5
t-22.5 10.5q-12 0 -22 -10.5t-10 -21.5q0 -12 9.5 -22t22.5 -10h4q3 1 4 1q8 0 18 13q6 7 6 18zM881 60q0 11 -9.5 21.5t-22.5 10.5q-12 0 -22 -10.5t-10 -21.5q0 -12 10 -22t22 -10q13 0 22.5 10t9.5 22zM903 118v562h-890v-562h890zM98 742q0 11 -9.5 21.5t-22.5 10.5
q-12 0 -22 -10.5t-10 -21.5q0 -12 10 -22t22 -10h4q3 1 4 1q8 0 18 13q6 7 6 18zM755 60q0 12 -9.5 22t-22.5 10q-12 0 -22 -10.5t-10 -21.5q0 -12 9.5 -22t22.5 -10q11 0 21.5 10t10.5 22zM629 60q0 12 -9.5 22t-22.5 10q-12 0 -22 -10.5t-10 -21.5q0 -12 9.5 -22t22.5 -10
q11 0 21.5 10t10.5 22zM350 63q0 12 -9.5 22t-22.5 10q-12 0 -22 -10.5t-10 -21.5t9.5 -21.5t22.5 -10.5q11 0 21.5 10t10.5 22zM224 63q0 12 -9.5 22t-22.5 10q-12 0 -22 -10.5t-10 -21.5t9.5 -21.5t22.5 -10.5q11 0 21.5 10t10.5 22zM98 63q0 11 -9.5 21.5t-22.5 10.5
q-12 0 -22 -10.5t-10 -21.5t10 -21.5t22 -10.5q13 0 22.5 10.5t9.5 21.5z" />
    <glyph glyph-name="zero" unicode="0" 
d="M914 -1h-382q-2 8 -6 25q-4 14 -24 26.5t-33 12.5q-2 0 -11.5 -1t-11.5 -1t-15 -4t-25 -17t-14 -26q1 -7 -3 -15h-387v801h388q1 -8 4 -22q0 -2 10 -21q5 -9 24 -19q16 -8 26 -8q1 0 9.5 1t10 1t4.5 1t6.5 1t20.5 11q27 17 25 52q0 1 2 3h382v-801zM881 742
q0 11 -9.5 21.5t-22.5 10.5q-12 0 -22 -10.5t-10 -21.5q0 -9 7.5 -19.5t18.5 -10.5q1 0 3 -1t3 -1h4q3 1 5.5 1t9.5 5q13 10 13 26zM755 742q0 11 -10 21.5t-22 10.5t-22 -10.5t-10 -21.5q0 -9 7.5 -19.5t18.5 -10.5q1 0 3 -1t3 -1h4q3 1 5.5 1t9.5 5q13 9 13 26zM629 742
q0 11 -10 21.5t-22 10.5t-22 -10.5t-10 -21.5q0 -9 7.5 -19.5t18.5 -10.5q1 0 3 -1t3 -1h4q3 1 5.5 1t9.5 5q13 9 13 26zM350 742q0 11 -9.5 21.5t-22.5 10.5q-12 0 -22 -10.5t-10 -21.5q0 -12 9.5 -22t22.5 -10h4q3 1 4 1q8 0 18 13q6 7 6 18zM224 742q0 11 -9.5 21.5
t-22.5 10.5q-12 0 -22 -10.5t-10 -21.5q0 -12 9.5 -22t22.5 -10h4q3 1 4 1q8 0 18 13q6 7 6 18zM881 60q0 11 -9.5 21.5t-22.5 10.5q-12 0 -22 -10.5t-10 -21.5q0 -12 10 -22t22 -10q13 0 22.5 10t9.5 22zM903 118v562h-890v-562h890zM98 742q0 11 -9.5 21.5t-22.5 10.5
q-12 0 -22 -10.5t-10 -21.5q0 -12 10 -22t22 -10h4q3 1 4 1q8 0 18 13q6 7 6 18zM755 60q0 12 -9.5 22t-22.5 10q-12 0 -22 -10.5t-10 -21.5q0 -12 9.5 -22t22.5 -10q11 0 21.5 10t10.5 22zM629 60q0 12 -9.5 22t-22.5 10q-12 0 -22 -10.5t-10 -21.5q0 -12 9.5 -22t22.5 -10
q11 0 21.5 10t10.5 22zM350 63q0 12 -9.5 22t-22.5 10q-12 0 -22 -10.5t-10 -21.5t9.5 -21.5t22.5 -10.5q11 0 21.5 10t10.5 22zM224 63q0 12 -9.5 22t-22.5 10q-12 0 -22 -10.5t-10 -21.5t9.5 -21.5t22.5 -10.5q11 0 21.5 10t10.5 22zM98 63q0 11 -9.5 21.5t-22.5 10.5
q-12 0 -22 -10.5t-10 -21.5t10 -21.5t22 -10.5q13 0 22.5 10.5t9.5 21.5zM616 400q0 -94 -39 -167q-47 -87 -126 -87q-22 0 -47 10q-78 30 -108 147q-11 43 -11 97l4 65q0 6 7 35.5t18 53.5q21 48 58.5 76.5t78.5 28.5q58 0 103 -54q39 -48 52 -113q10 -49 10 -92zM500 295
v223q0 121 -51 121q-36 0 -45 -74q-3 -19 -3 -25v-268q0 -6 3 -27q9 -78 47 -78q18 0 27 13t13 32q9 46 9 83z" />
    <glyph glyph-name="one" unicode="1" 
d="M914 -1h-382q-2 8 -6 25q-4 14 -24 26.5t-33 12.5q-2 0 -11.5 -1t-11.5 -1t-15 -4t-25 -17t-14 -26q1 -7 -3 -15h-387v801h388q1 -8 4 -22q0 -2 10 -21q5 -9 24 -19q16 -8 26 -8q1 0 9.5 1t10 1t4.5 1t6.5 1t20.5 11q27 17 25 52q0 1 2 3h382v-801zM881 742
q0 11 -9.5 21.5t-22.5 10.5q-12 0 -22 -10.5t-10 -21.5q0 -9 7.5 -19.5t18.5 -10.5q1 0 3 -1t3 -1h4q3 1 5.5 1t9.5 5q13 10 13 26zM755 742q0 11 -10 21.5t-22 10.5t-22 -10.5t-10 -21.5q0 -9 7.5 -19.5t18.5 -10.5q1 0 3 -1t3 -1h4q3 1 5.5 1t9.5 5q13 9 13 26zM629 742
q0 11 -10 21.5t-22 10.5t-22 -10.5t-10 -21.5q0 -9 7.5 -19.5t18.5 -10.5q1 0 3 -1t3 -1h4q3 1 5.5 1t9.5 5q13 9 13 26zM350 742q0 11 -9.5 21.5t-22.5 10.5q-12 0 -22 -10.5t-10 -21.5q0 -12 9.5 -22t22.5 -10h4q3 1 4 1q8 0 18 13q6 7 6 18zM224 742q0 11 -9.5 21.5
t-22.5 10.5q-12 0 -22 -10.5t-10 -21.5q0 -12 9.5 -22t22.5 -10h4q3 1 4 1q8 0 18 13q6 7 6 18zM881 60q0 11 -9.5 21.5t-22.5 10.5q-12 0 -22 -10.5t-10 -21.5q0 -12 10 -22t22 -10q13 0 22.5 10t9.5 22zM903 118v562h-890v-562h890zM98 742q0 11 -9.5 21.5t-22.5 10.5
q-12 0 -22 -10.5t-10 -21.5q0 -12 10 -22t22 -10h4q3 1 4 1q8 0 18 13q6 7 6 18zM755 60q0 12 -9.5 22t-22.5 10q-12 0 -22 -10.5t-10 -21.5q0 -12 9.5 -22t22.5 -10q11 0 21.5 10t10.5 22zM629 60q0 12 -9.5 22t-22.5 10q-12 0 -22 -10.5t-10 -21.5q0 -12 9.5 -22t22.5 -10
q11 0 21.5 10t10.5 22zM350 63q0 12 -9.5 22t-22.5 10q-12 0 -22 -10.5t-10 -21.5t9.5 -21.5t22.5 -10.5q11 0 21.5 10t10.5 22zM224 63q0 12 -9.5 22t-22.5 10q-12 0 -22 -10.5t-10 -21.5t9.5 -21.5t22.5 -10.5q11 0 21.5 10t10.5 22zM98 63q0 11 -9.5 21.5t-22.5 10.5
q-12 0 -22 -10.5t-10 -21.5t10 -21.5t22 -10.5q13 0 22.5 10.5t9.5 21.5zM591 156h-274v18q-2 0 28 0q1 0 7.5 1t7.5 1q-4 0 15 6q28 8 28 42v322q0 12 -8 22.5t-20 10.5h-4q-2 -1 -4 -1l-52 -17v18l183 80h13v-428q0 -58 73 -58h7v-17z" />
    <glyph glyph-name="two" unicode="2" 
d="M914 -1h-382q-2 8 -6 25q-4 14 -24 26.5t-33 12.5q-2 0 -11.5 -1t-11.5 -1t-15 -4t-25 -17t-14 -26q1 -7 -3 -15h-387v801h388q1 -8 4 -22q0 -2 10 -21q5 -9 24 -19q16 -8 26 -8q1 0 9.5 1t10 1t4.5 1t6.5 1t20.5 11q27 17 25 52q0 1 2 3h382v-801zM881 742
q0 11 -9.5 21.5t-22.5 10.5q-12 0 -22 -10.5t-10 -21.5q0 -9 7.5 -19.5t18.5 -10.5q1 0 3 -1t3 -1h4q3 1 5.5 1t9.5 5q13 10 13 26zM755 742q0 11 -10 21.5t-22 10.5t-22 -10.5t-10 -21.5q0 -9 7.5 -19.5t18.5 -10.5q1 0 3 -1t3 -1h4q3 1 5.5 1t9.5 5q13 9 13 26zM629 742
q0 11 -10 21.5t-22 10.5t-22 -10.5t-10 -21.5q0 -9 7.5 -19.5t18.5 -10.5q1 0 3 -1t3 -1h4q3 1 5.5 1t9.5 5q13 9 13 26zM350 742q0 11 -9.5 21.5t-22.5 10.5q-12 0 -22 -10.5t-10 -21.5q0 -12 9.5 -22t22.5 -10h4q3 1 4 1q8 0 18 13q6 7 6 18zM224 742q0 11 -9.5 21.5
t-22.5 10.5q-12 0 -22 -10.5t-10 -21.5q0 -12 9.5 -22t22.5 -10h4q3 1 4 1q8 0 18 13q6 7 6 18zM881 60q0 11 -9.5 21.5t-22.5 10.5q-12 0 -22 -10.5t-10 -21.5q0 -12 10 -22t22 -10q13 0 22.5 10t9.5 22zM903 118v562h-890v-562h890zM98 742q0 11 -9.5 21.5t-22.5 10.5
q-12 0 -22 -10.5t-10 -21.5q0 -12 10 -22t22 -10h4q3 1 4 1q8 0 18 13q6 7 6 18zM755 60q0 12 -9.5 22t-22.5 10q-12 0 -22 -10.5t-10 -21.5q0 -12 9.5 -22t22.5 -10q11 0 21.5 10t10.5 22zM629 60q0 12 -9.5 22t-22.5 10q-12 0 -22 -10.5t-10 -21.5q0 -12 9.5 -22t22.5 -10
q11 0 21.5 10t10.5 22zM350 63q0 12 -9.5 22t-22.5 10q-12 0 -22 -10.5t-10 -21.5t9.5 -21.5t22.5 -10.5q11 0 21.5 10t10.5 22zM224 63q0 12 -9.5 22t-22.5 10q-12 0 -22 -10.5t-10 -21.5t9.5 -21.5t22.5 -10.5q11 0 21.5 10t10.5 22zM98 63q0 11 -9.5 21.5t-22.5 10.5
q-12 0 -22 -10.5t-10 -21.5t10 -21.5t22 -10.5q13 0 22.5 10.5t9.5 21.5zM617 310l-33 -154h-304v17q64 72 129 145q78 97 78 163q0 39 -23.5 67t-63.5 28q-56 0 -81 -52q-4 -5 -9 -15h-19v4l5 13q20 50 49 84q24 27 51 38t39 11q38 0 59 -6q93 -27 93 -128q0 -70 -64 -139
l-138 -132l128 -1q20 1 56 10q15 9 26 38q2 3 4 9h18z" />
    <glyph glyph-name="three" unicode="3" 
d="M914 -1h-382q-2 8 -6 25q-4 14 -24 26.5t-33 12.5q-2 0 -11.5 -1t-11.5 -1t-15 -4t-25 -17t-14 -26q1 -7 -3 -15h-387v801h388q1 -8 4 -22q0 -2 10 -21q5 -9 24 -19q16 -8 26 -8q1 0 9.5 1t10 1t4.5 1t6.5 1t20.5 11q27 17 25 52q0 1 2 3h382v-801zM881 742
q0 11 -9.5 21.5t-22.5 10.5q-12 0 -22 -10.5t-10 -21.5q0 -9 7.5 -19.5t18.5 -10.5q1 0 3 -1t3 -1h4q3 1 5.5 1t9.5 5q13 10 13 26zM755 742q0 11 -10 21.5t-22 10.5t-22 -10.5t-10 -21.5q0 -9 7.5 -19.5t18.5 -10.5q1 0 3 -1t3 -1h4q3 1 5.5 1t9.5 5q13 9 13 26zM629 742
q0 11 -10 21.5t-22 10.5t-22 -10.5t-10 -21.5q0 -9 7.5 -19.5t18.5 -10.5q1 0 3 -1t3 -1h4q3 1 5.5 1t9.5 5q13 9 13 26zM350 742q0 11 -9.5 21.5t-22.5 10.5q-12 0 -22 -10.5t-10 -21.5q0 -12 9.5 -22t22.5 -10h4q3 1 4 1q8 0 18 13q6 7 6 18zM224 742q0 11 -9.5 21.5
t-22.5 10.5q-12 0 -22 -10.5t-10 -21.5q0 -12 9.5 -22t22.5 -10h4q3 1 4 1q8 0 18 13q6 7 6 18zM881 60q0 11 -9.5 21.5t-22.5 10.5q-12 0 -22 -10.5t-10 -21.5q0 -12 10 -22t22 -10q13 0 22.5 10t9.5 22zM903 118v562h-890v-562h890zM98 742q0 11 -9.5 21.5t-22.5 10.5
q-12 0 -22 -10.5t-10 -21.5q0 -12 10 -22t22 -10h4q3 1 4 1q8 0 18 13q6 7 6 18zM755 60q0 12 -9.5 22t-22.5 10q-12 0 -22 -10.5t-10 -21.5q0 -12 9.5 -22t22.5 -10q11 0 21.5 10t10.5 22zM629 60q0 12 -9.5 22t-22.5 10q-12 0 -22 -10.5t-10 -21.5q0 -12 9.5 -22t22.5 -10
q11 0 21.5 10t10.5 22zM350 63q0 12 -9.5 22t-22.5 10q-12 0 -22 -10.5t-10 -21.5t9.5 -21.5t22.5 -10.5q11 0 21.5 10t10.5 22zM224 63q0 12 -9.5 22t-22.5 10q-12 0 -22 -10.5t-10 -21.5t9.5 -21.5t22.5 -10.5q11 0 21.5 10t10.5 22zM98 63q0 11 -9.5 21.5t-22.5 10.5
q-12 0 -22 -10.5t-10 -21.5t10 -21.5t22 -10.5q13 0 22.5 10.5t9.5 21.5zM609 355q-1 -38 0 -40q-11 -58 -45 -98q-24 -27 -54 -43q-25 -13 -43 -18q-38 -10 -52 -10q-1 0 -11 -1h-11q-41 0 -73 14q-40 18 -40 53q0 42 46 42q32 0 68.5 -36t60.5 -36q5 0 28 6q17 5 30 27
q11 19 13 37q-1 7 0 31q-1 28 -23.5 59t-51.5 44q-8 4 -36 17q-12 5 -35 13v13q94 25 94 96q0 59 -56 73q-6 1 -33 1q-4 0 -19 -6q-30 -13 -56 -54q-5 3 -15 8q18 55 73 85q49 27 110 27q2 0 11 -2.5t11 -2.5q9 0 26 -7q55 -24 55 -87q0 -59 -60 -94q36 -13 60 -44.5
t28 -66.5z" />
    <glyph glyph-name="four" unicode="4" 
d="M914 -1h-382q-2 8 -6 25q-4 14 -24 26.5t-33 12.5q-2 0 -11.5 -1t-11.5 -1t-15 -4t-25 -17t-14 -26q1 -7 -3 -15h-387v801h388q1 -8 4 -22q0 -2 10 -21q5 -9 24 -19q16 -8 26 -8q1 0 9.5 1t10 1t4.5 1t6.5 1t20.5 11q27 17 25 52q0 1 2 3h382v-801zM881 742
q0 11 -9.5 21.5t-22.5 10.5q-12 0 -22 -10.5t-10 -21.5q0 -9 7.5 -19.5t18.5 -10.5q1 0 3 -1t3 -1h4q3 1 5.5 1t9.5 5q13 10 13 26zM755 742q0 11 -10 21.5t-22 10.5t-22 -10.5t-10 -21.5q0 -9 7.5 -19.5t18.5 -10.5q1 0 3 -1t3 -1h4q3 1 5.5 1t9.5 5q13 9 13 26zM629 742
q0 11 -10 21.5t-22 10.5t-22 -10.5t-10 -21.5q0 -9 7.5 -19.5t18.5 -10.5q1 0 3 -1t3 -1h4q3 1 5.5 1t9.5 5q13 9 13 26zM350 742q0 11 -9.5 21.5t-22.5 10.5q-12 0 -22 -10.5t-10 -21.5q0 -12 9.5 -22t22.5 -10h4q3 1 4 1q8 0 18 13q6 7 6 18zM224 742q0 11 -9.5 21.5
t-22.5 10.5q-12 0 -22 -10.5t-10 -21.5q0 -12 9.5 -22t22.5 -10h4q3 1 4 1q8 0 18 13q6 7 6 18zM881 60q0 11 -9.5 21.5t-22.5 10.5q-12 0 -22 -10.5t-10 -21.5q0 -12 10 -22t22 -10q13 0 22.5 10t9.5 22zM903 118v562h-890v-562h890zM98 742q0 11 -9.5 21.5t-22.5 10.5
q-12 0 -22 -10.5t-10 -21.5q0 -12 10 -22t22 -10h4q3 1 4 1q8 0 18 13q6 7 6 18zM755 60q0 12 -9.5 22t-22.5 10q-12 0 -22 -10.5t-10 -21.5q0 -12 9.5 -22t22.5 -10q11 0 21.5 10t10.5 22zM629 60q0 12 -9.5 22t-22.5 10q-12 0 -22 -10.5t-10 -21.5q0 -12 9.5 -22t22.5 -10
q11 0 21.5 10t10.5 22zM350 63q0 12 -9.5 22t-22.5 10q-12 0 -22 -10.5t-10 -21.5t9.5 -21.5t22.5 -10.5q11 0 21.5 10t10.5 22zM224 63q0 12 -9.5 22t-22.5 10q-12 0 -22 -10.5t-10 -21.5t9.5 -21.5t22.5 -10.5q11 0 21.5 10t10.5 22zM98 63q0 11 -9.5 21.5t-22.5 10.5
q-12 0 -22 -10.5t-10 -21.5t10 -21.5t22 -10.5q13 0 22.5 10.5t9.5 21.5zM615 261h-46v-105h-106v104h-181v84q0 2 16 27q66 98 144 200q33 43 69 88h58v-316h46v-82zM464 343v215l-152 -215h152z" />
    <glyph glyph-name="five" unicode="5" 
d="M914 -1h-382q-2 8 -6 25q-4 14 -24 26.5t-33 12.5q-2 0 -11.5 -1t-11.5 -1t-15 -4t-25 -17t-14 -26q1 -7 -3 -15h-387v801h388q1 -8 4 -22q0 -2 10 -21q5 -9 24 -19q16 -8 26 -8q1 0 9.5 1t10 1t4.5 1t6.5 1t20.5 11q27 17 25 52q0 1 2 3h382v-801zM881 742
q0 11 -9.5 21.5t-22.5 10.5q-12 0 -22 -10.5t-10 -21.5q0 -9 7.5 -19.5t18.5 -10.5q1 0 3 -1t3 -1h4q3 1 5.5 1t9.5 5q13 10 13 26zM755 742q0 11 -10 21.5t-22 10.5t-22 -10.5t-10 -21.5q0 -9 7.5 -19.5t18.5 -10.5q1 0 3 -1t3 -1h4q3 1 5.5 1t9.5 5q13 9 13 26zM629 742
q0 11 -10 21.5t-22 10.5t-22 -10.5t-10 -21.5q0 -9 7.5 -19.5t18.5 -10.5q1 0 3 -1t3 -1h4q3 1 5.5 1t9.5 5q13 9 13 26zM350 742q0 11 -9.5 21.5t-22.5 10.5q-12 0 -22 -10.5t-10 -21.5q0 -12 9.5 -22t22.5 -10h4q3 1 4 1q8 0 18 13q6 7 6 18zM224 742q0 11 -9.5 21.5
t-22.5 10.5q-12 0 -22 -10.5t-10 -21.5q0 -12 9.5 -22t22.5 -10h4q3 1 4 1q8 0 18 13q6 7 6 18zM881 60q0 11 -9.5 21.5t-22.5 10.5q-12 0 -22 -10.5t-10 -21.5q0 -12 10 -22t22 -10q13 0 22.5 10t9.5 22zM903 118v562h-890v-562h890zM98 742q0 11 -9.5 21.5t-22.5 10.5
q-12 0 -22 -10.5t-10 -21.5q0 -12 10 -22t22 -10h4q3 1 4 1q8 0 18 13q6 7 6 18zM755 60q0 12 -9.5 22t-22.5 10q-12 0 -22 -10.5t-10 -21.5q0 -12 9.5 -22t22.5 -10q11 0 21.5 10t10.5 22zM629 60q0 12 -9.5 22t-22.5 10q-12 0 -22 -10.5t-10 -21.5q0 -12 9.5 -22t22.5 -10
q11 0 21.5 10t10.5 22zM350 63q0 12 -9.5 22t-22.5 10q-12 0 -22 -10.5t-10 -21.5t9.5 -21.5t22.5 -10.5q11 0 21.5 10t10.5 22zM224 63q0 12 -9.5 22t-22.5 10q-12 0 -22 -10.5t-10 -21.5t9.5 -21.5t22.5 -10.5q11 0 21.5 10t10.5 22zM98 63q0 11 -9.5 21.5t-22.5 10.5
q-12 0 -22 -10.5t-10 -21.5t10 -21.5t22 -10.5q13 0 22.5 10.5t9.5 21.5zM610 650l-30 -92h-203l-16 -59q11 -2 42 -4q98 -7 148 -56q47 -46 47 -120q0 -3 -5 -33q-13 -74 -108 -119q-10 -5 -41.5 -11.5t-46.5 -6.5q-1 0 -14.5 1.5t-15.5 1.5q-30 0 -56.5 17.5t-26.5 44.5
q0 44 45 44q28 0 71.5 -32t66.5 -32q35 0 56 25q18 22 18 51q0 28 -20 53q-35 43 -103 61q-35 9 -112 14l69 252h235z" />
    <glyph glyph-name="six" unicode="6" 
d="M914 -1h-382q-2 8 -6 25q-4 14 -24 26.5t-33 12.5q-2 0 -11.5 -1t-11.5 -1t-15 -4t-25 -17t-14 -26q1 -7 -3 -15h-387v801h388q1 -8 4 -22q0 -2 10 -21q5 -9 24 -19q16 -8 26 -8q1 0 9.5 1t10 1t4.5 1t6.5 1t20.5 11q27 17 25 52q0 1 2 3h382v-801zM881 742
q0 11 -9.5 21.5t-22.5 10.5q-12 0 -22 -10.5t-10 -21.5q0 -9 7.5 -19.5t18.5 -10.5q1 0 3 -1t3 -1h4q3 1 5.5 1t9.5 5q13 10 13 26zM755 742q0 11 -10 21.5t-22 10.5t-22 -10.5t-10 -21.5q0 -9 7.5 -19.5t18.5 -10.5q1 0 3 -1t3 -1h4q3 1 5.5 1t9.5 5q13 9 13 26zM629 742
q0 11 -10 21.5t-22 10.5t-22 -10.5t-10 -21.5q0 -9 7.5 -19.5t18.5 -10.5q1 0 3 -1t3 -1h4q3 1 5.5 1t9.5 5q13 9 13 26zM350 742q0 11 -9.5 21.5t-22.5 10.5q-12 0 -22 -10.5t-10 -21.5q0 -12 9.5 -22t22.5 -10h4q3 1 4 1q8 0 18 13q6 7 6 18zM224 742q0 11 -9.5 21.5
t-22.5 10.5q-12 0 -22 -10.5t-10 -21.5q0 -12 9.5 -22t22.5 -10h4q3 1 4 1q8 0 18 13q6 7 6 18zM881 60q0 11 -9.5 21.5t-22.5 10.5q-12 0 -22 -10.5t-10 -21.5q0 -12 10 -22t22 -10q13 0 22.5 10t9.5 22zM903 118v562h-890v-562h890zM98 742q0 11 -9.5 21.5t-22.5 10.5
q-12 0 -22 -10.5t-10 -21.5q0 -12 10 -22t22 -10h4q3 1 4 1q8 0 18 13q6 7 6 18zM755 60q0 12 -9.5 22t-22.5 10q-12 0 -22 -10.5t-10 -21.5q0 -12 9.5 -22t22.5 -10q11 0 21.5 10t10.5 22zM629 60q0 12 -9.5 22t-22.5 10q-12 0 -22 -10.5t-10 -21.5q0 -12 9.5 -22t22.5 -10
q11 0 21.5 10t10.5 22zM350 63q0 12 -9.5 22t-22.5 10q-12 0 -22 -10.5t-10 -21.5t9.5 -21.5t22.5 -10.5q11 0 21.5 10t10.5 22zM224 63q0 12 -9.5 22t-22.5 10q-12 0 -22 -10.5t-10 -21.5t9.5 -21.5t22.5 -10.5q11 0 21.5 10t10.5 22zM98 63q0 11 -9.5 21.5t-22.5 10.5
q-12 0 -22 -10.5t-10 -21.5t10 -21.5t22 -10.5q13 0 22.5 10.5t9.5 21.5zM615 314q0 -32 -13 -66q-40 -102 -146 -102q-1 0 -10.5 1t-10.5 1t-4 1h-3q-11 0 -33 9l-18 9q-31 15 -54 52q-21 32 -27 66q-9 47 -9 78q0 94 64 171q66 81 177 110q62 15 79 15h4v-19
q-10 -3 -30 -8t-51 -21q-44 -23 -76 -71q-28 -41 -37 -87q13 4 39 9q5 1 23 1q67 0 103 -44q33 -40 33 -105zM503 229v82q0 48 -11 79q-9 24 -22 32.5t-31 8.5q-14 0 -19 -2.5t-11 -7.5q-7 -34 -7 -66l1 -55q2 -48 7 -78q11 -56 49 -56q29 0 38 28q6 17 6 35z" />
    <glyph glyph-name="seven" unicode="7" 
d="M914 -1h-382q-2 8 -6 25q-4 14 -24 26.5t-33 12.5q-2 0 -11.5 -1t-11.5 -1t-15 -4t-25 -17t-14 -26q1 -7 -3 -15h-387v801h388q1 -8 4 -22q0 -2 10 -21q5 -9 24 -19q16 -8 26 -8q1 0 9.5 1t10 1t4.5 1t6.5 1t20.5 11q27 17 25 52q0 1 2 3h382v-801zM881 742
q0 11 -9.5 21.5t-22.5 10.5q-12 0 -22 -10.5t-10 -21.5q0 -9 7.5 -19.5t18.5 -10.5q1 0 3 -1t3 -1h4q3 1 5.5 1t9.5 5q13 10 13 26zM755 742q0 11 -10 21.5t-22 10.5t-22 -10.5t-10 -21.5q0 -9 7.5 -19.5t18.5 -10.5q1 0 3 -1t3 -1h4q3 1 5.5 1t9.5 5q13 9 13 26zM629 742
q0 11 -10 21.5t-22 10.5t-22 -10.5t-10 -21.5q0 -9 7.5 -19.5t18.5 -10.5q1 0 3 -1t3 -1h4q3 1 5.5 1t9.5 5q13 9 13 26zM350 742q0 11 -9.5 21.5t-22.5 10.5q-12 0 -22 -10.5t-10 -21.5q0 -12 9.5 -22t22.5 -10h4q3 1 4 1q8 0 18 13q6 7 6 18zM224 742q0 11 -9.5 21.5
t-22.5 10.5q-12 0 -22 -10.5t-10 -21.5q0 -12 9.5 -22t22.5 -10h4q3 1 4 1q8 0 18 13q6 7 6 18zM881 60q0 11 -9.5 21.5t-22.5 10.5q-12 0 -22 -10.5t-10 -21.5q0 -12 10 -22t22 -10q13 0 22.5 10t9.5 22zM903 118v562h-890v-562h890zM98 742q0 11 -9.5 21.5t-22.5 10.5
q-12 0 -22 -10.5t-10 -21.5q0 -12 10 -22t22 -10h4q3 1 4 1q8 0 18 13q6 7 6 18zM755 60q0 12 -9.5 22t-22.5 10q-12 0 -22 -10.5t-10 -21.5q0 -12 9.5 -22t22.5 -10q11 0 21.5 10t10.5 22zM629 60q0 12 -9.5 22t-22.5 10q-12 0 -22 -10.5t-10 -21.5q0 -12 9.5 -22t22.5 -10
q11 0 21.5 10t10.5 22zM350 63q0 12 -9.5 22t-22.5 10q-12 0 -22 -10.5t-10 -21.5t9.5 -21.5t22.5 -10.5q11 0 21.5 10t10.5 22zM224 63q0 12 -9.5 22t-22.5 10q-12 0 -22 -10.5t-10 -21.5t9.5 -21.5t22.5 -10.5q11 0 21.5 10t10.5 22zM98 63q0 11 -9.5 21.5t-22.5 10.5
q-12 0 -22 -10.5t-10 -21.5t10 -21.5t22 -10.5q13 0 22.5 10.5t9.5 21.5zM616 650l-171 -494h-70l147 394h-167q-1 0 -14 -4q-34 -10 -42 -58h-19l31 162h305z" />
    <glyph glyph-name="eight" unicode="8" 
d="M914 -1h-382q-2 8 -6 25q-4 14 -24 26.5t-33 12.5q-2 0 -11.5 -1t-11.5 -1t-15 -4t-25 -17t-14 -26q1 -7 -3 -15h-387v801h388q1 -8 4 -22q0 -2 10 -21q5 -9 24 -19q16 -8 26 -8q1 0 9.5 1t10 1t4.5 1t6.5 1t20.5 11q27 17 25 52q0 1 2 3h382v-801zM881 742
q0 11 -9.5 21.5t-22.5 10.5q-12 0 -22 -10.5t-10 -21.5q0 -9 7.5 -19.5t18.5 -10.5q1 0 3 -1t3 -1h4q3 1 5.5 1t9.5 5q13 10 13 26zM755 742q0 11 -10 21.5t-22 10.5t-22 -10.5t-10 -21.5q0 -9 7.5 -19.5t18.5 -10.5q1 0 3 -1t3 -1h4q3 1 5.5 1t9.5 5q13 9 13 26zM629 742
q0 11 -10 21.5t-22 10.5t-22 -10.5t-10 -21.5q0 -9 7.5 -19.5t18.5 -10.5q1 0 3 -1t3 -1h4q3 1 5.5 1t9.5 5q13 9 13 26zM350 742q0 11 -9.5 21.5t-22.5 10.5q-12 0 -22 -10.5t-10 -21.5q0 -12 9.5 -22t22.5 -10h4q3 1 4 1q8 0 18 13q6 7 6 18zM224 742q0 11 -9.5 21.5
t-22.5 10.5q-12 0 -22 -10.5t-10 -21.5q0 -12 9.5 -22t22.5 -10h4q3 1 4 1q8 0 18 13q6 7 6 18zM881 60q0 11 -9.5 21.5t-22.5 10.5q-12 0 -22 -10.5t-10 -21.5q0 -12 10 -22t22 -10q13 0 22.5 10t9.5 22zM903 118v562h-890v-562h890zM98 742q0 11 -9.5 21.5t-22.5 10.5
q-12 0 -22 -10.5t-10 -21.5q0 -12 10 -22t22 -10h4q3 1 4 1q8 0 18 13q6 7 6 18zM755 60q0 12 -9.5 22t-22.5 10q-12 0 -22 -10.5t-10 -21.5q0 -12 9.5 -22t22.5 -10q11 0 21.5 10t10.5 22zM629 60q0 12 -9.5 22t-22.5 10q-12 0 -22 -10.5t-10 -21.5q0 -12 9.5 -22t22.5 -10
q11 0 21.5 10t10.5 22zM350 63q0 12 -9.5 22t-22.5 10q-12 0 -22 -10.5t-10 -21.5t9.5 -21.5t22.5 -10.5q11 0 21.5 10t10.5 22zM224 63q0 12 -9.5 22t-22.5 10q-12 0 -22 -10.5t-10 -21.5t9.5 -21.5t22.5 -10.5q11 0 21.5 10t10.5 22zM98 63q0 11 -9.5 21.5t-22.5 10.5
q-12 0 -22 -10.5t-10 -21.5t10 -21.5t22 -10.5q13 0 22.5 10.5t9.5 21.5zM613 294q0 -16 -5 -37q-11 -58 -64 -87q-29 -16 -39 -16q-1 0 -4.5 -1t-4.5 -1t-27 -3t-27 -3q-2 0 -13 1t-12 1q-25 0 -54 13q-76 33 -76 108q0 88 110 124q-102 55 -102 136q0 49 30 81.5t79 42.5
q26 6 57 6q103 0 134 -69q7 -17 7 -36q0 -70 -99 -103q110 -68 110 -157zM516 549q0 35 -14 59q-17 30 -50 30q-25 0 -43.5 -17t-18.5 -42q0 -33 30 -66q27 -30 65 -49q31 39 31 85zM511 253q0 69 -97 126q-38 -49 -38 -108q0 -36 13 -63q19 -38 58 -38q1 0 6.5 1t6.5 1
q13 0 26 10q25 21 25 71z" />
    <glyph glyph-name="nine" unicode="9" 
d="M914 -1h-382q-2 8 -6 25q-4 14 -24 26.5t-33 12.5q-2 0 -11.5 -1t-11.5 -1t-15 -4t-25 -17t-14 -26q1 -7 -3 -15h-387v801h388q1 -8 4 -22q0 -2 10 -21q5 -9 24 -19q16 -8 26 -8q1 0 9.5 1t10 1t4.5 1t6.5 1t20.5 11q27 17 25 52q0 1 2 3h382v-801zM881 742
q0 11 -9.5 21.5t-22.5 10.5q-12 0 -22 -10.5t-10 -21.5q0 -9 7.5 -19.5t18.5 -10.5q1 0 3 -1t3 -1h4q3 1 5.5 1t9.5 5q13 10 13 26zM755 742q0 11 -10 21.5t-22 10.5t-22 -10.5t-10 -21.5q0 -9 7.5 -19.5t18.5 -10.5q1 0 3 -1t3 -1h4q3 1 5.5 1t9.5 5q13 9 13 26zM629 742
q0 11 -10 21.5t-22 10.5t-22 -10.5t-10 -21.5q0 -9 7.5 -19.5t18.5 -10.5q1 0 3 -1t3 -1h4q3 1 5.5 1t9.5 5q13 9 13 26zM350 742q0 11 -9.5 21.5t-22.5 10.5q-12 0 -22 -10.5t-10 -21.5q0 -12 9.5 -22t22.5 -10h4q3 1 4 1q8 0 18 13q6 7 6 18zM224 742q0 11 -9.5 21.5
t-22.5 10.5q-12 0 -22 -10.5t-10 -21.5q0 -12 9.5 -22t22.5 -10h4q3 1 4 1q8 0 18 13q6 7 6 18zM881 60q0 11 -9.5 21.5t-22.5 10.5q-12 0 -22 -10.5t-10 -21.5q0 -12 10 -22t22 -10q13 0 22.5 10t9.5 22zM903 118v562h-890v-562h890zM98 742q0 11 -9.5 21.5t-22.5 10.5
q-12 0 -22 -10.5t-10 -21.5q0 -12 10 -22t22 -10h4q3 1 4 1q8 0 18 13q6 7 6 18zM755 60q0 12 -9.5 22t-22.5 10q-12 0 -22 -10.5t-10 -21.5q0 -12 9.5 -22t22.5 -10q11 0 21.5 10t10.5 22zM629 60q0 12 -9.5 22t-22.5 10q-12 0 -22 -10.5t-10 -21.5q0 -12 9.5 -22t22.5 -10
q11 0 21.5 10t10.5 22zM350 63q0 12 -9.5 22t-22.5 10q-12 0 -22 -10.5t-10 -21.5t9.5 -21.5t22.5 -10.5q11 0 21.5 10t10.5 22zM224 63q0 12 -9.5 22t-22.5 10q-12 0 -22 -10.5t-10 -21.5t9.5 -21.5t22.5 -10.5q11 0 21.5 10t10.5 22zM98 63q0 11 -9.5 21.5t-22.5 10.5
q-12 0 -22 -10.5t-10 -21.5t10 -21.5t22 -10.5q13 0 22.5 10.5t9.5 21.5zM614 444q0 -93 -60 -168q-63 -79 -170 -111q-59 -18 -94 -18v18q7 2 12 2q-6 0 37 12q58 17 93 69q6 8 53 103v4q-17 -11 -29 -11h-8q-1 0 -13 -1t-14 -1q-1 0 -12.5 1t-12.5 1q-9 0 -37 10
q-12 5 -29 20.5t-23 28.5q-11 25 -15 42q-2 10 -6 31q2 1 0 25q3 16 11 46.5t31.5 60t52.5 39.5q34 12 81 12q2 0 4.5 -1t3.5 -1q11 0 38 -10l18 -9q48 -25 71 -90q17 -48 17 -104zM499 461l-1 57q-1 20 -9 72q-5 24 -13 34q-12 15 -33 15q-17 0 -25 -6q-20 -16 -20 -97
q0 -116 26 -147q13 -15 36 -15q1 0 6.5 1.5t7.5 1.5q14 0 17 6q1 3 4 22q4 34 4 56z" />
    <glyph glyph-name="colon" unicode=":" 
d="M914 -1h-382q-2 8 -6 25q-4 14 -24 26.5t-33 12.5q-2 0 -11.5 -1t-11.5 -1t-15 -4t-25 -17t-14 -26q1 -7 -3 -15h-387v801h388q1 -8 4 -22q0 -2 10 -21q5 -9 24 -19q16 -8 26 -8q1 0 9.5 1t10 1t4.5 1t6.5 1t20.5 11q27 17 25 52q0 1 2 3h382v-801zM881 742
q0 11 -9.5 21.5t-22.5 10.5q-12 0 -22 -10.5t-10 -21.5q0 -9 7.5 -19.5t18.5 -10.5q1 0 3 -1t3 -1h4q3 1 5.5 1t9.5 5q13 10 13 26zM755 742q0 11 -10 21.5t-22 10.5t-22 -10.5t-10 -21.5q0 -9 7.5 -19.5t18.5 -10.5q1 0 3 -1t3 -1h4q3 1 5.5 1t9.5 5q13 9 13 26zM629 742
q0 11 -10 21.5t-22 10.5t-22 -10.5t-10 -21.5q0 -9 7.5 -19.5t18.5 -10.5q1 0 3 -1t3 -1h4q3 1 5.5 1t9.5 5q13 9 13 26zM350 742q0 11 -9.5 21.5t-22.5 10.5q-12 0 -22 -10.5t-10 -21.5q0 -12 9.5 -22t22.5 -10h4q3 1 4 1q8 0 18 13q6 7 6 18zM224 742q0 11 -9.5 21.5
t-22.5 10.5q-12 0 -22 -10.5t-10 -21.5q0 -12 9.5 -22t22.5 -10h4q3 1 4 1q8 0 18 13q6 7 6 18zM881 60q0 11 -9.5 21.5t-22.5 10.5q-12 0 -22 -10.5t-10 -21.5q0 -12 10 -22t22 -10q13 0 22.5 10t9.5 22zM903 118v562h-890v-562h890zM98 742q0 11 -9.5 21.5t-22.5 10.5
q-12 0 -22 -10.5t-10 -21.5q0 -12 10 -22t22 -10h4q3 1 4 1q8 0 18 13q6 7 6 18zM755 60q0 12 -9.5 22t-22.5 10q-12 0 -22 -10.5t-10 -21.5q0 -12 9.5 -22t22.5 -10q11 0 21.5 10t10.5 22zM629 60q0 12 -9.5 22t-22.5 10q-12 0 -22 -10.5t-10 -21.5q0 -12 9.5 -22t22.5 -10
q11 0 21.5 10t10.5 22zM350 63q0 12 -9.5 22t-22.5 10q-12 0 -22 -10.5t-10 -21.5t9.5 -21.5t22.5 -10.5q11 0 21.5 10t10.5 22zM224 63q0 12 -9.5 22t-22.5 10q-12 0 -22 -10.5t-10 -21.5t9.5 -21.5t22.5 -10.5q11 0 21.5 10t10.5 22zM98 63q0 11 -9.5 21.5t-22.5 10.5
q-12 0 -22 -10.5t-10 -21.5t10 -21.5t22 -10.5q13 0 22.5 10.5t9.5 21.5z" />
    <glyph glyph-name="semicolon" unicode=";" 
d="M914 -1h-382q-2 8 -6 25q-4 14 -24 26.5t-33 12.5q-2 0 -11.5 -1t-11.5 -1t-15 -4t-25 -17t-14 -26q1 -7 -3 -15h-387v801h388q1 -8 4 -22q0 -2 10 -21q5 -9 24 -19q16 -8 26 -8q1 0 9.5 1t10 1t4.5 1t6.5 1t20.5 11q27 17 25 52q0 1 2 3h382v-801zM881 742
q0 11 -9.5 21.5t-22.5 10.5q-12 0 -22 -10.5t-10 -21.5q0 -9 7.5 -19.5t18.5 -10.5q1 0 3 -1t3 -1h4q3 1 5.5 1t9.5 5q13 10 13 26zM755 742q0 11 -10 21.5t-22 10.5t-22 -10.5t-10 -21.5q0 -9 7.5 -19.5t18.5 -10.5q1 0 3 -1t3 -1h4q3 1 5.5 1t9.5 5q13 9 13 26zM629 742
q0 11 -10 21.5t-22 10.5t-22 -10.5t-10 -21.5q0 -9 7.5 -19.5t18.5 -10.5q1 0 3 -1t3 -1h4q3 1 5.5 1t9.5 5q13 9 13 26zM350 742q0 11 -9.5 21.5t-22.5 10.5q-12 0 -22 -10.5t-10 -21.5q0 -12 9.5 -22t22.5 -10h4q3 1 4 1q8 0 18 13q6 7 6 18zM224 742q0 11 -9.5 21.5
t-22.5 10.5q-12 0 -22 -10.5t-10 -21.5q0 -12 9.5 -22t22.5 -10h4q3 1 4 1q8 0 18 13q6 7 6 18zM881 60q0 11 -9.5 21.5t-22.5 10.5q-12 0 -22 -10.5t-10 -21.5q0 -12 10 -22t22 -10q13 0 22.5 10t9.5 22zM903 118v562h-890v-562h890zM98 742q0 11 -9.5 21.5t-22.5 10.5
q-12 0 -22 -10.5t-10 -21.5q0 -12 10 -22t22 -10h4q3 1 4 1q8 0 18 13q6 7 6 18zM755 60q0 12 -9.5 22t-22.5 10q-12 0 -22 -10.5t-10 -21.5q0 -12 9.5 -22t22.5 -10q11 0 21.5 10t10.5 22zM629 60q0 12 -9.5 22t-22.5 10q-12 0 -22 -10.5t-10 -21.5q0 -12 9.5 -22t22.5 -10
q11 0 21.5 10t10.5 22zM350 63q0 12 -9.5 22t-22.5 10q-12 0 -22 -10.5t-10 -21.5t9.5 -21.5t22.5 -10.5q11 0 21.5 10t10.5 22zM224 63q0 12 -9.5 22t-22.5 10q-12 0 -22 -10.5t-10 -21.5t9.5 -21.5t22.5 -10.5q11 0 21.5 10t10.5 22zM98 63q0 11 -9.5 21.5t-22.5 10.5
q-12 0 -22 -10.5t-10 -21.5t10 -21.5t22 -10.5q13 0 22.5 10.5t9.5 21.5zM600 635v-141h145l-275 -331l-307 331h159v141h278z" />
    <glyph glyph-name="less" unicode="&#x3c;" 
d="M914 -1h-382q-2 8 -6 25q-4 14 -24 26.5t-33 12.5q-2 0 -11.5 -1t-11.5 -1t-15 -4t-25 -17t-14 -26q1 -7 -3 -15h-387v801h388q1 -8 4 -22q0 -2 10 -21q5 -9 24 -19q16 -8 26 -8q1 0 9.5 1t10 1t4.5 1t6.5 1t20.5 11q27 17 25 52q0 1 2 3h382v-801zM881 742
q0 11 -9.5 21.5t-22.5 10.5q-12 0 -22 -10.5t-10 -21.5q0 -9 7.5 -19.5t18.5 -10.5q1 0 3 -1t3 -1h4q3 1 5.5 1t9.5 5q13 10 13 26zM755 742q0 11 -10 21.5t-22 10.5t-22 -10.5t-10 -21.5q0 -9 7.5 -19.5t18.5 -10.5q1 0 3 -1t3 -1h4q3 1 5.5 1t9.5 5q13 9 13 26zM629 742
q0 11 -10 21.5t-22 10.5t-22 -10.5t-10 -21.5q0 -9 7.5 -19.5t18.5 -10.5q1 0 3 -1t3 -1h4q3 1 5.5 1t9.5 5q13 9 13 26zM350 742q0 11 -9.5 21.5t-22.5 10.5q-12 0 -22 -10.5t-10 -21.5q0 -12 9.5 -22t22.5 -10h4q3 1 4 1q8 0 18 13q6 7 6 18zM224 742q0 11 -9.5 21.5
t-22.5 10.5q-12 0 -22 -10.5t-10 -21.5q0 -12 9.5 -22t22.5 -10h4q3 1 4 1q8 0 18 13q6 7 6 18zM881 60q0 11 -9.5 21.5t-22.5 10.5q-12 0 -22 -10.5t-10 -21.5q0 -12 10 -22t22 -10q13 0 22.5 10t9.5 22zM903 118v562h-890v-562h890zM98 742q0 11 -9.5 21.5t-22.5 10.5
q-12 0 -22 -10.5t-10 -21.5q0 -12 10 -22t22 -10h4q3 1 4 1q8 0 18 13q6 7 6 18zM755 60q0 12 -9.5 22t-22.5 10q-12 0 -22 -10.5t-10 -21.5q0 -12 9.5 -22t22.5 -10q11 0 21.5 10t10.5 22zM629 60q0 12 -9.5 22t-22.5 10q-12 0 -22 -10.5t-10 -21.5q0 -12 9.5 -22t22.5 -10
q11 0 21.5 10t10.5 22zM350 63q0 12 -9.5 22t-22.5 10q-12 0 -22 -10.5t-10 -21.5t9.5 -21.5t22.5 -10.5q11 0 21.5 10t10.5 22zM224 63q0 12 -9.5 22t-22.5 10q-12 0 -22 -10.5t-10 -21.5t9.5 -21.5t22.5 -10.5q11 0 21.5 10t10.5 22zM98 63q0 11 -9.5 21.5t-22.5 10.5
q-12 0 -22 -10.5t-10 -21.5t10 -21.5t22 -10.5q13 0 22.5 10.5t9.5 21.5zM771 274h-188v-126l-440 239l440 266v-137h188v-242z" />
    <glyph glyph-name="equal" unicode="=" 
d="M914 -1h-382q-2 8 -6 25q-4 14 -24 26.5t-33 12.5q-2 0 -11.5 -1t-11.5 -1t-15 -4t-25 -17t-14 -26q1 -7 -3 -15h-387v801h388q1 -8 4 -22q0 -2 10 -21q5 -9 24 -19q16 -8 26 -8q1 0 9.5 1t10 1t4.5 1t6.5 1t20.5 11q27 17 25 52q0 1 2 3h382v-801zM881 742
q0 11 -9.5 21.5t-22.5 10.5q-12 0 -22 -10.5t-10 -21.5q0 -9 7.5 -19.5t18.5 -10.5q1 0 3 -1t3 -1h4q3 1 5.5 1t9.5 5q13 10 13 26zM755 742q0 11 -10 21.5t-22 10.5t-22 -10.5t-10 -21.5q0 -9 7.5 -19.5t18.5 -10.5q1 0 3 -1t3 -1h4q3 1 5.5 1t9.5 5q13 9 13 26zM629 742
q0 11 -10 21.5t-22 10.5t-22 -10.5t-10 -21.5q0 -9 7.5 -19.5t18.5 -10.5q1 0 3 -1t3 -1h4q3 1 5.5 1t9.5 5q13 9 13 26zM350 742q0 11 -9.5 21.5t-22.5 10.5q-12 0 -22 -10.5t-10 -21.5q0 -12 9.5 -22t22.5 -10h4q3 1 4 1q8 0 18 13q6 7 6 18zM224 742q0 11 -9.5 21.5
t-22.5 10.5q-12 0 -22 -10.5t-10 -21.5q0 -12 9.5 -22t22.5 -10h4q3 1 4 1q8 0 18 13q6 7 6 18zM881 60q0 11 -9.5 21.5t-22.5 10.5q-12 0 -22 -10.5t-10 -21.5q0 -12 10 -22t22 -10q13 0 22.5 10t9.5 22zM903 118v562h-890v-562h890zM98 742q0 11 -9.5 21.5t-22.5 10.5
q-12 0 -22 -10.5t-10 -21.5q0 -12 10 -22t22 -10h4q3 1 4 1q8 0 18 13q6 7 6 18zM755 60q0 12 -9.5 22t-22.5 10q-12 0 -22 -10.5t-10 -21.5q0 -12 9.5 -22t22.5 -10q11 0 21.5 10t10.5 22zM629 60q0 12 -9.5 22t-22.5 10q-12 0 -22 -10.5t-10 -21.5q0 -12 9.5 -22t22.5 -10
q11 0 21.5 10t10.5 22zM350 63q0 12 -9.5 22t-22.5 10q-12 0 -22 -10.5t-10 -21.5t9.5 -21.5t22.5 -10.5q11 0 21.5 10t10.5 22zM224 63q0 12 -9.5 22t-22.5 10q-12 0 -22 -10.5t-10 -21.5t9.5 -21.5t22.5 -10.5q11 0 21.5 10t10.5 22zM98 63q0 11 -9.5 21.5t-22.5 10.5
q-12 0 -22 -10.5t-10 -21.5t10 -21.5t22 -10.5q13 0 22.5 10.5t9.5 21.5zM600 168v141h145l-275 331l-307 -331h159v-141h278z" />
    <glyph glyph-name="greater" unicode="&#x3e;" 
d="M914 -1h-382q-2 8 -6 25q-4 14 -24 26.5t-33 12.5q-2 0 -11.5 -1t-11.5 -1t-15 -4t-25 -17t-14 -26q1 -7 -3 -15h-387v801h388q1 -8 4 -22q0 -2 10 -21q5 -9 24 -19q16 -8 26 -8q1 0 9.5 1t10 1t4.5 1t6.5 1t20.5 11q27 17 25 52q0 1 2 3h382v-801zM881 742
q0 11 -9.5 21.5t-22.5 10.5q-12 0 -22 -10.5t-10 -21.5q0 -9 7.5 -19.5t18.5 -10.5q1 0 3 -1t3 -1h4q3 1 5.5 1t9.5 5q13 10 13 26zM755 742q0 11 -10 21.5t-22 10.5t-22 -10.5t-10 -21.5q0 -9 7.5 -19.5t18.5 -10.5q1 0 3 -1t3 -1h4q3 1 5.5 1t9.5 5q13 9 13 26zM629 742
q0 11 -10 21.5t-22 10.5t-22 -10.5t-10 -21.5q0 -9 7.5 -19.5t18.5 -10.5q1 0 3 -1t3 -1h4q3 1 5.5 1t9.5 5q13 9 13 26zM350 742q0 11 -9.5 21.5t-22.5 10.5q-12 0 -22 -10.5t-10 -21.5q0 -12 9.5 -22t22.5 -10h4q3 1 4 1q8 0 18 13q6 7 6 18zM224 742q0 11 -9.5 21.5
t-22.5 10.5q-12 0 -22 -10.5t-10 -21.5q0 -12 9.5 -22t22.5 -10h4q3 1 4 1q8 0 18 13q6 7 6 18zM881 60q0 11 -9.5 21.5t-22.5 10.5q-12 0 -22 -10.5t-10 -21.5q0 -12 10 -22t22 -10q13 0 22.5 10t9.5 22zM903 118v562h-890v-562h890zM98 742q0 11 -9.5 21.5t-22.5 10.5
q-12 0 -22 -10.5t-10 -21.5q0 -12 10 -22t22 -10h4q3 1 4 1q8 0 18 13q6 7 6 18zM755 60q0 12 -9.5 22t-22.5 10q-12 0 -22 -10.5t-10 -21.5q0 -12 9.5 -22t22.5 -10q11 0 21.5 10t10.5 22zM629 60q0 12 -9.5 22t-22.5 10q-12 0 -22 -10.5t-10 -21.5q0 -12 9.5 -22t22.5 -10
q11 0 21.5 10t10.5 22zM350 63q0 12 -9.5 22t-22.5 10q-12 0 -22 -10.5t-10 -21.5t9.5 -21.5t22.5 -10.5q11 0 21.5 10t10.5 22zM224 63q0 12 -9.5 22t-22.5 10q-12 0 -22 -10.5t-10 -21.5t9.5 -21.5t22.5 -10.5q11 0 21.5 10t10.5 22zM98 63q0 11 -9.5 21.5t-22.5 10.5
q-12 0 -22 -10.5t-10 -21.5t10 -21.5t22 -10.5q13 0 22.5 10.5t9.5 21.5zM826 414l-439 -266v138h-188v241h187v126z" />
    <glyph glyph-name="question" unicode="?" 
d="M914 -1h-382q-2 8 -6 25q-4 14 -24 26.5t-33 12.5q-2 0 -11.5 -1t-11.5 -1t-15 -4t-25 -17t-14 -26q1 -7 -3 -15h-387v801h388q1 -8 4 -22q0 -2 10 -21q5 -9 24 -19q16 -8 26 -8q1 0 9.5 1t10 1t4.5 1t6.5 1t20.5 11q27 17 25 52q0 1 2 3h382v-801zM881 742
q0 11 -9.5 21.5t-22.5 10.5q-12 0 -22 -10.5t-10 -21.5q0 -9 7.5 -19.5t18.5 -10.5q1 0 3 -1t3 -1h4q3 1 5.5 1t9.5 5q13 10 13 26zM755 742q0 11 -10 21.5t-22 10.5t-22 -10.5t-10 -21.5q0 -9 7.5 -19.5t18.5 -10.5q1 0 3 -1t3 -1h4q3 1 5.5 1t9.5 5q13 9 13 26zM629 742
q0 11 -10 21.5t-22 10.5t-22 -10.5t-10 -21.5q0 -9 7.5 -19.5t18.5 -10.5q1 0 3 -1t3 -1h4q3 1 5.5 1t9.5 5q13 9 13 26zM350 742q0 11 -9.5 21.5t-22.5 10.5q-12 0 -22 -10.5t-10 -21.5q0 -12 9.5 -22t22.5 -10h4q3 1 4 1q8 0 18 13q6 7 6 18zM224 742q0 11 -9.5 21.5
t-22.5 10.5q-12 0 -22 -10.5t-10 -21.5q0 -12 9.5 -22t22.5 -10h4q3 1 4 1q8 0 18 13q6 7 6 18zM881 60q0 11 -9.5 21.5t-22.5 10.5q-12 0 -22 -10.5t-10 -21.5q0 -12 10 -22t22 -10q13 0 22.5 10t9.5 22zM903 118v562h-890v-562h890zM98 742q0 11 -9.5 21.5t-22.5 10.5
q-12 0 -22 -10.5t-10 -21.5q0 -12 10 -22t22 -10h4q3 1 4 1q8 0 18 13q6 7 6 18zM755 60q0 12 -9.5 22t-22.5 10q-12 0 -22 -10.5t-10 -21.5q0 -12 9.5 -22t22.5 -10q11 0 21.5 10t10.5 22zM629 60q0 12 -9.5 22t-22.5 10q-12 0 -22 -10.5t-10 -21.5q0 -12 9.5 -22t22.5 -10
q11 0 21.5 10t10.5 22zM350 63q0 12 -9.5 22t-22.5 10q-12 0 -22 -10.5t-10 -21.5t9.5 -21.5t22.5 -10.5q11 0 21.5 10t10.5 22zM224 63q0 12 -9.5 22t-22.5 10q-12 0 -22 -10.5t-10 -21.5t9.5 -21.5t22.5 -10.5q11 0 21.5 10t10.5 22zM98 63q0 11 -9.5 21.5t-22.5 10.5
q-12 0 -22 -10.5t-10 -21.5t10 -21.5t22 -10.5q13 0 22.5 10.5t9.5 21.5zM593 536q0 -18 -7 -39q-3 -8 -15 -26q-16 -24 -63 -51q-41 -25 -50 -48q-6 -12 -5 -47h-24q0 -1 0 29q0 34 27.5 84.5t27.5 98.5q0 96 -61 96q-31 0 -42 -16q-4 -6 -4 -13q0 -5 3 -9q11 -13 24 -37
v-13q0 -46 -45 -46q-24 0 -37 16.5t-13 39.5q0 28 19 54.5t50.5 38.5t83.5 12q1 0 50 -10q23 -5 47 -29.5t29 -47.5q5 -27 5 -37zM503 207q0 -26 -18 -43.5t-43 -17.5q-26 0 -44 18.5t-18 43.5q0 17 11.5 35.5t30.5 23.5q10 3 31 3q9 0 26 -12q6 -5 10 -10q14 -18 14 -41z
" />
    <glyph glyph-name="A" unicode="A" horiz-adv-x="913" 
d="M915 -1h-382q-2 9 -6.5 24t-24 27.5t-33.5 12.5q-1 0 -10.5 -1t-11.5 -1t-15 -4t-25 -16.5t-14 -26.5q1 -6 -3 -15h-387v801h387q2 -8 4 -22q1 -2 11 -21q5 -9 22.5 -18t27.5 -9q1 0 9.5 1t10 1t4.5 1.5t6.5 1.5t20.5 10q27 17 25 52q0 1 2 3h382v-801zM882 742
q0 11 -10 21.5t-22 10.5t-22 -10.5t-10 -21.5q0 -9 7.5 -19.5t18.5 -10.5q1 0 3 -1t3 -1h4q3 1 5.5 1t9.5 5q13 10 13 26zM756 742q0 11 -10 21.5t-22 10.5q-13 0 -22.5 -10.5t-9.5 -21.5q0 -9 7.5 -19.5t18.5 -10.5q1 0 3 -1t3 -1h4q3 1 5 1t10 5q13 9 13 26zM630 742
q0 11 -10 21.5t-22 10.5q-13 0 -22.5 -10.5t-9.5 -21.5q0 -9 7 -18q8 -12 19 -12q1 0 3 -1t3 -1h4q3 1 5 1t10 5q13 9 13 26zM351 742q0 12 -9.5 22t-22.5 10t-22.5 -10.5t-9.5 -21.5q0 -12 9.5 -22t22.5 -10h4q3 1 4 1q8 0 18 13q6 7 6 18zM225 742q0 12 -9.5 22t-22.5 10
t-22.5 -10.5t-9.5 -21.5q0 -12 9.5 -22t22.5 -10h4q3 1 4 1q8 0 18 13q6 7 6 18zM882 60q0 11 -9.5 21.5t-22.5 10.5q-12 0 -22 -10.5t-10 -21.5q0 -12 9.5 -22t22.5 -10t22.5 10t9.5 22zM904 118v562h-890v-562h890zM99 742q0 11 -9.5 21.5t-22.5 10.5q-12 0 -22 -10.5
t-10 -21.5q0 -12 9.5 -22t22.5 -10h4q3 1 4 1q8 0 18 13q6 7 6 18zM756 60q0 12 -9.5 22t-22.5 10t-22.5 -10.5t-9.5 -21.5q0 -12 9.5 -22t22.5 -10q11 0 21.5 10t10.5 22zM630 60q0 12 -9.5 22t-22.5 10t-22.5 -10.5t-9.5 -21.5q0 -12 9.5 -22t22.5 -10q11 0 21.5 10
t10.5 22zM351 63q0 12 -9.5 22.5t-22.5 10.5t-22.5 -11t-9.5 -22t9.5 -21.5t22.5 -10.5q11 0 21.5 10t10.5 22zM225 63q0 12 -9.5 22.5t-22.5 10.5t-22.5 -11t-9.5 -22t9.5 -21.5t22.5 -10.5q11 0 21.5 10t10.5 22zM99 63q0 11 -9.5 22t-22.5 11q-12 0 -22 -11t-10 -22
t9.5 -21.5t22.5 -10.5t22.5 10.5t9.5 21.5zM712 150h-237v18q9 -1 42 4q11 2 15 12q2 3 2 13q0 17 -16 55l-18 42h-164q-32 -82 -32 -95q0 -27 60 -32v-17h-149v17q1 0 3.5 1.5t4.5 1.5q30 0 59 71q56 138 167 412h21q6 -14 41 -94q10 -25 31 -75q11 -24 32 -74l40 -95
q12 -28 36 -85q28 -67 62 -63v-17zM488 322l-73 175l-68 -175h141z" />
    <glyph glyph-name="B" unicode="B" horiz-adv-x="911" 
d="M913 -1h-382q-2 9 -6 24.5t-23.5 27.5t-33.5 12q-1 0 -11 -1t-12 -1t-14.5 -3.5t-25 -16.5t-13.5 -27q0 -6 -3 -15h-388v801h388q1 -8 4 -22q0 -2 10 -20q6 -10 23.5 -19t26.5 -9q1 0 10 1.5t10 1.5t4.5 1t4.5 1q5 0 22 11q27 16 25 52q1 0 2 2h382v-801zM881 742
q0 12 -10 22t-22 10q-13 0 -22.5 -10.5t-9.5 -21.5q0 -9 7 -18q8 -12 18 -12q1 0 3 -1t4 -1q1 0 4 1h4q3 0 10 5q14 10 14 26zM755 742q0 12 -10 22t-22 10q-13 0 -22.5 -10.5t-9.5 -21.5q0 -9 7 -18q8 -12 18 -12q1 0 3 -1t4 -1q1 0 4 1h4q3 0 10 5q14 10 14 26zM629 742
q0 12 -10 22t-22 10q-13 0 -22.5 -10.5t-9.5 -21.5q0 -8 7.5 -19t17.5 -11q1 0 3 -1t4 -1q1 0 4 1h4q3 0 10 5q14 10 14 26zM350 742q0 12 -9.5 22t-22.5 10t-22.5 -10.5t-9.5 -21.5t9.5 -21.5t22.5 -10.5q1 0 4 1h4q7 0 18 13q6 8 6 18zM224 742q0 12 -9.5 22t-22.5 10
t-22.5 -10.5t-9.5 -21.5t9.5 -21.5t22.5 -10.5q1 0 4 1h4q7 0 18 13q6 8 6 18zM881 61q0 10 -9.5 21t-22.5 11t-22.5 -11t-9.5 -21q0 -12 9.5 -22.5t22.5 -10.5q12 0 22 10.5t10 22.5zM902 119v562h-890v-562h890zM98 742q0 11 -9.5 21.5t-22.5 10.5t-22.5 -10.5t-9.5 -21.5
t9.5 -21.5t22.5 -10.5q1 0 4 1h4q7 0 18 13q6 8 6 18zM755 61q0 11 -9.5 21.5t-22.5 10.5t-22.5 -11t-9.5 -21q0 -12 9.5 -22.5t22.5 -10.5q10 0 21 10t11 23zM629 61q0 11 -9.5 21.5t-22.5 10.5t-22.5 -11t-9.5 -21q0 -12 9.5 -22.5t22.5 -10.5q11 0 21.5 10t10.5 23z
M350 64q0 12 -9.5 22t-22.5 10t-22.5 -10.5t-9.5 -21.5q0 -12 9.5 -22t22.5 -10q10 0 21 10t11 22zM224 64q0 12 -9.5 22t-22.5 10t-22.5 -10.5t-9.5 -21.5q0 -12 9.5 -22t22.5 -10q11 0 21.5 10t10.5 22zM98 64q0 11 -9.5 21.5t-22.5 10.5t-22.5 -10.5t-9.5 -21.5
q0 -12 9.5 -22t22.5 -10q12 0 22 10t10 22zM666 284q0 -49 -38 -84t-95 -45q-29 -5 -26 -5q-2 0 -14.5 -1t-14.5 -1h-253v17q15 3 42 9q22 6 22 35v371q0 4 -6 19.5t-26 20.5q-2 0 -32 4v16h257q48 0 92 -20q50 -23 60 -56q6 -24 6 -23v-32q0 -23 -21 -46q-18 -19 -45 -32
q-23 -8 -46 -17q15 -4 16 -4q18 0 60 -23q10 -6 22 -16q40 -33 40 -87zM520 522q0 98 -75 98q-25 0 -34 -12q-5 -7 -5 -14v-172q19 -1 30 -1q2 0 9.5 1t9 1t23.5 8q42 14 42 91zM540 280q0 106 -80 114q-35 4 -27 4h-27v-192q0 -8 6 -18.5t12 -12.5q12 -4 27 -4q89 0 89 109
z" />
    <glyph glyph-name="C" unicode="C" horiz-adv-x="911" 
d="M913 0h-382q-2 8 -6 25q-4 14 -23.5 26.5t-33.5 12.5q-1 0 -10.5 -1t-12 -1t-15 -4t-25 -17t-13.5 -26q0 -7 -3 -15h-388v801h388q1 -8 4 -22q0 -2 10 -21q6 -9 23.5 -18t26.5 -9q2 0 10.5 1t9.5 1t4.5 1t4.5 1q5 0 23 11q26 17 24 52q1 1 2 3h382v-801zM881 743
q0 11 -10 21.5t-22 10.5q-13 0 -22.5 -10.5t-9.5 -21.5q0 -9 7.5 -19.5t17.5 -10.5q2 0 4 -1t3 -1h4q3 1 5.5 1t8.5 5q14 10 14 26zM755 743q0 11 -10 21.5t-22 10.5q-13 0 -22.5 -10.5t-9.5 -21.5q0 -9 7.5 -19.5t17.5 -10.5q2 0 4 -1t3 -1h4q3 1 5 1t9 5q14 9 14 26z
M629 743q0 11 -10 21.5t-22 10.5q-13 0 -22.5 -10.5t-9.5 -21.5q0 -9 7.5 -19.5t17.5 -10.5q2 0 4 -1t3 -1h4q3 1 5 1t9 5q14 9 14 26zM350 743q0 12 -9.5 22t-22.5 10t-22.5 -10.5t-9.5 -21.5q0 -12 9.5 -22t22.5 -10h4q3 1 4 1q7 0 18 13q6 7 6 18zM224 743q0 12 -9.5 22
t-22.5 10t-22.5 -10.5t-9.5 -21.5q0 -12 9.5 -22t22.5 -10h4q3 1 4 1q7 0 18 13q6 7 6 18zM881 61q0 11 -9.5 21.5t-22.5 10.5t-22.5 -10.5t-9.5 -21.5q0 -12 9.5 -22t22.5 -10q12 0 22 10t10 22zM902 119v562h-889v-562h889zM98 743q0 11 -9.5 21.5t-22.5 10.5t-22.5 -10.5
t-9.5 -21.5q0 -12 9.5 -22t22.5 -10h4q3 1 4 1q7 0 18 13q6 7 6 18zM755 61q0 12 -9.5 22t-22.5 10t-22.5 -10.5t-9.5 -21.5q0 -12 9.5 -22t22.5 -10q11 0 21.5 10t10.5 22zM629 61q0 12 -9.5 22t-22.5 10t-22.5 -10.5t-9.5 -21.5q0 -12 9.5 -22t22.5 -10q11 0 21.5 10
t10.5 22zM350 64q0 12 -9.5 22t-22.5 10t-22.5 -10.5t-9.5 -21.5t9.5 -21.5t22.5 -10.5q11 0 21.5 10t10.5 22zM224 64q0 12 -9.5 22t-22.5 10t-22.5 -10.5t-9.5 -21.5t9.5 -21.5t22.5 -10.5q11 0 21.5 10t10.5 22zM98 64q0 11 -9.5 21.5t-22.5 10.5t-22.5 -10.5t-9.5 -21.5
t9.5 -21.5t22.5 -10.5q12 0 22 10.5t10 21.5zM692 249q-61 -67 -112 -89q-23 -10 -29 -10q-2 0 -2 -1t-2 -1h-5q-1 0 -5.5 -1.5t-7.5 -1.5q-32 -4 -42 -4q-64 0 -120 26q-71 31 -108 96q-31 56 -34 122q1 34 0 35q17 153 129 209q9 5 26 12q14 7 44 14q27 6 38 6
q58 0 104 -15l30 -12q23 -9 34 -9q8 0 17.5 12t10.5 22h20v-171h-17q-27 64 -70 104q-48 46 -101 46q-136 0 -136 -236l4 -66q0 -1 5 -27q2 -15 12 -45q7 -23 30 -46.5t46 -30.5q18 -5 12 -5q1 0 4.5 -1t4.5 -1t6.5 -1.5t6.5 -1.5t23.5 1.5t24.5 1.5q15 0 58 21q38 19 78 65
q12 -7 23 -17z" />
    <glyph glyph-name="D" unicode="D" 
d="M915 0h-382q-2 9 -6.5 24.5t-24 27.5t-33.5 12q-1 0 -10.5 -1t-11.5 -1t-15 -3.5t-25 -16.5t-14 -27q1 -6 -3 -15h-387v801h387q2 -8 4 -22q1 -2 11 -20q5 -10 22.5 -19t27.5 -9q1 0 9.5 1.5t10 1.5t4.5 1t4 1q6 0 23 11q27 16 24 52q1 0 3 2h382v-801zM882 743
q0 12 -10 22t-22 10q-13 0 -22.5 -10.5t-9.5 -21.5q0 -9 7 -18q8 -12 18 -12q2 0 4 -1t3 -1t4 1h4q4 0 11 5q13 10 13 26zM756 743q0 12 -10 22t-22 10q-13 0 -22.5 -10.5t-9.5 -21.5q0 -9 7 -18q8 -12 18 -12q2 0 4 -1t3 -1t4 1h4q3 0 11 5q13 10 13 26zM630 743
q0 12 -10 22t-22 10q-13 0 -22.5 -10.5t-9.5 -21.5q0 -8 7.5 -19t17.5 -11q2 0 4 -1t3 -1t4 1h4q3 0 11 5q13 10 13 26zM351 743q0 12 -9.5 22t-22.5 10t-22.5 -10.5t-9.5 -21.5t9.5 -21.5t22.5 -10.5q1 0 4 1h4q8 0 18 13q6 8 6 18zM225 743q0 12 -9.5 22t-22.5 10
t-22.5 -10.5t-9.5 -21.5t9.5 -21.5t22.5 -10.5q1 0 4 1h4q8 0 18 13q6 8 6 18zM882 62q0 10 -9.5 21t-22.5 11t-22.5 -11t-9.5 -21q0 -12 9.5 -22.5t22.5 -10.5q12 0 22 10.5t10 22.5zM903 120v562h-889v-562h889zM99 743q0 11 -9.5 21.5t-22.5 10.5t-22.5 -10.5t-9.5 -21.5
t9.5 -21.5t22.5 -10.5q1 0 4 1h4q8 0 18 13q6 8 6 18zM756 62q0 11 -9.5 21.5t-22.5 10.5t-22.5 -11t-9.5 -21q0 -12 9.5 -22.5t22.5 -10.5q11 0 21.5 10t10.5 23zM630 62q0 11 -9.5 21.5t-22.5 10.5t-22.5 -11t-9.5 -21q0 -12 9.5 -22.5t22.5 -10.5q11 0 21.5 10t10.5 23z
M351 65q0 12 -9.5 22t-22.5 10t-22.5 -10.5t-9.5 -21.5q0 -12 9.5 -22t22.5 -10q11 0 21.5 10t10.5 22zM225 65q0 12 -9.5 22t-22.5 10t-22.5 -10.5t-9.5 -21.5q0 -12 9.5 -22t22.5 -10q11 0 21.5 10t10.5 22zM99 65q0 11 -9.5 21.5t-22.5 10.5t-22.5 -10.5t-9.5 -21.5
q0 -12 9.5 -22t22.5 -10q12 0 22 10t10 22zM699 408q0 -18 -6.5 -62t-38 -89t-69.5 -65q-27 -14 -45 -20q-48 -18 -90 -18h-246v19h20l12 5q29 9 29 32v382q0 9 -7 18q-10 13 -25.5 16t-28.5 4v18h248q6 0 18.5 -2t18.5 -2q25 0 67 -16q74 -29 111 -94q32 -56 32 -126z
M572 400q0 79 -25 137q-36 86 -118 86q-46 0 -46 -28l1 -386q3 -29 44 -29q2 0 12.5 1t11.5 1h8q-5 0 19 7q64 17 83 114q10 47 10 97z" />
    <glyph glyph-name="E" unicode="E" horiz-adv-x="913" 
d="M916 -1h-382q-2 9 -6.5 24.5t-24 27.5t-33.5 12q-1 0 -10.5 -1t-11.5 -1t-15 -3.5t-25.5 -16.5t-13.5 -27q1 -6 -3 -15h-387v801h387q2 -8 4 -22q1 -2 11 -20q5 -10 22.5 -19t27.5 -9q1 0 9.5 1.5t10 1.5t4.5 1t4 1q6 0 23 11q27 16 24 52q1 0 3 2h382v-801zM883 742
q0 12 -10 22t-22 10q-13 0 -22.5 -10.5t-9.5 -21.5q0 -9 7 -18q8 -12 18 -12q2 0 4 -1t3 -1t4 1h4q4 0 10 5q14 10 14 26zM757 742q0 12 -10 22t-22 10q-13 0 -22.5 -10.5t-9.5 -21.5q0 -9 7 -18q8 -12 18 -12q2 0 4 -1t3 -1t4 1h4q3 0 10 5q14 10 14 26zM631 742
q0 12 -10 22t-22 10q-13 0 -22.5 -10.5t-9.5 -21.5q0 -8 7.5 -19t17.5 -11q2 0 4 -1t3 -1t4 1h4q3 0 10 5q14 10 14 26zM352 742q0 12 -9.5 22t-22.5 10t-22.5 -10.5t-9.5 -21.5t9.5 -21.5t22.5 -10.5q1 0 4 1h4q8 0 18 13q6 8 6 18zM226 742q0 12 -9.5 22t-22.5 10
t-22.5 -10.5t-9.5 -21.5t9.5 -21.5t22.5 -10.5q1 0 4 1h4q8 0 18 13q6 8 6 18zM883 61q0 10 -9.5 21t-22.5 11t-22.5 -11t-9.5 -21q0 -12 9.5 -22.5t22.5 -10.5q12 0 22 10.5t10 22.5zM904 119v562h-889v-562h889zM100 742q0 11 -9.5 21.5t-22.5 10.5t-22.5 -10.5
t-9.5 -21.5t9.5 -21.5t22.5 -10.5q1 0 4 1h4q8 0 18 13q6 8 6 18zM757 61q0 11 -9.5 21.5t-22.5 10.5t-22.5 -11t-9.5 -21q0 -12 9.5 -22.5t22.5 -10.5q11 0 21.5 10t10.5 23zM631 61q0 11 -9.5 21.5t-22.5 10.5t-22.5 -11t-9.5 -21q0 -12 9.5 -22.5t22.5 -10.5
q11 0 21.5 10t10.5 23zM352 64q0 12 -9.5 22t-22.5 10t-22.5 -10.5t-9.5 -21.5q0 -12 9.5 -22t22.5 -10q11 0 21.5 10t10.5 22zM226 64q0 12 -9.5 22t-22.5 10t-22.5 -10.5t-9.5 -21.5q0 -12 9.5 -22t22.5 -10q11 0 21.5 10t10.5 22zM100 64q0 11 -9.5 21.5t-22.5 10.5
t-22.5 -10.5t-9.5 -21.5q0 -12 9.5 -22t22.5 -10q12 0 22 10t10 22zM687 305l-29 -151h-427v17q16 1 48 12q16 10 16 32v371q0 22 -22 35q-19 10 -42 7v19h421v-146h-18q-1 7 -10 40q-15 52 -65 70q-31 11 -89 11q-57 0 -57 -26v-177q26 -1 46 4q12 3 18 6q29 12 42 45
q6 14 13 54h18v-247h-19q-5 113 -108 113h-10v-185q0 -9 6 -18q10 -15 56 -15q136 0 191 129h21z" />
    <glyph glyph-name="F" unicode="F" horiz-adv-x="911" 
d="M914 0h-383q-2 9 -6 24.5t-23.5 27.5t-33.5 12q-1 0 -10.5 -1t-11.5 -1t-15 -3.5t-25.5 -16.5t-13.5 -27q0 -6 -3 -15h-387v801h387q2 -8 4 -22q1 -2 11 -20q5 -10 22.5 -19t27.5 -9q1 0 9.5 1.5t10 1.5t4.5 1t4 1q6 0 23 11q27 16 24 52q1 0 3 2h382v-801zM881 743
q0 12 -10 22t-22 10q-13 0 -22.5 -10.5t-9.5 -21.5q0 -9 7 -18q8 -12 18 -12q2 0 4 -1t3 -1t4 1h4q4 0 10 5q14 10 14 26zM755 743q0 12 -10 22t-22 10q-13 0 -22.5 -10.5t-9.5 -21.5q0 -9 7 -18q8 -12 18 -12q2 0 4 -1t3 -1t4 1h4q3 0 10 5q14 9 14 26zM629 743
q0 12 -10 22t-22 10q-13 0 -22.5 -10.5t-9.5 -21.5q0 -8 7.5 -19t17.5 -11q2 0 4 -1t3 -1t4 1h4q3 0 10 5q14 9 14 26zM350 743q0 12 -9.5 22t-22.5 10t-22.5 -10.5t-9.5 -21.5q0 -12 9.5 -22t22.5 -10q1 0 4 1h4q8 0 18 13q6 8 6 18zM224 743q0 12 -9.5 22t-22.5 10
t-22.5 -10.5t-9.5 -21.5q0 -12 9.5 -22t22.5 -10q1 0 4 1h4q8 0 18 13q6 8 6 18zM881 61q0 11 -9.5 22t-22.5 11t-22.5 -11t-9.5 -22t9.5 -21.5t22.5 -10.5q12 0 22 10.5t10 21.5zM902 120v562h-889v-562h889zM98 743q0 11 -9.5 21.5t-22.5 10.5t-22.5 -10.5t-9.5 -21.5
t9.5 -21.5t22.5 -10.5q1 0 4 1h4q8 0 18 13q6 8 6 18zM755 61q0 12 -9.5 22.5t-22.5 10.5t-22.5 -11t-9.5 -22t9.5 -21.5t22.5 -10.5q11 0 21.5 10t10.5 22zM629 61q0 12 -9.5 22.5t-22.5 10.5t-22.5 -11t-9.5 -22t9.5 -21.5t22.5 -10.5q11 0 21.5 10t10.5 22zM350 65
q0 12 -9.5 22t-22.5 10t-22.5 -10.5t-9.5 -21.5q0 -12 9.5 -22t22.5 -10q11 0 21.5 10t10.5 22zM224 65q0 12 -9.5 22t-22.5 10t-22.5 -10.5t-9.5 -21.5q0 -12 9.5 -22t22.5 -10q11 0 21.5 10t10.5 22zM98 65q0 11 -9.5 21.5t-22.5 10.5t-22.5 -10.5t-9.5 -21.5
q0 -12 9.5 -22t22.5 -10q12 0 22 10t10 22zM666 502h-18q-8 35 -15 53q-19 47 -73 61q-27 7 -93 7q1 0 -7.5 -1t-14.5 -5q-10 -6 -11 -20v-176q3 -1 12 -1q45 0 68.5 25.5t32.5 83.5h18v-247h-18q0 4 -9 41q-15 72 -94 72h-10v-180q1 -26 23 -35q16 -6 58 -8v-18h-263v18
q2 0 7 1h6q-3 0 19 4q32 6 32 39v371q0 5 -3 15q-10 26 -61 28v18h414v-146z" />
    <glyph glyph-name="G" unicode="G" 
d="M915 -1h-383q-2 9 -6 24.5t-23.5 27.5t-33.5 12q-1 0 -10.5 -1t-11.5 -1t-15 -4t-25.5 -16.5t-13.5 -26.5q0 -6 -3 -15h-388v801h388q2 -8 4 -22q1 -2 11 -20q5 -10 22.5 -19t27.5 -9q1 0 9.5 1t9.5 1t4.5 1.5t4.5 1.5q6 0 23 10q27 17 24 52l3 3h382v-801zM882 742
q0 11 -10 21.5t-22 10.5q-13 0 -22.5 -10.5t-9.5 -21.5q0 -9 7.5 -19.5t17.5 -10.5q2 0 4 -1t3 -1t4 1h4q4 0 10 5q14 10 14 26zM756 742q0 11 -10 21.5t-22 10.5q-13 0 -22.5 -10.5t-9.5 -21.5q0 -9 7.5 -19.5t17.5 -10.5q2 0 4 -1t3 -1t4 1h4q3 0 10 5q14 9 14 26z
M630 742q0 11 -10 21.5t-22 10.5q-13 0 -22.5 -10.5t-9.5 -21.5q0 -8 7.5 -19t17.5 -11q2 0 4 -1t3 -1t4 1h4q3 0 10 5q14 9 14 26zM351 742q0 12 -9.5 22t-22.5 10t-22.5 -10.5t-9.5 -21.5q0 -12 9.5 -22t22.5 -10q1 0 4 1h4q7 0 18 13q6 8 6 18zM225 742q0 12 -9.5 22
t-22.5 10t-22.5 -10.5t-9.5 -21.5q0 -12 9.5 -22t22.5 -10q1 0 4 1h4q7 0 18 13q6 8 6 18zM882 60q0 11 -9.5 21.5t-22.5 10.5t-22.5 -10.5t-9.5 -21.5t9.5 -21.5t22.5 -10.5q12 0 22 10.5t10 21.5zM903 118v563h-889v-563h889zM99 742q0 11 -9.5 21.5t-22.5 10.5
t-22.5 -10.5t-9.5 -21.5q0 -12 9.5 -22t22.5 -10q1 0 4 1h4q7 0 18 13q6 8 6 18zM756 60q0 12 -9.5 22t-22.5 10t-22.5 -10.5t-9.5 -21.5t9.5 -21.5t22.5 -10.5q11 0 21.5 10t10.5 22zM630 60q0 12 -9.5 22t-22.5 10t-22.5 -10.5t-9.5 -21.5t9.5 -21.5t22.5 -10.5
q11 0 21.5 10t10.5 22zM351 64q0 11 -9.5 21.5t-22.5 10.5t-22.5 -10.5t-9.5 -21.5q0 -12 9.5 -22t22.5 -10q11 0 21.5 9.5t10.5 22.5zM225 64q0 11 -9.5 21.5t-22.5 10.5t-22.5 -10.5t-9.5 -21.5q0 -12 9.5 -22t22.5 -10q11 0 21.5 9.5t10.5 22.5zM99 64q0 11 -9.5 21.5
t-22.5 10.5t-22.5 -10.5t-9.5 -21.5q0 -12 9.5 -22t22.5 -10q12 0 22 10t10 22zM722 345q-16 -1 -46 -12q-15 -11 -15 -32q-1 -3 -2 -9v-108q-27 -19 -95 -33q-60 -13 -103 -13q-118 0 -191 71.5t-73 189.5q0 76 37 138q43 72 123 103q32 13 65 16q2 0 6 1t6 1q1 0 24 -1
t24 -1t7 -1h8l99 -33h6q11 0 19 14q5 10 11 20h18v-171h-19q-27 66 -71 107q-47 43 -98 43q-136 0 -136 -237l4 -65q0 -19 12 -57q35 -113 129 -113q69 0 73 39q0 1 1 3.5t1 4.5v90q0 29 -26 38q-13 5 -48 7v17h250v-17z" />
    <glyph glyph-name="H" unicode="H" horiz-adv-x="913" 
d="M916 1h-382q-2 8 -7 25q-4 14 -23.5 26.5t-33.5 12.5q-1 0 -10.5 -1.5t-11.5 -1.5t-15 -3.5t-25.5 -16.5t-13.5 -26q0 -7 -3 -16h-387v801h387q2 -8 4 -21q1 -3 11 -21q5 -10 22.5 -18.5t27.5 -8.5q1 0 9.5 1t10 1t4.5 1t4 1q6 0 23 11q27 17 24 52q1 0 3 2h382v-800z
M883 743q0 12 -10 22.5t-22 10.5q-13 0 -22.5 -11t-9.5 -22q0 -8 7.5 -18.5t17.5 -10.5q2 0 4 -1.5t3 -1.5t4 1t5.5 1t8.5 4q14 10 14 26zM757 743q0 12 -10 22.5t-22 10.5q-13 0 -22.5 -11t-9.5 -22q0 -8 7.5 -18.5t17.5 -10.5q2 0 4 -1.5t3 -1.5t4 1t5 1t9 4q14 10 14 26z
M631 743q0 12 -10 22.5t-22 10.5q-13 0 -22.5 -11t-9.5 -22q0 -8 7.5 -18.5t17.5 -10.5q2 0 4 -1.5t3 -1.5t4 1t5 1t9 4q14 10 14 26zM352 743q0 12 -9.5 22.5t-22.5 10.5t-22.5 -11t-9.5 -22t9.5 -21.5t22.5 -10.5q1 0 4 1t4 1q8 0 18 12q6 8 6 18zM226 743q0 12 -9.5 22.5
t-22.5 10.5t-22.5 -11t-9.5 -22t9.5 -21.5t22.5 -10.5q1 0 4 1t4 1q8 0 18 12q6 8 6 18zM883 62q0 11 -9.5 21.5t-22.5 10.5t-22.5 -10.5t-9.5 -21.5q0 -12 9.5 -22t22.5 -10q12 0 22 10t10 22zM904 120v562h-889v-562h889zM100 743q0 11 -9.5 22t-22.5 11t-22.5 -11
t-9.5 -22t9.5 -21.5t22.5 -10.5q1 0 4 1t4 1q8 0 18 12q6 8 6 18zM757 62q0 11 -9.5 21.5t-22.5 10.5t-22.5 -10.5t-9.5 -21.5q0 -12 9.5 -22t22.5 -10q11 0 21.5 9.5t10.5 22.5zM631 62q0 11 -9.5 21.5t-22.5 10.5t-22.5 -10.5t-9.5 -21.5q0 -12 9.5 -22t22.5 -10
q11 0 21.5 9.5t10.5 22.5zM352 65q0 12 -9.5 22t-22.5 10t-22.5 -10.5t-9.5 -21.5q0 -12 9.5 -22t22.5 -10q11 0 21.5 10t10.5 22zM226 65q0 12 -9.5 22t-22.5 10t-22.5 -10.5t-9.5 -21.5q0 -12 9.5 -22t22.5 -10q11 0 21.5 10t10.5 22zM100 65q0 11 -9.5 21.5t-22.5 10.5
t-22.5 -10.5t-9.5 -21.5q0 -12 9.5 -22t22.5 -10q12 0 22 10t10 22zM727 631q-65 -2 -65 -48v-363v-5q1 -3 1 -5q0 -11 10.5 -21t22.5 -11q4 -2 5 -2t10.5 -1.5t13.5 -1.5v-18h-247v17q3 2 13 2q-1 0 8 1q29 6 36.5 18.5t7.5 20.5v179h-176v-172q0 -24 15 -34.5t51 -14.5
v-17h-246v17q5 0 13 2t10 3q23 3 32 17q7 11 7 19v376q0 -1 -3 10q-8 27 -59 32v17h246v-17q-66 0 -66 -49v-155h176v162q0 13 -11.5 25t-26.5 14q-8 1 -27 3v17h249v-17z" />
    <glyph glyph-name="I" unicode="I" horiz-adv-x="913" 
d="M915 0h-382q-2 8 -6 25q-4 14 -24 26.5t-33 12.5q-2 0 -11.5 -1.5t-11.5 -1.5t-15 -3.5t-25 -16.5t-14 -26q1 -7 -2 -15h-388v800h388q1 -8 4 -21q0 -3 10 -21q5 -10 24 -19q16 -8 26 -8q1 0 9.5 1t10 1t4.5 1t6.5 1t20.5 11q27 17 25 52q0 1 2 2h382v-800zM883 742
q0 12 -10 22.5t-22 10.5q-13 0 -23 -11t-10 -22q0 -8 8 -18.5t18 -10.5q1 0 3 -1.5t4 -1.5q1 0 3.5 1t5 1t9.5 4q14 10 14 26zM757 742q0 12 -10 22.5t-22 10.5q-13 0 -23 -11t-10 -22q0 -8 8 -18.5t18 -10.5q1 0 3 -1.5t4 -1.5q1 0 3.5 1t5 1t9.5 4q14 10 14 26zM631 742
q0 12 -10 22.5t-22 10.5q-13 0 -23 -11t-10 -22q0 -8 8 -18.5t18 -10.5q1 0 3 -1.5t4 -1.5q1 0 3.5 1t5 1t9.5 4q14 10 14 26zM352 742q0 12 -9.5 22.5t-22.5 10.5t-23 -11t-10 -22t10 -21.5t23 -10.5q1 0 3.5 1t3.5 1q8 0 18 12q7 8 7 18zM226 742q0 12 -9.5 22.5
t-22.5 10.5t-23 -11t-10 -22t10 -21.5t23 -10.5q1 0 3.5 1t3.5 1q8 0 18 12q7 8 7 18zM883 61q0 11 -10 21.5t-22 10.5q-13 0 -23 -10.5t-10 -21.5q0 -12 10 -22t23 -10q12 0 22 10t10 22zM904 119v562h-890v-562h890zM100 742q0 11 -10 22t-22 11q-13 0 -23 -11t-10 -22
t10 -21.5t23 -10.5q1 0 3.5 1t3.5 1q8 0 18 12q7 8 7 18zM757 61q0 11 -9.5 21.5t-22.5 10.5t-23 -10.5t-10 -21.5q0 -12 10 -22t23 -10q10 0 21 9.5t11 22.5zM631 61q0 11 -9.5 21.5t-22.5 10.5t-23 -10.5t-10 -21.5q0 -12 10 -22t23 -10q10 0 21 9.5t11 22.5zM352 64
q0 12 -9.5 22t-22.5 10t-23 -10.5t-10 -21.5q0 -12 10 -22t23 -10q10 0 21 10t11 22zM226 64q0 12 -9.5 22t-22.5 10t-23 -10.5t-10 -21.5q0 -12 10 -22t23 -10q10 0 21 10t11 22zM100 64q0 11 -10 21.5t-22 10.5q-13 0 -23 -10.5t-10 -21.5q0 -12 10 -22t23 -10q12 0 22 10
t10 22zM606 154h-257v17q16 1 51 12q18 9 18 34v367q0 4 -4 15q-8 20 -29 26q-6 2 -36 5v17h257v-17q-29 -2 -40 -5q-25 -8 -29 -32q-1 -4 -1 -6v-373q0 -8 7 -19.5t15 -14.5q21 -7 30 -7q1 0 6 -1h7q4 0 5 -1v-17z" />
    <glyph glyph-name="J" unicode="J" horiz-adv-x="911" 
d="M913 0h-382q-2 8 -6 25q-4 14 -24 26.5t-33 12.5q-2 0 -11.5 -1t-11.5 -1t-15 -4t-25 -17t-14 -26q1 -7 -3 -15h-387v801h388q1 -8 4 -22q0 -2 10 -21q5 -9 24 -19q16 -8 26 -8q1 0 9.5 1t10 1t4.5 1t6.5 1t20.5 11q27 17 25 52q0 1 2 3h382v-801zM880 743
q0 11 -9.5 21.5t-22.5 10.5q-12 0 -22 -10.5t-10 -21.5q0 -9 7.5 -19.5t18.5 -10.5q1 0 3 -1t3 -1h4q3 1 5.5 1t9.5 5q13 10 13 26zM754 743q0 11 -10 21.5t-22 10.5t-22 -10.5t-10 -21.5q0 -9 7.5 -19.5t18.5 -10.5q1 0 3 -1t3 -1h4q3 1 5.5 1t9.5 5q13 9 13 26zM628 743
q0 11 -10 21.5t-22 10.5t-22 -10.5t-10 -21.5q0 -9 7.5 -19.5t18.5 -10.5q1 0 3 -1t3 -1h4q3 1 5.5 1t9.5 5q13 9 13 26zM349 743q0 11 -9.5 21.5t-22.5 10.5q-12 0 -22 -10.5t-10 -21.5q0 -12 9.5 -22t22.5 -10h4q3 1 4 1q8 0 18 13q6 7 6 18zM223 743q0 11 -9.5 21.5
t-22.5 10.5q-12 0 -22 -10.5t-10 -21.5q0 -12 9.5 -22t22.5 -10h4q3 1 4 1q8 0 18 13q6 7 6 18zM880 61q0 11 -9.5 21.5t-22.5 10.5q-12 0 -22 -10.5t-10 -21.5q0 -12 10 -22t22 -10q13 0 22.5 10t9.5 22zM902 119v562h-890v-562h890zM97 743q0 11 -9.5 21.5t-22.5 10.5
q-12 0 -22 -10.5t-10 -21.5q0 -12 10 -22t22 -10h4q3 1 4 1q8 0 18 13q6 7 6 18zM754 61q0 12 -9.5 22t-22.5 10q-12 0 -22 -10.5t-10 -21.5q0 -12 9.5 -22t22.5 -10q11 0 21.5 10t10.5 22zM628 61q0 12 -9.5 22t-22.5 10q-12 0 -22 -10.5t-10 -21.5q0 -12 9.5 -22t22.5 -10
q11 0 21.5 10t10.5 22zM349 64q0 12 -9.5 22t-22.5 10q-12 0 -22 -10.5t-10 -21.5t9.5 -21.5t22.5 -10.5q11 0 21.5 10t10.5 22zM223 64q0 12 -9.5 22t-22.5 10q-12 0 -22 -10.5t-10 -21.5t9.5 -21.5t22.5 -10.5q11 0 21.5 10t10.5 22zM97 64q0 11 -9.5 21.5t-22.5 10.5
q-12 0 -22 -10.5t-10 -21.5t10 -21.5t22 -10.5q13 0 22.5 10.5t9.5 21.5zM627 641q-16 -3 -22 -3q-38 0 -38 -59v-315q0 -27 -13 -56q-10 -22 -30 -40q-35 -32 -103 -32q-44 0 -75 18q-17 11 -29 34q-11 20 -11 37q0 18 14 33.5t33 15.5q11 0 28 -9q21 -12 21 -41
q0 -9 -1 -13t-9 -14t-8 -16q0 -23 30 -23q35 0 40 30q3 18 3 13v401l-3 10q-10 35 -64 27v18h237v-16z" />
    <glyph glyph-name="K" unicode="K" horiz-adv-x="913" 
d="M915 0h-382q-2 8 -7 25q-4 14 -23.5 26.5t-33.5 12.5q-1 0 -10.5 -1.5t-11.5 -1.5t-15 -3.5t-25 -16.5t-14 -26q1 -7 -3 -15h-387v800h387q2 -8 4 -21q1 -3 11 -21q5 -10 22.5 -18.5t27.5 -8.5q1 0 9.5 1t10 1t4.5 1t4 1q6 0 23 11q27 17 24 52q1 1 3 2h382v-800z
M882 742q0 12 -10 22.5t-22 10.5t-22 -11t-10 -22q0 -8 7.5 -18.5t17.5 -10.5q2 0 4 -1.5t3 -1.5q2 0 4.5 1t5 1t9.5 4q13 10 13 26zM756 742q0 12 -10 22.5t-22 10.5q-13 0 -22.5 -11t-9.5 -22q0 -8 7.5 -18.5t17.5 -10.5q2 0 4 -1.5t3 -1.5q2 0 4.5 1t4.5 1t10 4
q13 10 13 26zM630 742q0 12 -10 22.5t-22 10.5q-13 0 -22.5 -11t-9.5 -22q0 -8 7.5 -18.5t17.5 -10.5q2 0 4 -1.5t3 -1.5q2 0 4.5 1t4.5 1t10 4q13 10 13 26zM351 742q0 12 -9.5 22.5t-22.5 10.5t-22.5 -11t-9.5 -22t9.5 -21.5t22.5 -10.5q2 0 4.5 1t3.5 1q8 0 18 12
q6 8 6 18zM225 742q0 12 -9.5 22.5t-22.5 10.5t-22.5 -11t-9.5 -22t9.5 -21.5t22.5 -10.5q2 0 4.5 1t3.5 1q8 0 18 12q6 8 6 18zM882 61q0 11 -9.5 21.5t-22.5 10.5q-12 0 -22 -10.5t-10 -21.5q0 -12 9.5 -22t22.5 -10t22.5 10t9.5 22zM904 119v562h-890v-562h890zM99 742
q0 11 -9.5 22t-22.5 11q-12 0 -22 -11t-10 -22t9.5 -21.5t22.5 -10.5q2 0 4.5 1t3.5 1q8 0 18 12q6 8 6 18zM756 61q0 11 -9.5 21.5t-22.5 10.5t-22.5 -10.5t-9.5 -21.5q0 -12 9.5 -22t22.5 -10q11 0 21.5 9.5t10.5 22.5zM630 61q0 11 -9.5 21.5t-22.5 10.5t-22.5 -10.5
t-9.5 -21.5q0 -12 9.5 -22t22.5 -10q11 0 21.5 9.5t10.5 22.5zM351 64q0 12 -9.5 22t-22.5 10t-22.5 -10.5t-9.5 -21.5q0 -12 9.5 -22t22.5 -10q11 0 21.5 10t10.5 22zM225 64q0 12 -9.5 22t-22.5 10t-22.5 -10.5t-9.5 -21.5q0 -12 9.5 -22t22.5 -10q11 0 21.5 10t10.5 22z
M99 64q0 11 -9.5 21.5t-22.5 10.5q-12 0 -22 -10.5t-10 -21.5q0 -12 9.5 -22t22.5 -10t22.5 10t9.5 22zM747 150h-245v18q24 1 54 8q3 3 3 8q0 9 -63 89q-30 38 -87 108q-6 -4 -19 -18v-156q0 -2 1 -4q1 -8 14 -22q15 -9 23 -9q2 0 4 -1t4.5 -1t17.5 -2v-18h-245v21l1 -2
q5 0 14.5 2.5t13.5 2.5q10 0 19.5 8t10.5 16q0 1 1 4.5t1 4.5v380q0 -1 -3 9q-5 19 -24 25q-9 3 -36 5v18h247v-18q-25 -2 -36 -5q-20 -7 -24 -27q-2 -7 -4 -18v-173q44 42 176 178q8 8 8 21q0 17 -28 22l-34 2v18h212v-18q-67 1 -142 -73q-30 -29 -93 -93l51 -63l155 -192
q30 -37 45 -36q7 0 7 -1v-18z" />
    <glyph glyph-name="L" unicode="L" horiz-adv-x="911" 
d="M913 0h-382q-2 8 -6 25q-4 14 -24 26.5t-33 12.5q-2 0 -11.5 -1t-11.5 -1t-15 -4t-25 -17t-14 -26q1 -7 -3 -15h-387v801h388q1 -8 4 -22q0 -2 10 -21q5 -9 24 -19q16 -8 26 -8q1 0 9.5 1t10 1t4.5 1t6.5 1t20.5 11q27 17 25 52q0 1 2 3h382v-801zM880 743
q0 11 -9.5 21.5t-22.5 10.5q-12 0 -22 -10.5t-10 -21.5q0 -9 7.5 -19.5t18.5 -10.5q1 0 3 -1t3 -1h4q3 1 5.5 1t9.5 5q13 10 13 26zM754 743q0 11 -10 21.5t-22 10.5t-22 -10.5t-10 -21.5q0 -9 7.5 -19.5t18.5 -10.5q1 0 3 -1t3 -1h4q3 1 5.5 1t9.5 5q13 9 13 26zM628 743
q0 11 -10 21.5t-22 10.5t-22 -10.5t-10 -21.5q0 -9 7.5 -19.5t18.5 -10.5q1 0 3 -1t3 -1h4q3 1 5.5 1t9.5 5q13 9 13 26zM349 743q0 11 -9.5 21.5t-22.5 10.5q-12 0 -22 -10.5t-10 -21.5q0 -12 9.5 -22t22.5 -10h4q3 1 4 1q8 0 18 13q6 7 6 18zM223 743q0 11 -9.5 21.5
t-22.5 10.5q-12 0 -22 -10.5t-10 -21.5q0 -12 9.5 -22t22.5 -10h4q3 1 4 1q8 0 18 13q6 7 6 18zM880 61q0 11 -9.5 21.5t-22.5 10.5q-12 0 -22 -10.5t-10 -21.5q0 -12 10 -22t22 -10q13 0 22.5 10t9.5 22zM902 119v562h-890v-562h890zM97 743q0 11 -9.5 21.5t-22.5 10.5
q-12 0 -22 -10.5t-10 -21.5q0 -12 10 -22t22 -10h4q3 1 4 1q8 0 18 13q6 7 6 18zM754 61q0 12 -9.5 22t-22.5 10q-12 0 -22 -10.5t-10 -21.5q0 -12 9.5 -22t22.5 -10q11 0 21.5 10t10.5 22zM628 61q0 12 -9.5 22t-22.5 10q-12 0 -22 -10.5t-10 -21.5q0 -12 9.5 -22t22.5 -10
q11 0 21.5 10t10.5 22zM349 64q0 12 -9.5 22t-22.5 10q-12 0 -22 -10.5t-10 -21.5t9.5 -21.5t22.5 -10.5q11 0 21.5 10t10.5 22zM223 64q0 12 -9.5 22t-22.5 10q-12 0 -22 -10.5t-10 -21.5t9.5 -21.5t22.5 -10.5q11 0 21.5 10t10.5 22zM97 64q0 11 -9.5 21.5t-22.5 10.5
q-12 0 -22 -10.5t-10 -21.5t10 -21.5t22 -10.5q13 0 22.5 10.5t9.5 21.5zM697 316l-29 -165h-423v17q16 3 34.5 7.5t24.5 21.5q3 10 3 8v381q0 41 -62 40v18h254v-18h-13q-8 -1 -11 -1.5l-9 -1.5q-20 -1 -30 -16t-10 -30v-374q0 -5 5 -13.5t9 -9.5q21 -7 46 -7h21q-2 0 23 3
q6 1 30 8q76 22 115 132h22z" />
    <glyph glyph-name="M" unicode="M" 
d="M914 0h-382q-2 8 -6 25q-4 14 -24 26.5t-33 12.5q-2 0 -11.5 -1t-11.5 -1t-15 -4t-25 -17t-14 -26q1 -7 -3 -15h-387v801h388q1 -8 4 -22q0 -2 10 -21q5 -9 24 -19q16 -8 26 -8q1 0 9.5 1t10 1t4.5 1t6.5 1t20.5 11q27 17 25 52q0 1 2 3h382v-801zM881 743
q0 11 -9.5 21.5t-22.5 10.5q-12 0 -22 -10.5t-10 -21.5q0 -9 7.5 -19.5t18.5 -10.5q1 0 3 -1t3 -1h4q3 1 5.5 1t9.5 5q13 10 13 26zM755 743q0 11 -10 21.5t-22 10.5t-22 -10.5t-10 -21.5q0 -9 7.5 -19.5t18.5 -10.5q1 0 3 -1t3 -1h4q3 1 5.5 1t9.5 5q13 9 13 26zM629 743
q0 11 -10 21.5t-22 10.5t-22 -10.5t-10 -21.5q0 -9 7.5 -19.5t18.5 -10.5q1 0 3 -1t3 -1h4q3 1 5.5 1t9.5 5q13 9 13 26zM350 743q0 11 -9.5 21.5t-22.5 10.5q-12 0 -22 -10.5t-10 -21.5q0 -12 9.5 -22t22.5 -10h4q3 1 4 1q8 0 18 13q6 7 6 18zM224 743q0 11 -9.5 21.5
t-22.5 10.5q-12 0 -22 -10.5t-10 -21.5q0 -12 9.5 -22t22.5 -10h4q3 1 4 1q8 0 18 13q6 7 6 18zM881 61q0 11 -9.5 21.5t-22.5 10.5q-12 0 -22 -10.5t-10 -21.5q0 -12 10 -22t22 -10q13 0 22.5 10t9.5 22zM903 119v562h-890v-562h890zM98 743q0 11 -9.5 21.5t-22.5 10.5
q-12 0 -22 -10.5t-10 -21.5q0 -12 10 -22t22 -10h4q3 1 4 1q8 0 18 13q6 7 6 18zM755 61q0 12 -9.5 22t-22.5 10q-12 0 -22 -10.5t-10 -21.5q0 -12 9.5 -22t22.5 -10q11 0 21.5 10t10.5 22zM629 61q0 12 -9.5 22t-22.5 10q-12 0 -22 -10.5t-10 -21.5q0 -12 9.5 -22t22.5 -10
q11 0 21.5 10t10.5 22zM350 64q0 12 -9.5 22t-22.5 10q-12 0 -22 -10.5t-10 -21.5t9.5 -21.5t22.5 -10.5q11 0 21.5 10t10.5 22zM224 64q0 12 -9.5 22t-22.5 10q-12 0 -22 -10.5t-10 -21.5t9.5 -21.5t22.5 -10.5q11 0 21.5 10t10.5 22zM98 64q0 11 -9.5 21.5t-22.5 10.5
q-12 0 -22 -10.5t-10 -21.5t10 -21.5t22 -10.5q13 0 22.5 10.5t9.5 21.5zM788 151h-243v17q29 3 40 7q23 9 24 30q1 2 2 7v379l-185 -441h-20l-184 431v-358l3 -15q6 -37 70 -40v-17h-170v17l36 6q22 7 27 24q3 13 3 9v380q0 3 -3 11q-10 26 -61 28v18h184l147 -344l146 344
h184v-18q-5 1 -18.5 -1.5t-19.5 -4.5q-13 -5 -18 -15q-8 -16 -8 -28v-361q0 -16 10 -30q4 -5 13 -8.5t8.5 -3.5t13 -2.5t19.5 -3.5v-17z" />
    <glyph glyph-name="N" unicode="N" horiz-adv-x="913" 
d="M915 -1h-382q-2 8 -6 25q-4 14 -24 26.5t-33 12.5q-2 0 -11.5 -1t-11.5 -1t-15 -4t-25 -17t-14 -26q1 -7 -3 -15h-387v801h388q1 -8 4 -22q0 -2 10 -21q5 -9 24 -19q16 -8 26 -8q1 0 9.5 1t10 1t4.5 1t6.5 1t20.5 11q27 17 25 52q0 1 2 3h382v-801zM882 742
q0 11 -9.5 21.5t-22.5 10.5q-12 0 -22 -10.5t-10 -21.5q0 -9 7.5 -19.5t18.5 -10.5q1 0 3 -1t3 -1h4q3 1 5.5 1t9.5 5q13 10 13 26zM756 742q0 11 -10 21.5t-22 10.5t-22 -10.5t-10 -21.5q0 -9 7.5 -19.5t18.5 -10.5q1 0 3 -1t3 -1h4q3 1 5.5 1t9.5 5q13 9 13 26zM630 742
q0 11 -10 21.5t-22 10.5t-22 -10.5t-10 -21.5q0 -9 7.5 -19.5t18.5 -10.5q1 0 3 -1t3 -1h4q3 1 5.5 1t9.5 5q13 9 13 26zM351 742q0 11 -9.5 21.5t-22.5 10.5q-12 0 -22 -10.5t-10 -21.5q0 -12 9.5 -22t22.5 -10h4q3 1 4 1q8 0 18 13q6 7 6 18zM225 742q0 11 -9.5 21.5
t-22.5 10.5q-12 0 -22 -10.5t-10 -21.5q0 -12 9.5 -22t22.5 -10h4q3 1 4 1q8 0 18 13q6 7 6 18zM882 60q0 11 -9.5 21.5t-22.5 10.5q-12 0 -22 -10.5t-10 -21.5q0 -12 10 -22t22 -10q13 0 22.5 10t9.5 22zM904 118v562h-890v-562h890zM99 742q0 11 -9.5 21.5t-22.5 10.5
q-12 0 -22 -10.5t-10 -21.5q0 -12 10 -22t22 -10h4q3 1 4 1q8 0 18 13q6 7 6 18zM756 60q0 12 -9.5 22t-22.5 10q-12 0 -22 -10.5t-10 -21.5q0 -12 9.5 -22t22.5 -10q11 0 21.5 10t10.5 22zM630 60q0 12 -9.5 22t-22.5 10q-12 0 -22 -10.5t-10 -21.5q0 -12 9.5 -22t22.5 -10
q11 0 21.5 10t10.5 22zM351 63q0 12 -9.5 22t-22.5 10q-12 0 -22 -10.5t-10 -21.5t9.5 -21.5t22.5 -10.5q11 0 21.5 10t10.5 22zM225 63q0 12 -9.5 22t-22.5 10q-12 0 -22 -10.5t-10 -21.5t9.5 -21.5t22.5 -10.5q11 0 21.5 10t10.5 22zM99 63q0 11 -9.5 21.5t-22.5 10.5
q-12 0 -22 -10.5t-10 -21.5t10 -21.5t22 -10.5q13 0 22.5 10.5t9.5 21.5zM721 625q-57 -6 -57 -45v-444h-20l-328 396v-297q1 -5 2 -9q2 -10 2 -14q0 -14 13.5 -26.5t28.5 -14.5l6 -1q6 0 18 -3v-17h-165v17q11 3 19 3q1 0 4.5 1t5.5 2q17 1 26 15t9 28v357q-15 17 -32 34.5
t-30 17.5v18h151q4 0 47 -54q94 -116 211 -257l1 226q-3 14 -3 23q-2 40 -66 44v18h157v-18z" />
    <glyph glyph-name="O" unicode="O" horiz-adv-x="913" 
d="M915 0h-382q-2 8 -6 25q-4 14 -24 26.5t-33 12.5q-2 0 -11.5 -1t-11.5 -1t-15 -4t-25 -17t-14 -26q1 -7 -3 -15h-387v801h388q1 -8 4 -22q0 -2 10 -21q5 -9 24 -19q16 -8 26 -8q1 0 9.5 1t10 1t4.5 1t6.5 1t20.5 11q27 17 25 52q0 1 2 3h382v-801zM882 743
q0 11 -9.5 21.5t-22.5 10.5q-12 0 -22 -10.5t-10 -21.5q0 -9 7.5 -19.5t18.5 -10.5q1 0 3 -1t3 -1h4q3 1 5.5 1t9.5 5q13 10 13 26zM756 743q0 11 -10 21.5t-22 10.5t-22 -10.5t-10 -21.5q0 -9 7.5 -19.5t18.5 -10.5q1 0 3 -1t3 -1h4q3 1 5.5 1t9.5 5q13 9 13 26zM630 743
q0 11 -10 21.5t-22 10.5t-22 -10.5t-10 -21.5q0 -9 7.5 -19.5t18.5 -10.5q1 0 3 -1t3 -1h4q3 1 5.5 1t9.5 5q13 9 13 26zM351 743q0 11 -9.5 21.5t-22.5 10.5q-12 0 -22 -10.5t-10 -21.5q0 -12 9.5 -22t22.5 -10h4q3 1 4 1q8 0 18 13q6 7 6 18zM225 743q0 11 -9.5 21.5
t-22.5 10.5q-12 0 -22 -10.5t-10 -21.5q0 -12 9.5 -22t22.5 -10h4q3 1 4 1q8 0 18 13q6 7 6 18zM882 61q0 11 -9.5 21.5t-22.5 10.5q-12 0 -22 -10.5t-10 -21.5q0 -12 10 -22t22 -10q13 0 22.5 10t9.5 22zM904 119v562h-890v-562h890zM99 743q0 11 -9.5 21.5t-22.5 10.5
q-12 0 -22 -10.5t-10 -21.5q0 -12 10 -22t22 -10h4q3 1 4 1q8 0 18 13q6 7 6 18zM756 61q0 12 -9.5 22t-22.5 10q-12 0 -22 -10.5t-10 -21.5q0 -12 9.5 -22t22.5 -10q11 0 21.5 10t10.5 22zM630 61q0 12 -9.5 22t-22.5 10q-12 0 -22 -10.5t-10 -21.5q0 -12 9.5 -22t22.5 -10
q11 0 21.5 10t10.5 22zM351 64q0 12 -9.5 22t-22.5 10q-12 0 -22 -10.5t-10 -21.5t9.5 -21.5t22.5 -10.5q11 0 21.5 10t10.5 22zM225 64q0 12 -9.5 22t-22.5 10q-12 0 -22 -10.5t-10 -21.5t9.5 -21.5t22.5 -10.5q11 0 21.5 10t10.5 22zM99 64q0 11 -9.5 21.5t-22.5 10.5
q-12 0 -22 -10.5t-10 -21.5t10 -21.5t22 -10.5q13 0 22.5 10.5t9.5 21.5zM728 407q0 -29 -6 -64q-3 -16 -11 -37q-16 -39 -34 -62q-30 -39 -72.5 -63.5t-97.5 -30.5l-3 -1t-5 -1h-14q-14 -1 -15 -1q-50 0 -90 14q-7 3 -20 8q-44 15 -84 59.5t-51 87.5q-3 10 -8 29
q-2 14 -6 39q1 1 0 39q3 27 14 76q29 84 102 129q64 39 143 39q22 0 40 -3q34 -5 24 -5q25 0 65 -23q23 -14 40 -27q55 -45 78 -120q11 -37 11 -82zM599 404q0 82 -19 141q-32 98 -110 98t-110 -97q-20 -58 -20 -141q0 -233 128 -233q1 0 14 1t14.5 1t16.5 6q57 24 77 117
q9 44 9 107z" />
    <glyph glyph-name="P" unicode="P" horiz-adv-x="913" 
d="M915 0h-382q-2 8 -6 25q-4 14 -24 26.5t-33 12.5q-2 0 -11.5 -1t-11.5 -1t-15 -4t-25 -17t-14 -26q1 -7 -3 -15h-387v801h388q1 -8 4 -22q0 -2 10 -21q5 -9 24 -19q16 -8 26 -8q1 0 9.5 1t10 1t4.5 1t6.5 1t20.5 11q27 17 25 52q0 1 2 3h382v-801zM882 743
q0 11 -9.5 21.5t-22.5 10.5q-12 0 -22 -10.5t-10 -21.5q0 -9 7.5 -19.5t18.5 -10.5q1 0 3 -1t3 -1h4q3 1 5.5 1t9.5 5q13 10 13 26zM756 743q0 11 -10 21.5t-22 10.5t-22 -10.5t-10 -21.5q0 -9 7.5 -19.5t18.5 -10.5q1 0 3 -1t3 -1h4q3 1 5.5 1t9.5 5q13 9 13 26zM630 743
q0 11 -10 21.5t-22 10.5t-22 -10.5t-10 -21.5q0 -9 7.5 -19.5t18.5 -10.5q1 0 3 -1t3 -1h4q3 1 5.5 1t9.5 5q13 9 13 26zM351 743q0 11 -9.5 21.5t-22.5 10.5q-12 0 -22 -10.5t-10 -21.5q0 -12 9.5 -22t22.5 -10h4q3 1 4 1q8 0 18 13q6 7 6 18zM225 743q0 11 -9.5 21.5
t-22.5 10.5q-12 0 -22 -10.5t-10 -21.5q0 -12 9.5 -22t22.5 -10h4q3 1 4 1q8 0 18 13q6 7 6 18zM882 61q0 11 -9.5 21.5t-22.5 10.5q-12 0 -22 -10.5t-10 -21.5q0 -12 10 -22t22 -10q13 0 22.5 10t9.5 22zM904 119v562h-890v-562h890zM99 743q0 11 -9.5 21.5t-22.5 10.5
q-12 0 -22 -10.5t-10 -21.5q0 -12 10 -22t22 -10h4q3 1 4 1q8 0 18 13q6 7 6 18zM756 61q0 12 -9.5 22t-22.5 10q-12 0 -22 -10.5t-10 -21.5q0 -12 9.5 -22t22.5 -10q11 0 21.5 10t10.5 22zM630 61q0 12 -9.5 22t-22.5 10q-12 0 -22 -10.5t-10 -21.5q0 -12 9.5 -22t22.5 -10
q11 0 21.5 10t10.5 22zM351 64q0 12 -9.5 22t-22.5 10q-12 0 -22 -10.5t-10 -21.5t9.5 -21.5t22.5 -10.5q11 0 21.5 10t10.5 22zM225 64q0 12 -9.5 22t-22.5 10q-12 0 -22 -10.5t-10 -21.5t9.5 -21.5t22.5 -10.5q11 0 21.5 10t10.5 22zM99 64q0 11 -9.5 21.5t-22.5 10.5
q-12 0 -22 -10.5t-10 -21.5t10 -21.5t22 -10.5q13 0 22.5 10.5t9.5 21.5zM695 510q0 -86 -82 -119q-32 -13 -43 -13l-14 -2.5t-21 -2.5q-22 -2 -30 -2h-57v-159q0 -3 4 -16q6 -18 27 -24q17 -2 33 -5v-18h-244v18q13 2 37 7q10 3 18 19q6 13 6 24v359q0 1 -1 5.5t-2 6.5
q-2 22 -22 30q-9 4 -36 7v18h259q2 0 9.5 -1t8.5 -1q21 0 60 -12q26 -7 50 -27q40 -33 40 -92zM569 507q0 88 -45 104q-16 6 -23 6q-31 0 -39 -2q-14 -5 -14 -16v-202q3 -1 8 -1h13q13 1 14 1q27 0 48 12q9 6 18 15.5t16 35.5q4 14 4 47z" />
    <glyph glyph-name="Q" unicode="Q" 
d="M914 -1h-382q-2 8 -6 25q-4 14 -24 26.5t-33 12.5q-2 0 -11.5 -1t-11.5 -1t-15 -4t-25 -17t-14 -26q1 -7 -3 -15h-387v801h388q1 -8 4 -22q0 -2 10 -21q5 -9 24 -19q16 -8 26 -8q1 0 9.5 1t10 1t4.5 1t6.5 1t20.5 11q27 17 25 52q0 1 2 3h382v-801zM881 742
q0 11 -9.5 21.5t-22.5 10.5q-12 0 -22 -10.5t-10 -21.5q0 -9 7.5 -19.5t18.5 -10.5q1 0 3 -1t3 -1h4q3 1 5.5 1t9.5 5q13 10 13 26zM755 742q0 11 -10 21.5t-22 10.5t-22 -10.5t-10 -21.5q0 -9 7.5 -19.5t18.5 -10.5q1 0 3 -1t3 -1h4q3 1 5.5 1t9.5 5q13 9 13 26zM629 742
q0 11 -10 21.5t-22 10.5t-22 -10.5t-10 -21.5q0 -9 7.5 -19.5t18.5 -10.5q1 0 3 -1t3 -1h4q3 1 5.5 1t9.5 5q13 9 13 26zM350 742q0 11 -9.5 21.5t-22.5 10.5q-12 0 -22 -10.5t-10 -21.5q0 -12 9.5 -22t22.5 -10h4q3 1 4 1q8 0 18 13q6 7 6 18zM224 742q0 11 -9.5 21.5
t-22.5 10.5q-12 0 -22 -10.5t-10 -21.5q0 -12 9.5 -22t22.5 -10h4q3 1 4 1q8 0 18 13q6 7 6 18zM881 60q0 11 -9.5 21.5t-22.5 10.5q-12 0 -22 -10.5t-10 -21.5q0 -12 10 -22t22 -10q13 0 22.5 10t9.5 22zM903 118v562h-890v-562h890zM98 742q0 11 -9.5 21.5t-22.5 10.5
q-12 0 -22 -10.5t-10 -21.5q0 -12 10 -22t22 -10h4q3 1 4 1q8 0 18 13q6 7 6 18zM755 60q0 12 -9.5 22t-22.5 10q-12 0 -22 -10.5t-10 -21.5q0 -12 9.5 -22t22.5 -10q11 0 21.5 10t10.5 22zM629 60q0 12 -9.5 22t-22.5 10q-12 0 -22 -10.5t-10 -21.5q0 -12 9.5 -22t22.5 -10
q11 0 21.5 10t10.5 22zM350 63q0 12 -9.5 22t-22.5 10q-12 0 -22 -10.5t-10 -21.5t9.5 -21.5t22.5 -10.5q11 0 21.5 10t10.5 22zM224 63q0 12 -9.5 22t-22.5 10q-12 0 -22 -10.5t-10 -21.5t9.5 -21.5t22.5 -10.5q11 0 21.5 10t10.5 22zM98 63q0 11 -9.5 21.5t-22.5 10.5
q-12 0 -22 -10.5t-10 -21.5t10 -21.5t22 -10.5q13 0 22.5 10.5t9.5 21.5zM695 449q0 -71 -34 -124q-40 -63 -122 -88v-3q4 -6 11.5 -19.5t25.5 -28t33 -18.5q21 -5 17 -5q1 0 4 -1h4h21q1 0 3.5 1t4.5 1q6 0 24 4q1 -5 3 -14q-54 -22 -111 -22q-1 0 -13.5 1.5t-13.5 1.5
q-18 0 -45 9q-35 12 -58 33q-21 18 -31 35q-3 10 -16 28q-13 5 -41 18q-59 31 -86 94q-19 47 -19 90q0 95 58 159q61 68 161 68q96 0 158 -62.5t62 -157.5zM586 448q0 68 -17 118q-28 83 -93 83q-66 0 -93 -83q-17 -50 -17 -120q0 -52 8 -89.5t28 -67.5q24 -36 54 -36
q1 0 10.5 -1t10.5 -1q98 0 107 161q2 19 2 36z" />
    <glyph glyph-name="R" unicode="R" 
d="M914 -1h-382q-2 8 -6 25q-4 14 -24 26.5t-33 12.5q-2 0 -11.5 -1t-11.5 -1t-15 -4t-25 -17t-14 -26q1 -7 -3 -15h-387v801h388q1 -8 4 -22q0 -2 10 -21q5 -9 24 -19q16 -8 26 -8q1 0 9.5 1t10 1t4.5 1t6.5 1t20.5 11q27 17 25 52q0 1 2 3h382v-801zM881 742
q0 11 -9.5 21.5t-22.5 10.5q-12 0 -22 -10.5t-10 -21.5q0 -9 7.5 -19.5t18.5 -10.5q1 0 3 -1t3 -1h4q3 1 5.5 1t9.5 5q13 10 13 26zM755 742q0 11 -10 21.5t-22 10.5t-22 -10.5t-10 -21.5q0 -9 7.5 -19.5t18.5 -10.5q1 0 3 -1t3 -1h4q3 1 5.5 1t9.5 5q13 9 13 26zM629 742
q0 11 -10 21.5t-22 10.5t-22 -10.5t-10 -21.5q0 -9 7.5 -19.5t18.5 -10.5q1 0 3 -1t3 -1h4q3 1 5.5 1t9.5 5q13 9 13 26zM350 742q0 11 -9.5 21.5t-22.5 10.5q-12 0 -22 -10.5t-10 -21.5q0 -12 9.5 -22t22.5 -10h4q3 1 4 1q8 0 18 13q6 7 6 18zM224 742q0 11 -9.5 21.5
t-22.5 10.5q-12 0 -22 -10.5t-10 -21.5q0 -12 9.5 -22t22.5 -10h4q3 1 4 1q8 0 18 13q6 7 6 18zM881 60q0 11 -9.5 21.5t-22.5 10.5q-12 0 -22 -10.5t-10 -21.5q0 -12 10 -22t22 -10q13 0 22.5 10t9.5 22zM903 118v562h-890v-562h890zM98 742q0 11 -9.5 21.5t-22.5 10.5
q-12 0 -22 -10.5t-10 -21.5q0 -12 10 -22t22 -10h4q3 1 4 1q8 0 18 13q6 7 6 18zM755 60q0 12 -9.5 22t-22.5 10q-12 0 -22 -10.5t-10 -21.5q0 -12 9.5 -22t22.5 -10q11 0 21.5 10t10.5 22zM629 60q0 12 -9.5 22t-22.5 10q-12 0 -22 -10.5t-10 -21.5q0 -12 9.5 -22t22.5 -10
q11 0 21.5 10t10.5 22zM350 63q0 12 -9.5 22t-22.5 10q-12 0 -22 -10.5t-10 -21.5t9.5 -21.5t22.5 -10.5q11 0 21.5 10t10.5 22zM224 63q0 12 -9.5 22t-22.5 10q-12 0 -22 -10.5t-10 -21.5t9.5 -21.5t22.5 -10.5q11 0 21.5 10t10.5 22zM98 63q0 11 -9.5 21.5t-22.5 10.5
q-12 0 -22 -10.5t-10 -21.5t10 -21.5t22 -10.5q13 0 22.5 10.5t9.5 21.5zM731 153h-151l-150 228h-20v-164q1 -23 16.5 -34t37.5 -11q6 0 10 -1v-18h-246v19q23 1 31 3q20 6 26 20t6 21v365l-4.5 18t-24.5 25q-7 2 -35 5v18h262q55 0 106 -22q74 -31 74 -107
q0 -47 -26.5 -76t-88.5 -49l34 -48q3 -4 60 -88q37 -56 61 -81q8 -8 22 -5v-18zM544 516q0 106 -90 106q-33 0 -40 -13q-4 -7 -4 -15v-189q-1 0 16 0q19 0 57 7q21 4 37 21.5t19 36.5q5 38 5 46z" />
    <glyph glyph-name="S" unicode="S" 
d="M914 -1h-382q-2 8 -6 25q-4 14 -24 26.5t-33 12.5q-2 0 -11.5 -1t-11.5 -1t-15 -4t-25 -17t-14 -26q1 -7 -3 -15h-387v801h388q1 -8 4 -22q0 -2 10 -21q5 -9 24 -19q16 -8 26 -8q1 0 9.5 1t10 1t4.5 1t6.5 1t20.5 11q27 17 25 52q0 1 2 3h382v-801zM881 742
q0 11 -9.5 21.5t-22.5 10.5q-12 0 -22 -10.5t-10 -21.5q0 -9 7.5 -19.5t18.5 -10.5q1 0 3 -1t3 -1h4q3 1 5.5 1t9.5 5q13 10 13 26zM755 742q0 11 -10 21.5t-22 10.5t-22 -10.5t-10 -21.5q0 -9 7.5 -19.5t18.5 -10.5q1 0 3 -1t3 -1h4q3 1 5.5 1t9.5 5q13 9 13 26zM629 742
q0 11 -10 21.5t-22 10.5t-22 -10.5t-10 -21.5q0 -9 7.5 -19.5t18.5 -10.5q1 0 3 -1t3 -1h4q3 1 5.5 1t9.5 5q13 9 13 26zM350 742q0 11 -9.5 21.5t-22.5 10.5q-12 0 -22 -10.5t-10 -21.5q0 -12 9.5 -22t22.5 -10h4q3 1 4 1q8 0 18 13q6 7 6 18zM224 742q0 11 -9.5 21.5
t-22.5 10.5q-12 0 -22 -10.5t-10 -21.5q0 -12 9.5 -22t22.5 -10h4q3 1 4 1q8 0 18 13q6 7 6 18zM881 60q0 11 -9.5 21.5t-22.5 10.5q-12 0 -22 -10.5t-10 -21.5q0 -12 10 -22t22 -10q13 0 22.5 10t9.5 22zM903 118v562h-890v-562h890zM98 742q0 11 -9.5 21.5t-22.5 10.5
q-12 0 -22 -10.5t-10 -21.5q0 -12 10 -22t22 -10h4q3 1 4 1q8 0 18 13q6 7 6 18zM755 60q0 12 -9.5 22t-22.5 10q-12 0 -22 -10.5t-10 -21.5q0 -12 9.5 -22t22.5 -10q11 0 21.5 10t10.5 22zM629 60q0 12 -9.5 22t-22.5 10q-12 0 -22 -10.5t-10 -21.5q0 -12 9.5 -22t22.5 -10
q11 0 21.5 10t10.5 22zM350 63q0 12 -9.5 22t-22.5 10q-12 0 -22 -10.5t-10 -21.5t9.5 -21.5t22.5 -10.5q11 0 21.5 10t10.5 22zM224 63q0 12 -9.5 22t-22.5 10q-12 0 -22 -10.5t-10 -21.5t9.5 -21.5t22.5 -10.5q11 0 21.5 10t10.5 22zM98 63q0 11 -9.5 21.5t-22.5 10.5
q-12 0 -22 -10.5t-10 -21.5t10 -21.5t22 -10.5q13 0 22.5 10.5t9.5 21.5zM653 292q0 -20 -6 -42q-16 -53 -65 -85q-5 -3 -27 -12t-25.5 -9t-30 -3t-28.5 -3q-39 0 -80 13t-44 13q-21 0 -23 -26h-21v181h21q26 -116 100 -146q18 -8 22 -8h7q2 0 5 -1l3 -1h26q3 0 23 5
q55 15 55 78q0 16 -6 31q-10 25 -63 50q-28 13 -83 41q-27 14 -52 35q-51 43 -51 107q0 74 48 113q42 35 112 35q11 0 17 -1t20 -3.5t15 -2.5q5 0 30 -8.5t33 -8.5q13 0 18 7q2 2 6 18h23v-158h-21q-18 60 -55 97t-87 37q-2 0 -11.5 -1.5t-10.5 -1.5q-24 0 -45 -26
q-6 -8 -12 -31q1 -18 0 -25q3 -32 46 -55q47 -23 146 -74q22 -11 42 -41q19 -26 23 -44q6 -28 6 -44z" />
    <glyph glyph-name="T" unicode="T" 
d="M914 -1h-382q-2 8 -6 25q-4 14 -24 26.5t-33 12.5q-2 0 -11.5 -1t-11.5 -1t-15 -4t-25 -17t-14 -26q1 -7 -3 -15h-387v801h388q1 -8 4 -22q0 -2 10 -21q5 -9 24 -19q16 -8 26 -8q1 0 9.5 1t10 1t4.5 1t6.5 1t20.5 11q27 17 25 52q0 1 2 3h382v-801zM881 742
q0 11 -9.5 21.5t-22.5 10.5q-12 0 -22 -10.5t-10 -21.5q0 -9 7.5 -19.5t18.5 -10.5q1 0 3 -1t3 -1h4q3 1 5.5 1t9.5 5q13 10 13 26zM755 742q0 11 -10 21.5t-22 10.5t-22 -10.5t-10 -21.5q0 -9 7.5 -19.5t18.5 -10.5q1 0 3 -1t3 -1h4q3 1 5.5 1t9.5 5q13 9 13 26zM629 742
q0 11 -10 21.5t-22 10.5t-22 -10.5t-10 -21.5q0 -9 7.5 -19.5t18.5 -10.5q1 0 3 -1t3 -1h4q3 1 5.5 1t9.5 5q13 9 13 26zM350 742q0 11 -9.5 21.5t-22.5 10.5q-12 0 -22 -10.5t-10 -21.5q0 -12 9.5 -22t22.5 -10h4q3 1 4 1q8 0 18 13q6 7 6 18zM224 742q0 11 -9.5 21.5
t-22.5 10.5q-12 0 -22 -10.5t-10 -21.5q0 -12 9.5 -22t22.5 -10h4q3 1 4 1q8 0 18 13q6 7 6 18zM881 60q0 11 -9.5 21.5t-22.5 10.5q-12 0 -22 -10.5t-10 -21.5q0 -12 10 -22t22 -10q13 0 22.5 10t9.5 22zM903 118v562h-890v-562h890zM98 742q0 11 -9.5 21.5t-22.5 10.5
q-12 0 -22 -10.5t-10 -21.5q0 -12 10 -22t22 -10h4q3 1 4 1q8 0 18 13q6 7 6 18zM755 60q0 12 -9.5 22t-22.5 10q-12 0 -22 -10.5t-10 -21.5q0 -12 9.5 -22t22.5 -10q11 0 21.5 10t10.5 22zM629 60q0 12 -9.5 22t-22.5 10q-12 0 -22 -10.5t-10 -21.5q0 -12 9.5 -22t22.5 -10
q11 0 21.5 10t10.5 22zM350 63q0 12 -9.5 22t-22.5 10q-12 0 -22 -10.5t-10 -21.5t9.5 -21.5t22.5 -10.5q11 0 21.5 10t10.5 22zM224 63q0 12 -9.5 22t-22.5 10q-12 0 -22 -10.5t-10 -21.5t9.5 -21.5t22.5 -10.5q11 0 21.5 10t10.5 22zM98 63q0 11 -9.5 21.5t-22.5 10.5
q-12 0 -22 -10.5t-10 -21.5t10 -21.5t22 -10.5q13 0 22.5 10.5t9.5 21.5zM696 500h-20q-4 48 -31 82q-16 20 -41 29q-20 7 -40 10q-6 1 -14 2h-15v-401q0 -1 1 -9q1 -4 3.5 -11.5t13.5 -20.5q18 -10 49 -10q4 0 5 -1v-17h-260v19q39 0 54.5 12.5t15.5 43.5v392q-1 3 -13 3
q-4 -1 -13 -2t-10 -1q-39 0 -69 -32t-34 -74q-1 -5 -3 -13h-19v145h440v-146z" />
    <glyph glyph-name="U" unicode="U" horiz-adv-x="919" 
d="M921 -8h-385q-2 9 -6 26q-4 14 -24 26.5t-33 12.5q-2 0 -11.5 -1.5t-11.5 -1.5t-15 -3.5t-25.5 -16.5t-13.5 -27q0 -6 -3 -15h-390v807h390q1 -8 4 -22q0 -2 11 -21q5 -10 22.5 -18.5t27.5 -8.5q1 0 9.5 1t10 1t4.5 1t6.5 1t20.5 11q27 17 25 52q1 1 2 3h385v-807z
M888 740q0 12 -10 22.5t-22 10.5q-13 0 -22.5 -11t-9.5 -22q0 -9 7 -18q8 -12 18 -12q2 0 4 -1t3 -1t4 1h4q4 0 11 5q13 10 13 26zM762 740q0 12 -10.5 22.5t-22.5 10.5q-13 0 -22.5 -11t-9.5 -22q0 -9 7 -18q8 -12 18 -12q2 0 4 -1t3 -1q2 0 4 1h4q3 0 11 5q14 10 14 26z
M635 740q0 12 -10.5 22.5t-22.5 10.5q-13 0 -22.5 -11t-9.5 -22q0 -8 7.5 -19t18.5 -11q1 0 3 -1t3 -1q2 0 4 1h4q4 0 11 5q14 10 14 26zM354 740q0 12 -10 22.5t-23 10.5q-12 0 -22 -11t-10 -22t9.5 -21.5t22.5 -10.5q2 0 4 1h4q8 0 18 13q7 8 7 18zM227 740
q0 12 -9.5 22.5t-22.5 10.5t-23 -11t-10 -22t9.5 -21.5t23.5 -10.5q1 0 4 1h3q8 0 19 13q6 8 6 18zM888 54q0 11 -9.5 21.5t-22.5 10.5t-22.5 -10.5t-9.5 -21.5q0 -12 9.5 -22t22.5 -10q12 0 22 10t10 22zM910 112v567h-896v-567h896zM100 740q0 11 -9.5 22t-22.5 11
t-23 -11t-10 -22t10 -21.5t23 -10.5q1 0 4 1h4q7 0 18 13q6 8 6 18zM762 54q0 12 -10 22t-23 10t-22.5 -10.5t-9.5 -21.5q0 -12 9.5 -22t22.5 -10q11 0 22 10t11 22zM635 54q0 12 -10 22t-23 10t-22.5 -10.5t-9.5 -21.5q0 -12 9.5 -22t22.5 -10q11 0 22 10t11 22zM354 57
q0 12 -10 22.5t-23 10.5q-12 0 -22 -11t-10 -22t9.5 -21.5t22.5 -10.5q11 0 22 10t11 22zM227 57q0 12 -9.5 22.5t-22.5 10.5t-23 -11t-10 -22t9.5 -21.5t23.5 -10.5q10 0 21 10t11 22zM100 57q0 11 -9.5 22t-22.5 11t-23 -11t-10 -22t10 -21.5t23 -10.5q12 0 22 10t10 22z
M725 634q-36 -6 -46 -20t-10 -32v-268q0 -14 -8 -48q-12 -54 -43 -82q-24 -21 -67 -34q-37 -11 -69 -11q-76 0 -129 32q-60 36 -68 102q-3 20 -3 24v284q0 16 -7 30t-24 19q-15 2 -29 4v17h248v-17q-19 -2 -37 -4q-22 -5 -29 -26q-5 -14 -5 -28v-275q0 -40 16 -75
q6 -13 18 -24q23 -24 46 -24q1 0 13.5 -1t13.5 -1q131 0 131 148v244q0 66 -72 66v17h160v-17z" />
    <glyph glyph-name="V" unicode="V" horiz-adv-x="919" 
d="M921 -8h-385q-2 9 -6 26q-4 14 -24 26.5t-33 12.5q-2 0 -11.5 -1.5t-11.5 -1.5t-15 -3.5t-25.5 -16.5t-13.5 -27q0 -6 -3 -15h-390v807h390q1 -8 4 -22q0 -2 11 -21q5 -10 22.5 -18.5t27.5 -8.5q1 0 9.5 1t10 1t4.5 1t6.5 1t20.5 11q27 17 25 52q1 1 2 3h385v-807z
M888 740q0 12 -10 22.5t-22 10.5q-13 0 -22.5 -11t-9.5 -22q0 -9 7 -18q8 -12 18 -12q2 0 4 -1t3 -1t4 1h4q4 0 11 5q13 10 13 26zM762 740q0 12 -10.5 22.5t-22.5 10.5q-13 0 -22.5 -11t-9.5 -22q0 -9 7 -18q8 -12 18 -12q2 0 4 -1t3 -1q2 0 4 1h4q3 0 11 5q14 10 14 26z
M635 740q0 12 -10.5 22.5t-22.5 10.5q-13 0 -22.5 -11t-9.5 -22q0 -8 7.5 -19t18.5 -11q1 0 3 -1t3 -1q2 0 4 1h4q4 0 11 5q14 10 14 26zM354 740q0 12 -10 22.5t-23 10.5q-12 0 -22 -11t-10 -22t9.5 -21.5t22.5 -10.5q2 0 4 1h4q8 0 18 13q7 8 7 18zM227 740
q0 12 -9.5 22.5t-22.5 10.5t-23 -11t-10 -22t9.5 -21.5t23.5 -10.5q1 0 4 1h3q8 0 19 13q6 8 6 18zM888 54q0 11 -9.5 21.5t-22.5 10.5t-22.5 -10.5t-9.5 -21.5q0 -12 9.5 -22t22.5 -10q12 0 22 10t10 22zM910 112v567h-896v-567h896zM100 740q0 11 -9.5 22t-22.5 11
t-23 -11t-10 -22t10 -21.5t23 -10.5q1 0 4 1h4q7 0 18 13q6 8 6 18zM762 54q0 12 -10 22t-23 10t-22.5 -10.5t-9.5 -21.5q0 -12 9.5 -22t22.5 -10q11 0 22 10t11 22zM635 54q0 12 -10 22t-23 10t-22.5 -10.5t-9.5 -21.5q0 -12 9.5 -22t22.5 -10q11 0 22 10t11 22zM354 57
q0 12 -10 22.5t-23 10.5q-12 0 -22 -11t-10 -22t9.5 -21.5t22.5 -10.5q11 0 22 10t11 22zM227 57q0 12 -9.5 22.5t-22.5 10.5t-23 -11t-10 -22t9.5 -21.5t23.5 -10.5q10 0 21 10t11 22zM100 57q0 11 -9.5 22t-22.5 11t-23 -11t-10 -22t10 -21.5t23 -10.5q12 0 22 10t10 22z
M726 634q-2 0 -5.5 -1.5t-4.5 -1.5q-33 0 -57 -62q-53 -139 -167 -428h-20q-27 61 -69 161q-20 46 -57 132q-15 35 -50 117q-4 11 -13 32q-12 30 -27 40q-3 3 -34 11v17h247v-19q-36 -1 -42 -3q-21 -5 -21 -25q0 -13 13 -43q8 -18 16 -37q13 -31 38 -93q17 -41 51 -124
q62 155 106 274q2 7 2 18q0 24 -23 31l-40 4v17h157v-17z" />
    <glyph glyph-name="W" unicode="W" horiz-adv-x="919" 
d="M921 -8h-385q-2 9 -6 26q-4 14 -24 26.5t-33 12.5q-2 0 -11.5 -1.5t-11.5 -1.5t-15 -3.5t-25.5 -16.5t-13.5 -27q0 -6 -3 -15h-390v807h390q1 -8 4 -22q0 -2 11 -21q5 -10 22.5 -18.5t27.5 -8.5q1 0 9.5 1t10 1t4.5 1t6.5 1t20.5 11q27 17 25 52q1 1 2 3h385v-807z
M888 740q0 12 -10 22.5t-22 10.5q-13 0 -22.5 -11t-9.5 -22q0 -9 7 -18q8 -12 18 -12q2 0 4 -1t3 -1t4 1h4q4 0 11 5q13 10 13 26zM762 740q0 12 -10.5 22.5t-22.5 10.5q-13 0 -22.5 -11t-9.5 -22q0 -9 7 -18q8 -12 18 -12q2 0 4 -1t3 -1q2 0 4 1h4q3 0 11 5q14 10 14 26z
M635 740q0 12 -10.5 22.5t-22.5 10.5q-13 0 -22.5 -11t-9.5 -22q0 -8 7.5 -19t18.5 -11q1 0 3 -1t3 -1q2 0 4 1h4q4 0 11 5q14 10 14 26zM354 740q0 12 -10 22.5t-23 10.5q-12 0 -22 -11t-10 -22t9.5 -21.5t22.5 -10.5q2 0 4 1h4q8 0 18 13q7 8 7 18zM227 740
q0 12 -9.5 22.5t-22.5 10.5t-23 -11t-10 -22t9.5 -21.5t23.5 -10.5q1 0 4 1h3q8 0 19 13q6 8 6 18zM888 54q0 11 -9.5 21.5t-22.5 10.5t-22.5 -10.5t-9.5 -21.5q0 -12 9.5 -22t22.5 -10q12 0 22 10t10 22zM910 112v567h-896v-567h896zM100 740q0 11 -9.5 22t-22.5 11
t-23 -11t-10 -22t10 -21.5t23 -10.5q1 0 4 1h4q7 0 18 13q6 8 6 18zM762 54q0 12 -10 22t-23 10t-22.5 -10.5t-9.5 -21.5q0 -12 9.5 -22t22.5 -10q11 0 22 10t11 22zM635 54q0 12 -10 22t-23 10t-22.5 -10.5t-9.5 -21.5q0 -12 9.5 -22t22.5 -10q11 0 22 10t11 22zM354 57
q0 12 -10 22.5t-23 10.5q-12 0 -22 -11t-10 -22t9.5 -21.5t22.5 -10.5q11 0 22 10t11 22zM227 57q0 12 -9.5 22.5t-22.5 10.5t-23 -11t-10 -22t9.5 -21.5t23.5 -10.5q10 0 21 10t11 22zM100 57q0 11 -9.5 22t-22.5 11t-23 -11t-10 -22t10 -21.5t23 -10.5q12 0 22 10t10 22z
M815 634q-33 -4 -48 -39q-10 -29 -20 -59q-3 -11 -11 -35q-40 -119 -120 -358h-20l-123 344h-5l-134 -344h-21q-12 32 -35 98l-50 141q-6 19 -20 58q-5 13 -16.5 45.5t-33.5 96.5q-4 13 -15 35q-7 9 -17.5 12t-18.5 5v17h216v-17q-26 -4 -33 -7q-14 -6 -14 -25q0 -8 30 -102
l61 -185q1 -1 3 -2l86 224q0 1 -10 27q-5 16 -20 50q-10 18 -48 20v17h229v-19q-53 2 -53 -26q0 -12 89 -287q1 1 3 4q29 88 82 253q3 9 3 22q0 21 -11 27.5t-39 8.5v17h134v-17z" />
    <glyph glyph-name="X" unicode="X" 
d="M914 -1h-382q-2 8 -6 25q-4 14 -24 26.5t-33 12.5q-2 0 -11.5 -1t-11.5 -1t-15 -4t-25 -17t-14 -26q1 -7 -3 -15h-387v801h388q1 -8 4 -22q0 -2 10 -21q5 -9 24 -19q16 -8 26 -8q1 0 9.5 1t10 1t4.5 1t6.5 1t20.5 11q27 17 25 52q0 1 2 3h382v-801zM881 742
q0 11 -9.5 21.5t-22.5 10.5q-12 0 -22 -10.5t-10 -21.5q0 -9 7.5 -19.5t18.5 -10.5q1 0 3 -1t3 -1h4q3 1 5.5 1t9.5 5q13 10 13 26zM755 742q0 11 -10 21.5t-22 10.5t-22 -10.5t-10 -21.5q0 -9 7.5 -19.5t18.5 -10.5q1 0 3 -1t3 -1h4q3 1 5.5 1t9.5 5q13 9 13 26zM629 742
q0 11 -10 21.5t-22 10.5t-22 -10.5t-10 -21.5q0 -9 7.5 -19.5t18.5 -10.5q1 0 3 -1t3 -1h4q3 1 5.5 1t9.5 5q13 9 13 26zM350 742q0 11 -9.5 21.5t-22.5 10.5q-12 0 -22 -10.5t-10 -21.5q0 -12 9.5 -22t22.5 -10h4q3 1 4 1q8 0 18 13q6 7 6 18zM224 742q0 11 -9.5 21.5
t-22.5 10.5q-12 0 -22 -10.5t-10 -21.5q0 -12 9.5 -22t22.5 -10h4q3 1 4 1q8 0 18 13q6 7 6 18zM881 60q0 11 -9.5 21.5t-22.5 10.5q-12 0 -22 -10.5t-10 -21.5q0 -12 10 -22t22 -10q13 0 22.5 10t9.5 22zM903 118v562h-890v-562h890zM98 742q0 11 -9.5 21.5t-22.5 10.5
q-12 0 -22 -10.5t-10 -21.5q0 -12 10 -22t22 -10h4q3 1 4 1q8 0 18 13q6 7 6 18zM755 60q0 12 -9.5 22t-22.5 10q-12 0 -22 -10.5t-10 -21.5q0 -12 9.5 -22t22.5 -10q11 0 21.5 10t10.5 22zM629 60q0 12 -9.5 22t-22.5 10q-12 0 -22 -10.5t-10 -21.5q0 -12 9.5 -22t22.5 -10
q11 0 21.5 10t10.5 22zM350 63q0 12 -9.5 22t-22.5 10q-12 0 -22 -10.5t-10 -21.5t9.5 -21.5t22.5 -10.5q11 0 21.5 10t10.5 22zM224 63q0 12 -9.5 22t-22.5 10q-12 0 -22 -10.5t-10 -21.5t9.5 -21.5t22.5 -10.5q11 0 21.5 10t10.5 22zM98 63q0 11 -9.5 21.5t-22.5 10.5
q-12 0 -22 -10.5t-10 -21.5t10 -21.5t22 -10.5q13 0 22.5 10.5t9.5 21.5zM720 150h-248v17q18 2 35 3q23 4 23 20q0 15 -54 100q-10 17 -35 56q-32 -39 -53 -70l-26 -36q-17 -27 -17 -41q0 -7 1 -11q4 -8 14 -13q14 -5 20 -5t23 -3v-17h-182v17q29 5 45.5 14.5t31.5 29.5
q42 53 127 159q-17 24 -37 53q-33 50 -121 178q-5 7 -18 16q-9 7 -28 8v18h253v-18q-18 -1 -35 -2q-22 -4 -22 -22q0 -11 12.5 -29.5t23.5 -36.5q3 -5 45 -71q23 30 38 54l28 38q18 26 18 42q0 17 -15 22q-5 2 -30 5h-7v18h181v-18q-33 -3 -53 -15q-27 -17 -54 -53
q-87 -116 -87 -120q0 -2 51 -80q21 -33 61 -94q18 -30 37 -59q24 -33 54 -37v-17z" />
    <glyph glyph-name="Y" unicode="Y" 
d="M914 -1h-382q-2 8 -6 25q-4 14 -24 26.5t-33 12.5q-2 0 -11.5 -1t-11.5 -1t-15 -4t-25 -17t-14 -26q1 -7 -3 -15h-387v801h388q1 -8 4 -22q0 -2 10 -21q5 -9 24 -19q16 -8 26 -8q1 0 9.5 1t10 1t4.5 1t6.5 1t20.5 11q27 17 25 52q0 1 2 3h382v-801zM881 742
q0 11 -9.5 21.5t-22.5 10.5q-12 0 -22 -10.5t-10 -21.5q0 -9 7.5 -19.5t18.5 -10.5q1 0 3 -1t3 -1h4q3 1 5.5 1t9.5 5q13 10 13 26zM755 742q0 11 -10 21.5t-22 10.5t-22 -10.5t-10 -21.5q0 -9 7.5 -19.5t18.5 -10.5q1 0 3 -1t3 -1h4q3 1 5.5 1t9.5 5q13 9 13 26zM629 742
q0 11 -10 21.5t-22 10.5t-22 -10.5t-10 -21.5q0 -9 7.5 -19.5t18.5 -10.5q1 0 3 -1t3 -1h4q3 1 5.5 1t9.5 5q13 9 13 26zM350 742q0 11 -9.5 21.5t-22.5 10.5q-12 0 -22 -10.5t-10 -21.5q0 -12 9.5 -22t22.5 -10h4q3 1 4 1q8 0 18 13q6 7 6 18zM224 742q0 11 -9.5 21.5
t-22.5 10.5q-12 0 -22 -10.5t-10 -21.5q0 -12 9.5 -22t22.5 -10h4q3 1 4 1q8 0 18 13q6 7 6 18zM881 60q0 11 -9.5 21.5t-22.5 10.5q-12 0 -22 -10.5t-10 -21.5q0 -12 10 -22t22 -10q13 0 22.5 10t9.5 22zM903 118v562h-890v-562h890zM98 742q0 11 -9.5 21.5t-22.5 10.5
q-12 0 -22 -10.5t-10 -21.5q0 -12 10 -22t22 -10h4q3 1 4 1q8 0 18 13q6 7 6 18zM755 60q0 12 -9.5 22t-22.5 10q-12 0 -22 -10.5t-10 -21.5q0 -12 9.5 -22t22.5 -10q11 0 21.5 10t10.5 22zM629 60q0 12 -9.5 22t-22.5 10q-12 0 -22 -10.5t-10 -21.5q0 -12 9.5 -22t22.5 -10
q11 0 21.5 10t10.5 22zM350 63q0 12 -9.5 22t-22.5 10q-12 0 -22 -10.5t-10 -21.5t9.5 -21.5t22.5 -10.5q11 0 21.5 10t10.5 22zM224 63q0 12 -9.5 22t-22.5 10q-12 0 -22 -10.5t-10 -21.5t9.5 -21.5t22.5 -10.5q11 0 21.5 10t10.5 22zM98 63q0 11 -9.5 21.5t-22.5 10.5
q-12 0 -22 -10.5t-10 -21.5t10 -21.5t22 -10.5q13 0 22.5 10.5t9.5 21.5zM720 625q-35 -4 -53 -34q-14 -24 -43 -70q-94 -155 -94 -152v-147q0 -12 6.5 -28.5t27.5 -21.5q17 -3 34 -5v-17h-254v18q-1 0 14 0q2 0 5.5 1t5.5 1q43 2 43 50v122q-13 24 -38 68q-33 62 -104 187
q-3 6 -14 14q-16 13 -36 14v18h245v-19q-59 5 -59 -22q0 -8 3 -15q2 -3 102 -197q22 35 61 103l28 46q20 36 20 54q0 22 -22 28l-38 4v18h160v-18z" />
    <glyph glyph-name="Z" unicode="Z" 
d="M914 -1h-382q-2 8 -6 25q-4 14 -24 26.5t-33 12.5q-2 0 -11.5 -1t-11.5 -1t-15 -4t-25 -17t-14 -26q1 -7 -3 -15h-387v801h388q1 -8 4 -22q0 -2 10 -21q5 -9 24 -19q16 -8 26 -8q1 0 9.5 1t10 1t4.5 1t6.5 1t20.5 11q27 17 25 52q0 1 2 3h382v-801zM881 742
q0 11 -9.5 21.5t-22.5 10.5q-12 0 -22 -10.5t-10 -21.5q0 -9 7.5 -19.5t18.5 -10.5q1 0 3 -1t3 -1h4q3 1 5.5 1t9.5 5q13 10 13 26zM755 742q0 11 -10 21.5t-22 10.5t-22 -10.5t-10 -21.5q0 -9 7.5 -19.5t18.5 -10.5q1 0 3 -1t3 -1h4q3 1 5.5 1t9.5 5q13 9 13 26zM629 742
q0 11 -10 21.5t-22 10.5t-22 -10.5t-10 -21.5q0 -9 7.5 -19.5t18.5 -10.5q1 0 3 -1t3 -1h4q3 1 5.5 1t9.5 5q13 9 13 26zM350 742q0 11 -9.5 21.5t-22.5 10.5q-12 0 -22 -10.5t-10 -21.5q0 -12 9.5 -22t22.5 -10h4q3 1 4 1q8 0 18 13q6 7 6 18zM224 742q0 11 -9.5 21.5
t-22.5 10.5q-12 0 -22 -10.5t-10 -21.5q0 -12 9.5 -22t22.5 -10h4q3 1 4 1q8 0 18 13q6 7 6 18zM881 60q0 11 -9.5 21.5t-22.5 10.5q-12 0 -22 -10.5t-10 -21.5q0 -12 10 -22t22 -10q13 0 22.5 10t9.5 22zM903 118v562h-890v-562h890zM98 742q0 11 -9.5 21.5t-22.5 10.5
q-12 0 -22 -10.5t-10 -21.5q0 -12 10 -22t22 -10h4q3 1 4 1q8 0 18 13q6 7 6 18zM755 60q0 12 -9.5 22t-22.5 10q-12 0 -22 -10.5t-10 -21.5q0 -12 9.5 -22t22.5 -10q11 0 21.5 10t10.5 22zM629 60q0 12 -9.5 22t-22.5 10q-12 0 -22 -10.5t-10 -21.5q0 -12 9.5 -22t22.5 -10
q11 0 21.5 10t10.5 22zM350 63q0 12 -9.5 22t-22.5 10q-12 0 -22 -10.5t-10 -21.5t9.5 -21.5t22.5 -10.5q11 0 21.5 10t10.5 22zM224 63q0 12 -9.5 22t-22.5 10q-12 0 -22 -10.5t-10 -21.5t9.5 -21.5t22.5 -10.5q11 0 21.5 10t10.5 22zM98 63q0 11 -9.5 21.5t-22.5 10.5
q-12 0 -22 -10.5t-10 -21.5t10 -21.5t22 -10.5q13 0 22.5 10.5t9.5 21.5zM697 325l-19 -175h-425v10l279 456h-71q-14 -1 -44 -2q-2 -1 -8 -2l-6 -1l-21 -6q-54 -13 -86 -112h-21l16 150h383v-12l-276 -457h81q9 1 26 2q49 1 88 21q47 25 65 72q3 5 7 17t12 39h20z" />
    <glyph glyph-name="underscore" unicode="_" horiz-adv-x="900" 
d="M914 -1h-382q-2 8 -6 25q-4 14 -24 26.5t-33 12.5q-2 0 -11.5 -1t-11.5 -1t-15 -4t-25 -17t-14 -26q1 -7 -3 -15h-387v801h388q1 -8 4 -22q0 -2 10 -21q5 -9 24 -19q16 -8 26 -8q1 0 9.5 1t10 1t4.5 1t6.5 1t20.5 11q27 17 25 52q0 1 2 3h382v-801zM881 742
q0 11 -9.5 21.5t-22.5 10.5q-12 0 -22 -10.5t-10 -21.5q0 -9 7.5 -19.5t18.5 -10.5q1 0 3 -1t3 -1h4q3 1 5.5 1t9.5 5q13 10 13 26zM755 742q0 11 -10 21.5t-22 10.5t-22 -10.5t-10 -21.5q0 -9 7.5 -19.5t18.5 -10.5q1 0 3 -1t3 -1h4q3 1 5.5 1t9.5 5q13 9 13 26zM629 742
q0 11 -10 21.5t-22 10.5t-22 -10.5t-10 -21.5q0 -9 7.5 -19.5t18.5 -10.5q1 0 3 -1t3 -1h4q3 1 5.5 1t9.5 5q13 9 13 26zM350 742q0 11 -9.5 21.5t-22.5 10.5q-12 0 -22 -10.5t-10 -21.5q0 -12 9.5 -22t22.5 -10h4q3 1 4 1q8 0 18 13q6 7 6 18zM224 742q0 11 -9.5 21.5
t-22.5 10.5q-12 0 -22 -10.5t-10 -21.5q0 -12 9.5 -22t22.5 -10h4q3 1 4 1q8 0 18 13q6 7 6 18zM881 60q0 11 -9.5 21.5t-22.5 10.5q-12 0 -22 -10.5t-10 -21.5q0 -12 10 -22t22 -10q13 0 22.5 10t9.5 22zM903 118v562h-890v-562h890zM98 742q0 11 -9.5 21.5t-22.5 10.5
q-12 0 -22 -10.5t-10 -21.5q0 -12 10 -22t22 -10h4q3 1 4 1q8 0 18 13q6 7 6 18zM755 60q0 12 -9.5 22t-22.5 10q-12 0 -22 -10.5t-10 -21.5q0 -12 9.5 -22t22.5 -10q11 0 21.5 10t10.5 22zM629 60q0 12 -9.5 22t-22.5 10q-12 0 -22 -10.5t-10 -21.5q0 -12 9.5 -22t22.5 -10
q11 0 21.5 10t10.5 22zM350 63q0 12 -9.5 22t-22.5 10q-12 0 -22 -10.5t-10 -21.5t9.5 -21.5t22.5 -10.5q11 0 21.5 10t10.5 22zM224 63q0 12 -9.5 22t-22.5 10q-12 0 -22 -10.5t-10 -21.5t9.5 -21.5t22.5 -10.5q11 0 21.5 10t10.5 22zM98 63q0 11 -9.5 21.5t-22.5 10.5
q-12 0 -22 -10.5t-10 -21.5t10 -21.5t22 -10.5q13 0 22.5 10.5t9.5 21.5zM891 129h-867v540h867v-540zM856 411q0 51 -19 92q-25 53 -75 67q-22 7 -39 7h-126v-12q20 -2 25 -9q7 -10 7 -18v-263q0 -7 -7.5 -17t-15.5 -10q-11 0 -9 0v-13h125q15 0 40 8q94 35 94 168z
M584 565v13h-81v-13q14 0 24 -10.5t10 -22.5v-169l-132 215h-80v-13q5 0 30 -33q1 -2 1 -5l1 -247q0 -10 -7 -21q-4 -6 -26 -11v-13h86v13q-36 3 -36 35v216l170 -273h11v314q0 11 12 19q9 6 17 6zM308 340h-11q-28 -88 -99 -88q-23 0 -28 7t-5 12v130h13q5 0 14 -3
q19 -8 25 -28q9 -25 9 -46h11v171h-11q0 -23 -8.5 -45t-25.5 -27q-13 -4 -27 -4v126q0 15 30 15q41 0 57 -15q20 -18 28 -69h10v102h-221v-16l2 2q32 1 32 -31v-258q0 -10 -7 -18q-3 -3 -27 -9v-12h224zM789 405q0 -42 -7.5 -79.5t-25 -55t-37.5 -17.5h-11q-6 0 -11.5 6.5
t-5.5 12.5v275q0 13 24 13q45 0 63 -68q11 -39 11 -87z" />
    <glyph glyph-name="a" unicode="a" 
d="M914 -1h-382q-2 8 -6 25q-4 14 -24 26.5t-33 12.5q-2 0 -11.5 -1t-11.5 -1t-15 -4t-25 -17t-14 -26q1 -7 -3 -15h-387v801h388q1 -8 4 -22q0 -2 10 -21q5 -9 24 -19q16 -8 26 -8q1 0 9.5 1t10 1t4.5 1t6.5 1t20.5 11q27 17 25 52q0 1 2 3h382v-801zM881 742
q0 11 -9.5 21.5t-22.5 10.5q-12 0 -22 -10.5t-10 -21.5q0 -9 7.5 -19.5t18.5 -10.5q1 0 3 -1t3 -1h4q3 1 5.5 1t9.5 5q13 10 13 26zM755 742q0 11 -10 21.5t-22 10.5t-22 -10.5t-10 -21.5q0 -9 7.5 -19.5t18.5 -10.5q1 0 3 -1t3 -1h4q3 1 5.5 1t9.5 5q13 9 13 26zM629 742
q0 11 -10 21.5t-22 10.5t-22 -10.5t-10 -21.5q0 -9 7.5 -19.5t18.5 -10.5q1 0 3 -1t3 -1h4q3 1 5.5 1t9.5 5q13 9 13 26zM350 742q0 11 -9.5 21.5t-22.5 10.5q-12 0 -22 -10.5t-10 -21.5q0 -12 9.5 -22t22.5 -10h4q3 1 4 1q8 0 18 13q6 7 6 18zM224 742q0 11 -9.5 21.5
t-22.5 10.5q-12 0 -22 -10.5t-10 -21.5q0 -12 9.5 -22t22.5 -10h4q3 1 4 1q8 0 18 13q6 7 6 18zM881 60q0 11 -9.5 21.5t-22.5 10.5q-12 0 -22 -10.5t-10 -21.5q0 -12 10 -22t22 -10q13 0 22.5 10t9.5 22zM903 118v562h-890v-562h890zM98 742q0 11 -9.5 21.5t-22.5 10.5
q-12 0 -22 -10.5t-10 -21.5q0 -12 10 -22t22 -10h4q3 1 4 1q8 0 18 13q6 7 6 18zM755 60q0 12 -9.5 22t-22.5 10q-12 0 -22 -10.5t-10 -21.5q0 -12 9.5 -22t22.5 -10q11 0 21.5 10t10.5 22zM629 60q0 12 -9.5 22t-22.5 10q-12 0 -22 -10.5t-10 -21.5q0 -12 9.5 -22t22.5 -10
q11 0 21.5 10t10.5 22zM350 63q0 12 -9.5 22t-22.5 10q-12 0 -22 -10.5t-10 -21.5t9.5 -21.5t22.5 -10.5q11 0 21.5 10t10.5 22zM224 63q0 12 -9.5 22t-22.5 10q-12 0 -22 -10.5t-10 -21.5t9.5 -21.5t22.5 -10.5q11 0 21.5 10t10.5 22zM98 63q0 11 -9.5 21.5t-22.5 10.5
q-12 0 -22 -10.5t-10 -21.5t10 -21.5t22 -10.5q13 0 22.5 10.5t9.5 21.5zM891 129h-867v540h867v-540zM707 149v18q-13 -2 -24 5q-17 12 -31 41q-11 26 -22 51q-14 31 -40 92l-87 207q-13 31 -38 90h-21l-161 -398q-5 -12 -14 -33q-20 -52 -51 -52q-1 0 -4 -1.5t-4 -1.5v-19
h148v20q1 0 -22 0q-1 0 -3 1t-3 1q-8 0 -21 9q-10 6 -10 19q0 20 32 94h164q33 -82 33 -97q0 -21 -22 -25q-18 -1 -36 -3v-18h237zM483 322h-140l68 175z" />
    <glyph glyph-name="b" unicode="b" 
d="M914 -1h-382q-2 8 -6 25q-4 14 -24 26.5t-33 12.5q-2 0 -11.5 -1t-11.5 -1t-15 -4t-25 -17t-14 -26q1 -7 -3 -15h-387v801h388q1 -8 4 -22q0 -2 10 -21q5 -9 24 -19q16 -8 26 -8q1 0 9.5 1t10 1t4.5 1t6.5 1t20.5 11q27 17 25 52q0 1 2 3h382v-801zM881 742
q0 11 -9.5 21.5t-22.5 10.5q-12 0 -22 -10.5t-10 -21.5q0 -9 7.5 -19.5t18.5 -10.5q1 0 3 -1t3 -1h4q3 1 5.5 1t9.5 5q13 10 13 26zM755 742q0 11 -10 21.5t-22 10.5t-22 -10.5t-10 -21.5q0 -9 7.5 -19.5t18.5 -10.5q1 0 3 -1t3 -1h4q3 1 5.5 1t9.5 5q13 9 13 26zM629 742
q0 11 -10 21.5t-22 10.5t-22 -10.5t-10 -21.5q0 -9 7.5 -19.5t18.5 -10.5q1 0 3 -1t3 -1h4q3 1 5.5 1t9.5 5q13 9 13 26zM350 742q0 11 -9.5 21.5t-22.5 10.5q-12 0 -22 -10.5t-10 -21.5q0 -12 9.5 -22t22.5 -10h4q3 1 4 1q8 0 18 13q6 7 6 18zM224 742q0 11 -9.5 21.5
t-22.5 10.5q-12 0 -22 -10.5t-10 -21.5q0 -12 9.5 -22t22.5 -10h4q3 1 4 1q8 0 18 13q6 7 6 18zM881 60q0 11 -9.5 21.5t-22.5 10.5q-12 0 -22 -10.5t-10 -21.5q0 -12 10 -22t22 -10q13 0 22.5 10t9.5 22zM903 118v562h-890v-562h890zM98 742q0 11 -9.5 21.5t-22.5 10.5
q-12 0 -22 -10.5t-10 -21.5q0 -12 10 -22t22 -10h4q3 1 4 1q8 0 18 13q6 7 6 18zM755 60q0 12 -9.5 22t-22.5 10q-12 0 -22 -10.5t-10 -21.5q0 -12 9.5 -22t22.5 -10q11 0 21.5 10t10.5 22zM629 60q0 12 -9.5 22t-22.5 10q-12 0 -22 -10.5t-10 -21.5q0 -12 9.5 -22t22.5 -10
q11 0 21.5 10t10.5 22zM350 63q0 12 -9.5 22t-22.5 10q-12 0 -22 -10.5t-10 -21.5t9.5 -21.5t22.5 -10.5q11 0 21.5 10t10.5 22zM224 63q0 12 -9.5 22t-22.5 10q-12 0 -22 -10.5t-10 -21.5t9.5 -21.5t22.5 -10.5q11 0 21.5 10t10.5 22zM98 63q0 11 -9.5 21.5t-22.5 10.5
q-12 0 -22 -10.5t-10 -21.5t10 -21.5t22 -10.5q13 0 22.5 10.5t9.5 21.5zM891 129h-867v540h867v-540zM677 285q0 51 -38 85.5t-100 45.5h-1q8 3 12 4q102 26 102 106q0 63 -61 94q-45 22 -106 22h-250v-17q31 -2 44 -9q21 -11 21 -39v-363q0 -26 -18 -36q-11 -6 -47 -11
v-19h244q65 0 121 28q77 38 77 109zM530 508q0 -11 -4 -34q-5 -16 -14 -26q-22 -22 -46 -22q-2 0 -17.5 -2t-16.5 -2h-15v170q0 7 2 13q8 16 37 16q66 0 74 -75q-1 -1 0 -38zM551 282q0 -109 -89 -109q-35 0 -43 22q-2 7 -2 10v194h33q28 0 46 -10q9 -4 29 -22
q26 -29 26 -85z" />
    <glyph glyph-name="c" unicode="c" 
d="M914 -1h-382q-2 8 -6 25q-4 14 -24 26.5t-33 12.5q-2 0 -11.5 -1t-11.5 -1t-15 -4t-25 -17t-14 -26q1 -7 -3 -15h-387v801h388q1 -8 4 -22q0 -2 10 -21q5 -9 24 -19q16 -8 26 -8q1 0 9.5 1t10 1t4.5 1t6.5 1t20.5 11q27 17 25 52q0 1 2 3h382v-801zM881 742
q0 11 -9.5 21.5t-22.5 10.5q-12 0 -22 -10.5t-10 -21.5q0 -9 7.5 -19.5t18.5 -10.5q1 0 3 -1t3 -1h4q3 1 5.5 1t9.5 5q13 10 13 26zM755 742q0 11 -10 21.5t-22 10.5t-22 -10.5t-10 -21.5q0 -9 7.5 -19.5t18.5 -10.5q1 0 3 -1t3 -1h4q3 1 5.5 1t9.5 5q13 9 13 26zM629 742
q0 11 -10 21.5t-22 10.5t-22 -10.5t-10 -21.5q0 -9 7.5 -19.5t18.5 -10.5q1 0 3 -1t3 -1h4q3 1 5.5 1t9.5 5q13 9 13 26zM350 742q0 11 -9.5 21.5t-22.5 10.5q-12 0 -22 -10.5t-10 -21.5q0 -12 9.5 -22t22.5 -10h4q3 1 4 1q8 0 18 13q6 7 6 18zM224 742q0 11 -9.5 21.5
t-22.5 10.5q-12 0 -22 -10.5t-10 -21.5q0 -12 9.5 -22t22.5 -10h4q3 1 4 1q8 0 18 13q6 7 6 18zM881 60q0 11 -9.5 21.5t-22.5 10.5q-12 0 -22 -10.5t-10 -21.5q0 -12 10 -22t22 -10q13 0 22.5 10t9.5 22zM903 118v562h-890v-562h890zM98 742q0 11 -9.5 21.5t-22.5 10.5
q-12 0 -22 -10.5t-10 -21.5q0 -12 10 -22t22 -10h4q3 1 4 1q8 0 18 13q6 7 6 18zM755 60q0 12 -9.5 22t-22.5 10q-12 0 -22 -10.5t-10 -21.5q0 -12 9.5 -22t22.5 -10q11 0 21.5 10t10.5 22zM629 60q0 12 -9.5 22t-22.5 10q-12 0 -22 -10.5t-10 -21.5q0 -12 9.5 -22t22.5 -10
q11 0 21.5 10t10.5 22zM350 63q0 12 -9.5 22t-22.5 10q-12 0 -22 -10.5t-10 -21.5t9.5 -21.5t22.5 -10.5q11 0 21.5 10t10.5 22zM224 63q0 12 -9.5 22t-22.5 10q-12 0 -22 -10.5t-10 -21.5t9.5 -21.5t22.5 -10.5q11 0 21.5 10t10.5 22zM98 63q0 11 -9.5 21.5t-22.5 10.5
q-12 0 -22 -10.5t-10 -21.5t10 -21.5t22 -10.5q13 0 22.5 10.5t9.5 21.5zM891 129h-867v540h867v-540zM696 246v4q-13 11 -21 16q-72 -81 -152 -88q-2 0 -7 -1t-6 -1q-2 0 -11 1.5t-11 1.5q-18 0 -50 16q-45 22 -61 78q-14 47 -14 63l-4 66l2 38q2 77 28 128q34 68 105 68
q54 0 102 -44q43 -41 70 -105h17v172h-20q-11 -35 -32 -34l-98 32q-31 4 -46 4q-113 0 -185 -75.5t-72 -186.5q0 -47 17 -96q6 -18 18 -40q28 -51 82 -84q46 -27 95 -33q24 -3 16 -3q2 0 26 -1t26 -1q-6 0 22 3q87 9 164 102z" />
    <glyph glyph-name="d" unicode="d" 
d="M914 -1h-382q-2 8 -6 25q-4 14 -24 26.5t-33 12.5q-2 0 -11.5 -1t-11.5 -1t-15 -4t-25 -17t-14 -26q1 -7 -3 -15h-387v801h388q1 -8 4 -22q0 -2 10 -21q5 -9 24 -19q16 -8 26 -8q1 0 9.5 1t10 1t4.5 1t6.5 1t20.5 11q27 17 25 52q0 1 2 3h382v-801zM881 742
q0 11 -9.5 21.5t-22.5 10.5q-12 0 -22 -10.5t-10 -21.5q0 -9 7.5 -19.5t18.5 -10.5q1 0 3 -1t3 -1h4q3 1 5.5 1t9.5 5q13 10 13 26zM755 742q0 11 -10 21.5t-22 10.5t-22 -10.5t-10 -21.5q0 -9 7.5 -19.5t18.5 -10.5q1 0 3 -1t3 -1h4q3 1 5.5 1t9.5 5q13 9 13 26zM629 742
q0 11 -10 21.5t-22 10.5t-22 -10.5t-10 -21.5q0 -9 7.5 -19.5t18.5 -10.5q1 0 3 -1t3 -1h4q3 1 5.5 1t9.5 5q13 9 13 26zM350 742q0 11 -9.5 21.5t-22.5 10.5q-12 0 -22 -10.5t-10 -21.5q0 -12 9.5 -22t22.5 -10h4q3 1 4 1q8 0 18 13q6 7 6 18zM224 742q0 11 -9.5 21.5
t-22.5 10.5q-12 0 -22 -10.5t-10 -21.5q0 -12 9.5 -22t22.5 -10h4q3 1 4 1q8 0 18 13q6 7 6 18zM881 60q0 11 -9.5 21.5t-22.5 10.5q-12 0 -22 -10.5t-10 -21.5q0 -12 10 -22t22 -10q13 0 22.5 10t9.5 22zM903 118v562h-890v-562h890zM98 742q0 11 -9.5 21.5t-22.5 10.5
q-12 0 -22 -10.5t-10 -21.5q0 -12 10 -22t22 -10h4q3 1 4 1q8 0 18 13q6 7 6 18zM755 60q0 12 -9.5 22t-22.5 10q-12 0 -22 -10.5t-10 -21.5q0 -12 9.5 -22t22.5 -10q11 0 21.5 10t10.5 22zM629 60q0 12 -9.5 22t-22.5 10q-12 0 -22 -10.5t-10 -21.5q0 -12 9.5 -22t22.5 -10
q11 0 21.5 10t10.5 22zM350 63q0 12 -9.5 22t-22.5 10q-12 0 -22 -10.5t-10 -21.5t9.5 -21.5t22.5 -10.5q11 0 21.5 10t10.5 22zM224 63q0 12 -9.5 22t-22.5 10q-12 0 -22 -10.5t-10 -21.5t9.5 -21.5t22.5 -10.5q11 0 21.5 10t10.5 22zM98 63q0 11 -9.5 21.5t-22.5 10.5
q-12 0 -22 -10.5t-10 -21.5t10 -21.5t22 -10.5q13 0 22.5 10.5t9.5 21.5zM891 129h-867v540h867v-540zM709 409q0 75 -35 132q-42 69 -126 94q-52 15 -86 15h-247v-20q12 0 34 -4q10 -2 18 -13t8 -21v-378q0 -9 -8 -21q-13 -19 -52 -19v-19h237q2 0 14.5 1t13.5 1q5 0 53 11
l24 8q81 28 120 101q32 58 32 132zM581 367q0 -15 -6 -51q-23 -134 -137 -134q-24 0 -34 7t-10 22v393q0 21 45 21q78 0 115 -79q27 -57 27 -132v-47z" />
    <glyph glyph-name="e" unicode="e" 
d="M914 -1h-382q-2 8 -6 25q-4 14 -24 26.5t-33 12.5q-2 0 -11.5 -1t-11.5 -1t-15 -4t-25 -17t-14 -26q1 -7 -3 -15h-387v801h388q1 -8 4 -22q0 -2 10 -21q5 -9 24 -19q16 -8 26 -8q1 0 9.5 1t10 1t4.5 1t6.5 1t20.5 11q27 17 25 52q0 1 2 3h382v-801zM881 742
q0 11 -9.5 21.5t-22.5 10.5q-12 0 -22 -10.5t-10 -21.5q0 -9 7.5 -19.5t18.5 -10.5q1 0 3 -1t3 -1h4q3 1 5.5 1t9.5 5q13 10 13 26zM755 742q0 11 -10 21.5t-22 10.5t-22 -10.5t-10 -21.5q0 -9 7.5 -19.5t18.5 -10.5q1 0 3 -1t3 -1h4q3 1 5.5 1t9.5 5q13 9 13 26zM629 742
q0 11 -10 21.5t-22 10.5t-22 -10.5t-10 -21.5q0 -9 7.5 -19.5t18.5 -10.5q1 0 3 -1t3 -1h4q3 1 5.5 1t9.5 5q13 9 13 26zM350 742q0 11 -9.5 21.5t-22.5 10.5q-12 0 -22 -10.5t-10 -21.5q0 -12 9.5 -22t22.5 -10h4q3 1 4 1q8 0 18 13q6 7 6 18zM224 742q0 11 -9.5 21.5
t-22.5 10.5q-12 0 -22 -10.5t-10 -21.5q0 -12 9.5 -22t22.5 -10h4q3 1 4 1q8 0 18 13q6 7 6 18zM881 60q0 11 -9.5 21.5t-22.5 10.5q-12 0 -22 -10.5t-10 -21.5q0 -12 10 -22t22 -10q13 0 22.5 10t9.5 22zM903 118v562h-890v-562h890zM98 742q0 11 -9.5 21.5t-22.5 10.5
q-12 0 -22 -10.5t-10 -21.5q0 -12 10 -22t22 -10h4q3 1 4 1q8 0 18 13q6 7 6 18zM755 60q0 12 -9.5 22t-22.5 10q-12 0 -22 -10.5t-10 -21.5q0 -12 9.5 -22t22.5 -10q11 0 21.5 10t10.5 22zM629 60q0 12 -9.5 22t-22.5 10q-12 0 -22 -10.5t-10 -21.5q0 -12 9.5 -22t22.5 -10
q11 0 21.5 10t10.5 22zM350 63q0 12 -9.5 22t-22.5 10q-12 0 -22 -10.5t-10 -21.5t9.5 -21.5t22.5 -10.5q11 0 21.5 10t10.5 22zM224 63q0 12 -9.5 22t-22.5 10q-12 0 -22 -10.5t-10 -21.5t9.5 -21.5t22.5 -10.5q11 0 21.5 10t10.5 22zM98 63q0 11 -9.5 21.5t-22.5 10.5
q-12 0 -22 -10.5t-10 -21.5t10 -21.5t22 -10.5q13 0 22.5 10.5t9.5 21.5zM891 129h-867v540h867v-540zM694 304v4h-22q-50 -129 -190 -129q-29 0 -40 3q-23 8 -23 34v180h20q4 -1 12 -2.5t21 -4.5q52 -10 62 -82q1 -8 3 -25h20v249h-20q-1 -31 -13 -58q-17 -37 -48 -45
l-56 -8l-1 179q2 5 3 10q2 16 51 16q119 0 147 -58q9 -18 21 -64h8q7 0 10 1v146h-422v-19q50 2 60 -28q4 -11 4 -14v-373q0 -12 -10 -24.5t-25 -12.5q-2 0 -7.5 -1.5t-6.5 -1.5h-7q-5 -1 -7 -1l-2 1v-20h428l26 130q0 3 2 10t2 8z" />
    <glyph glyph-name="f" unicode="f" 
d="M914 -1h-382q-2 8 -6 25q-4 14 -24 26.5t-33 12.5q-2 0 -11.5 -1t-11.5 -1t-15 -4t-25 -17t-14 -26q1 -7 -3 -15h-387v801h388q1 -8 4 -22q0 -2 10 -21q5 -9 24 -19q16 -8 26 -8q1 0 9.5 1t10 1t4.5 1t6.5 1t20.5 11q27 17 25 52q0 1 2 3h382v-801zM881 742
q0 11 -9.5 21.5t-22.5 10.5q-12 0 -22 -10.5t-10 -21.5q0 -9 7.5 -19.5t18.5 -10.5q1 0 3 -1t3 -1h4q3 1 5.5 1t9.5 5q13 10 13 26zM755 742q0 11 -10 21.5t-22 10.5t-22 -10.5t-10 -21.5q0 -9 7.5 -19.5t18.5 -10.5q1 0 3 -1t3 -1h4q3 1 5.5 1t9.5 5q13 9 13 26zM629 742
q0 11 -10 21.5t-22 10.5t-22 -10.5t-10 -21.5q0 -9 7.5 -19.5t18.5 -10.5q1 0 3 -1t3 -1h4q3 1 5.5 1t9.5 5q13 9 13 26zM350 742q0 11 -9.5 21.5t-22.5 10.5q-12 0 -22 -10.5t-10 -21.5q0 -12 9.5 -22t22.5 -10h4q3 1 4 1q8 0 18 13q6 7 6 18zM224 742q0 11 -9.5 21.5
t-22.5 10.5q-12 0 -22 -10.5t-10 -21.5q0 -12 9.5 -22t22.5 -10h4q3 1 4 1q8 0 18 13q6 7 6 18zM881 60q0 11 -9.5 21.5t-22.5 10.5q-12 0 -22 -10.5t-10 -21.5q0 -12 10 -22t22 -10q13 0 22.5 10t9.5 22zM903 118v562h-890v-562h890zM98 742q0 11 -9.5 21.5t-22.5 10.5
q-12 0 -22 -10.5t-10 -21.5q0 -12 10 -22t22 -10h4q3 1 4 1q8 0 18 13q6 7 6 18zM755 60q0 12 -9.5 22t-22.5 10q-12 0 -22 -10.5t-10 -21.5q0 -12 9.5 -22t22.5 -10q11 0 21.5 10t10.5 22zM629 60q0 12 -9.5 22t-22.5 10q-12 0 -22 -10.5t-10 -21.5q0 -12 9.5 -22t22.5 -10
q11 0 21.5 10t10.5 22zM350 63q0 12 -9.5 22t-22.5 10q-12 0 -22 -10.5t-10 -21.5t9.5 -21.5t22.5 -10.5q11 0 21.5 10t10.5 22zM224 63q0 12 -9.5 22t-22.5 10q-12 0 -22 -10.5t-10 -21.5t9.5 -21.5t22.5 -10.5q11 0 21.5 10t10.5 22zM98 63q0 11 -9.5 21.5t-22.5 10.5
q-12 0 -22 -10.5t-10 -21.5t10 -21.5t22 -10.5q13 0 22.5 10.5t9.5 21.5zM891 129h-867v540h867v-540zM671 503v147h-415v-18q15 -2 30 -3q20 -4 27.5 -17t7.5 -23v-373q0 -12 -10 -24.5t-25 -12.5q-1 0 -6.5 -1.5t-7.5 -1.5h-6q-6 -1 -8 -1l-2 1v-20h264v18l-46 4
q-29 7 -33 33q-1 2 -2 6v179h17q4 -1 11 -2q64 -10 77 -73q2 -13 8 -39h18v249h-19q-9 -78 -51 -99q-20 -10 -35 -10h-11q-9 -1 -14 -1l-1 178q1 2 3 10q4 16 50 16q47 0 83 -10q46 -14 62 -56q3 -9 9 -24q3 -12 7 -32h18z" />
    <glyph glyph-name="g" unicode="g" 
d="M914 -1h-382q-2 8 -6 25q-4 14 -24 26.5t-33 12.5q-2 0 -11.5 -1t-11.5 -1t-15 -4t-25 -17t-14 -26q1 -7 -3 -15h-387v801h388q1 -8 4 -22q0 -2 10 -21q5 -9 24 -19q16 -8 26 -8q1 0 9.5 1t10 1t4.5 1t6.5 1t20.5 11q27 17 25 52q0 1 2 3h382v-801zM881 742
q0 11 -9.5 21.5t-22.5 10.5q-12 0 -22 -10.5t-10 -21.5q0 -9 7.5 -19.5t18.5 -10.5q1 0 3 -1t3 -1h4q3 1 5.5 1t9.5 5q13 10 13 26zM755 742q0 11 -10 21.5t-22 10.5t-22 -10.5t-10 -21.5q0 -9 7.5 -19.5t18.5 -10.5q1 0 3 -1t3 -1h4q3 1 5.5 1t9.5 5q13 9 13 26zM629 742
q0 11 -10 21.5t-22 10.5t-22 -10.5t-10 -21.5q0 -9 7.5 -19.5t18.5 -10.5q1 0 3 -1t3 -1h4q3 1 5.5 1t9.5 5q13 9 13 26zM350 742q0 11 -9.5 21.5t-22.5 10.5q-12 0 -22 -10.5t-10 -21.5q0 -12 9.5 -22t22.5 -10h4q3 1 4 1q8 0 18 13q6 7 6 18zM224 742q0 11 -9.5 21.5
t-22.5 10.5q-12 0 -22 -10.5t-10 -21.5q0 -12 9.5 -22t22.5 -10h4q3 1 4 1q8 0 18 13q6 7 6 18zM881 60q0 11 -9.5 21.5t-22.5 10.5q-12 0 -22 -10.5t-10 -21.5q0 -12 10 -22t22 -10q13 0 22.5 10t9.5 22zM903 118v562h-890v-562h890zM98 742q0 11 -9.5 21.5t-22.5 10.5
q-12 0 -22 -10.5t-10 -21.5q0 -12 10 -22t22 -10h4q3 1 4 1q8 0 18 13q6 7 6 18zM755 60q0 12 -9.5 22t-22.5 10q-12 0 -22 -10.5t-10 -21.5q0 -12 9.5 -22t22.5 -10q11 0 21.5 10t10.5 22zM629 60q0 12 -9.5 22t-22.5 10q-12 0 -22 -10.5t-10 -21.5q0 -12 9.5 -22t22.5 -10
q11 0 21.5 10t10.5 22zM350 63q0 12 -9.5 22t-22.5 10q-12 0 -22 -10.5t-10 -21.5t9.5 -21.5t22.5 -10.5q11 0 21.5 10t10.5 22zM224 63q0 12 -9.5 22t-22.5 10q-12 0 -22 -10.5t-10 -21.5t9.5 -21.5t22.5 -10.5q11 0 21.5 10t10.5 22zM98 63q0 11 -9.5 21.5t-22.5 10.5
q-12 0 -22 -10.5t-10 -21.5t10 -21.5t22 -10.5q13 0 22.5 10.5t9.5 21.5zM891 129h-867v540h867v-540zM736 346v19h-250v-18h6q42 -1 56 -13q9 -9 11 -25l1 -97q0 -12 -10 -25t-22 -16q-25 -5 -43 -5q-145 0 -145 234q0 236 136 236q66 0 117 -61q24 -29 45 -69q4 -8 7 -16
q2 -3 10 -3q7 0 10 1v171h-21q-6 -36 -32 -34l-88 29h-5q-2 0 -8 2t-8 3q-26 2 -34 2q-114 0 -186 -75.5t-72 -186.5q0 -108 67 -180q72 -78 195 -78q60 0 111 13q13 3 14.5 3t2 1t1.5 1q10 0 38.5 11.5t32.5 16.5v101q0 57 45 56q6 2 18 2z" />
    <glyph glyph-name="h" unicode="h" 
d="M914 -1h-382q-2 8 -6 25q-4 14 -24 26.5t-33 12.5q-2 0 -11.5 -1t-11.5 -1t-15 -4t-25 -17t-14 -26q1 -7 -3 -15h-387v801h388q1 -8 4 -22q0 -2 10 -21q5 -9 24 -19q16 -8 26 -8q1 0 9.5 1t10 1t4.5 1t6.5 1t20.5 11q27 17 25 52q0 1 2 3h382v-801zM881 742
q0 11 -9.5 21.5t-22.5 10.5q-12 0 -22 -10.5t-10 -21.5q0 -9 7.5 -19.5t18.5 -10.5q1 0 3 -1t3 -1h4q3 1 5.5 1t9.5 5q13 10 13 26zM755 742q0 11 -10 21.5t-22 10.5t-22 -10.5t-10 -21.5q0 -9 7.5 -19.5t18.5 -10.5q1 0 3 -1t3 -1h4q3 1 5.5 1t9.5 5q13 9 13 26zM629 742
q0 11 -10 21.5t-22 10.5t-22 -10.5t-10 -21.5q0 -9 7.5 -19.5t18.5 -10.5q1 0 3 -1t3 -1h4q3 1 5.5 1t9.5 5q13 9 13 26zM350 742q0 11 -9.5 21.5t-22.5 10.5q-12 0 -22 -10.5t-10 -21.5q0 -12 9.5 -22t22.5 -10h4q3 1 4 1q8 0 18 13q6 7 6 18zM224 742q0 11 -9.5 21.5
t-22.5 10.5q-12 0 -22 -10.5t-10 -21.5q0 -12 9.5 -22t22.5 -10h4q3 1 4 1q8 0 18 13q6 7 6 18zM881 60q0 11 -9.5 21.5t-22.5 10.5q-12 0 -22 -10.5t-10 -21.5q0 -12 10 -22t22 -10q13 0 22.5 10t9.5 22zM903 118v562h-890v-562h890zM98 742q0 11 -9.5 21.5t-22.5 10.5
q-12 0 -22 -10.5t-10 -21.5q0 -12 10 -22t22 -10h4q3 1 4 1q8 0 18 13q6 7 6 18zM755 60q0 12 -9.5 22t-22.5 10q-12 0 -22 -10.5t-10 -21.5q0 -12 9.5 -22t22.5 -10q11 0 21.5 10t10.5 22zM629 60q0 12 -9.5 22t-22.5 10q-12 0 -22 -10.5t-10 -21.5q0 -12 9.5 -22t22.5 -10
q11 0 21.5 10t10.5 22zM350 63q0 12 -9.5 22t-22.5 10q-12 0 -22 -10.5t-10 -21.5t9.5 -21.5t22.5 -10.5q11 0 21.5 10t10.5 22zM224 63q0 12 -9.5 22t-22.5 10q-12 0 -22 -10.5t-10 -21.5t9.5 -21.5t22.5 -10.5q11 0 21.5 10t10.5 22zM98 63q0 11 -9.5 21.5t-22.5 10.5
q-12 0 -22 -10.5t-10 -21.5t10 -21.5t22 -10.5q13 0 22.5 10.5t9.5 21.5zM891 129h-867v540h867v-540zM740 156v18q-11 2 -13 2q-15 0 -29 7q-17 8 -19.5 19.5l-2.5 11.5v378q0 15 12 25q16 14 52 14v19h-250v-18q66 0 66 -45v-159h-175v163q0 16 12 26q16 14 53 14v19h-246
v-19q46 -1 58 -27q4 -8 4 -15v-373q0 -9 -7.5 -20.5t-14.5 -13.5l-40 -8v-19h246v19q-45 4 -56 18q-9 11 -9 22v179h175v-175q0 -10 -8 -23t-20.5 -15l-37.5 -6v-18h250z" />
    <glyph glyph-name="i" unicode="i" 
d="M914 -1h-382q-2 8 -6 25q-4 14 -24 26.5t-33 12.5q-2 0 -11.5 -1t-11.5 -1t-15 -4t-25 -17t-14 -26q1 -7 -3 -15h-387v801h388q1 -8 4 -22q0 -2 10 -21q5 -9 24 -19q16 -8 26 -8q1 0 9.5 1t10 1t4.5 1t6.5 1t20.5 11q27 17 25 52q0 1 2 3h382v-801zM881 742
q0 11 -9.5 21.5t-22.5 10.5q-12 0 -22 -10.5t-10 -21.5q0 -9 7.5 -19.5t18.5 -10.5q1 0 3 -1t3 -1h4q3 1 5.5 1t9.5 5q13 10 13 26zM755 742q0 11 -10 21.5t-22 10.5t-22 -10.5t-10 -21.5q0 -9 7.5 -19.5t18.5 -10.5q1 0 3 -1t3 -1h4q3 1 5.5 1t9.5 5q13 9 13 26zM629 742
q0 11 -10 21.5t-22 10.5t-22 -10.5t-10 -21.5q0 -9 7.5 -19.5t18.5 -10.5q1 0 3 -1t3 -1h4q3 1 5.5 1t9.5 5q13 9 13 26zM350 742q0 11 -9.5 21.5t-22.5 10.5q-12 0 -22 -10.5t-10 -21.5q0 -12 9.5 -22t22.5 -10h4q3 1 4 1q8 0 18 13q6 7 6 18zM224 742q0 11 -9.5 21.5
t-22.5 10.5q-12 0 -22 -10.5t-10 -21.5q0 -12 9.5 -22t22.5 -10h4q3 1 4 1q8 0 18 13q6 7 6 18zM881 60q0 11 -9.5 21.5t-22.5 10.5q-12 0 -22 -10.5t-10 -21.5q0 -12 10 -22t22 -10q13 0 22.5 10t9.5 22zM903 118v562h-890v-562h890zM98 742q0 11 -9.5 21.5t-22.5 10.5
q-12 0 -22 -10.5t-10 -21.5q0 -12 10 -22t22 -10h4q3 1 4 1q8 0 18 13q6 7 6 18zM755 60q0 12 -9.5 22t-22.5 10q-12 0 -22 -10.5t-10 -21.5q0 -12 9.5 -22t22.5 -10q11 0 21.5 10t10.5 22zM629 60q0 12 -9.5 22t-22.5 10q-12 0 -22 -10.5t-10 -21.5q0 -12 9.5 -22t22.5 -10
q11 0 21.5 10t10.5 22zM350 63q0 12 -9.5 22t-22.5 10q-12 0 -22 -10.5t-10 -21.5t9.5 -21.5t22.5 -10.5q11 0 21.5 10t10.5 22zM224 63q0 12 -9.5 22t-22.5 10q-12 0 -22 -10.5t-10 -21.5t9.5 -21.5t22.5 -10.5q11 0 21.5 10t10.5 22zM98 63q0 11 -9.5 21.5t-22.5 10.5
q-12 0 -22 -10.5t-10 -21.5t10 -21.5t22 -10.5q13 0 22.5 10.5t9.5 21.5zM891 129h-867v540h867v-540zM598 155v19q-32 3 -37 4q-22 6 -29 24q-4 9 -4 18v365q0 52 70 45v20h-256v-19q17 1 39 -5q11 -3 19.5 -14t8.5 -20v-379q0 -18 -19 -28q-15 -9 -32 -9q-2 0 -7.5 -1
t-8.5 -1v-19h256z" />
    <glyph glyph-name="j" unicode="j" 
d="M914 -1h-382q-2 8 -6 25q-4 14 -24 26.5t-33 12.5q-2 0 -11.5 -1t-11.5 -1t-15 -4t-25 -17t-14 -26q1 -7 -3 -15h-387v801h388q1 -8 4 -22q0 -2 10 -21q5 -9 24 -19q16 -8 26 -8q1 0 9.5 1t10 1t4.5 1t6.5 1t20.5 11q27 17 25 52q0 1 2 3h382v-801zM881 742
q0 11 -9.5 21.5t-22.5 10.5q-12 0 -22 -10.5t-10 -21.5q0 -9 7.5 -19.5t18.5 -10.5q1 0 3 -1t3 -1h4q3 1 5.5 1t9.5 5q13 10 13 26zM755 742q0 11 -10 21.5t-22 10.5t-22 -10.5t-10 -21.5q0 -9 7.5 -19.5t18.5 -10.5q1 0 3 -1t3 -1h4q3 1 5.5 1t9.5 5q13 9 13 26zM629 742
q0 11 -10 21.5t-22 10.5t-22 -10.5t-10 -21.5q0 -9 7.5 -19.5t18.5 -10.5q1 0 3 -1t3 -1h4q3 1 5.5 1t9.5 5q13 9 13 26zM350 742q0 11 -9.5 21.5t-22.5 10.5q-12 0 -22 -10.5t-10 -21.5q0 -12 9.5 -22t22.5 -10h4q3 1 4 1q8 0 18 13q6 7 6 18zM224 742q0 11 -9.5 21.5
t-22.5 10.5q-12 0 -22 -10.5t-10 -21.5q0 -12 9.5 -22t22.5 -10h4q3 1 4 1q8 0 18 13q6 7 6 18zM881 60q0 11 -9.5 21.5t-22.5 10.5q-12 0 -22 -10.5t-10 -21.5q0 -12 10 -22t22 -10q13 0 22.5 10t9.5 22zM903 118v562h-890v-562h890zM98 742q0 11 -9.5 21.5t-22.5 10.5
q-12 0 -22 -10.5t-10 -21.5q0 -12 10 -22t22 -10h4q3 1 4 1q8 0 18 13q6 7 6 18zM755 60q0 12 -9.5 22t-22.5 10q-12 0 -22 -10.5t-10 -21.5q0 -12 9.5 -22t22.5 -10q11 0 21.5 10t10.5 22zM629 60q0 12 -9.5 22t-22.5 10q-12 0 -22 -10.5t-10 -21.5q0 -12 9.5 -22t22.5 -10
q11 0 21.5 10t10.5 22zM350 63q0 12 -9.5 22t-22.5 10q-12 0 -22 -10.5t-10 -21.5t9.5 -21.5t22.5 -10.5q11 0 21.5 10t10.5 22zM224 63q0 12 -9.5 22t-22.5 10q-12 0 -22 -10.5t-10 -21.5t9.5 -21.5t22.5 -10.5q11 0 21.5 10t10.5 22zM98 63q0 11 -9.5 21.5t-22.5 10.5
q-12 0 -22 -10.5t-10 -21.5t10 -21.5t22 -10.5q13 0 22.5 10.5t9.5 21.5zM891 129h-867v540h867v-540zM604 619v18h-217v-16q24 1 41 -5q21 -8 21 -33v-360q0 -43 -39 -43q-28 0 -28 19q0 7 5 13q8 11 9 13q3 6 3 14q0 18 -13 32t-32 14q-20 0 -32 -13.5t-12 -32.5
q0 -13 9 -31q23 -50 96 -50q39 0 72 15q44 21 54 63q9 36 9 42v300q0 33 23 39q6 1 19 3q11 1 12 -1z" />
    <glyph glyph-name="k" unicode="k" 
d="M914 -1h-382q-2 8 -6 25q-4 14 -24 26.5t-33 12.5q-2 0 -11.5 -1t-11.5 -1t-15 -4t-25 -17t-14 -26q1 -7 -3 -15h-387v801h388q1 -8 4 -22q0 -2 10 -21q5 -9 24 -19q16 -8 26 -8q1 0 9.5 1t10 1t4.5 1t6.5 1t20.5 11q27 17 25 52q0 1 2 3h382v-801zM881 742
q0 11 -9.5 21.5t-22.5 10.5q-12 0 -22 -10.5t-10 -21.5q0 -9 7.5 -19.5t18.5 -10.5q1 0 3 -1t3 -1h4q3 1 5.5 1t9.5 5q13 10 13 26zM755 742q0 11 -10 21.5t-22 10.5t-22 -10.5t-10 -21.5q0 -9 7.5 -19.5t18.5 -10.5q1 0 3 -1t3 -1h4q3 1 5.5 1t9.5 5q13 9 13 26zM629 742
q0 11 -10 21.5t-22 10.5t-22 -10.5t-10 -21.5q0 -9 7.5 -19.5t18.5 -10.5q1 0 3 -1t3 -1h4q3 1 5.5 1t9.5 5q13 9 13 26zM350 742q0 11 -9.5 21.5t-22.5 10.5q-12 0 -22 -10.5t-10 -21.5q0 -12 9.5 -22t22.5 -10h4q3 1 4 1q8 0 18 13q6 7 6 18zM224 742q0 11 -9.5 21.5
t-22.5 10.5q-12 0 -22 -10.5t-10 -21.5q0 -12 9.5 -22t22.5 -10h4q3 1 4 1q8 0 18 13q6 7 6 18zM881 60q0 11 -9.5 21.5t-22.5 10.5q-12 0 -22 -10.5t-10 -21.5q0 -12 10 -22t22 -10q13 0 22.5 10t9.5 22zM903 118v562h-890v-562h890zM98 742q0 11 -9.5 21.5t-22.5 10.5
q-12 0 -22 -10.5t-10 -21.5q0 -12 10 -22t22 -10h4q3 1 4 1q8 0 18 13q6 7 6 18zM755 60q0 12 -9.5 22t-22.5 10q-12 0 -22 -10.5t-10 -21.5q0 -12 9.5 -22t22.5 -10q11 0 21.5 10t10.5 22zM629 60q0 12 -9.5 22t-22.5 10q-12 0 -22 -10.5t-10 -21.5q0 -12 9.5 -22t22.5 -10
q11 0 21.5 10t10.5 22zM350 63q0 12 -9.5 22t-22.5 10q-12 0 -22 -10.5t-10 -21.5t9.5 -21.5t22.5 -10.5q11 0 21.5 10t10.5 22zM224 63q0 12 -9.5 22t-22.5 10q-12 0 -22 -10.5t-10 -21.5t9.5 -21.5t22.5 -10.5q11 0 21.5 10t10.5 22zM98 63q0 11 -9.5 21.5t-22.5 10.5
q-12 0 -22 -10.5t-10 -21.5t10 -21.5t22 -10.5q13 0 22.5 10.5t9.5 21.5zM891 129h-867v540h867v-540zM738 153v19q-8 0 -21 3q-8 4 -51 58l-56 70q-19 24 -52 64l-78 97q58 56 115 112q65 55 120 52v20h-211v-19q16 -1 33 -2q28 -4 28 -22q0 -9 -6 -17q-8 -11 -15 -18
q-55 -56 -162 -163l-1 168q2 17 5 24q5 14 16 21q8 5 21 7q21 2 23 3v18h-247v-19q22 -1 32 -4q19 -5 27 -22q4 -8 4 -16v-374q0 -7 -4 -16q-7 -15 -27 -20q-16 -3 -32 -5v-19h246v19q-10 2 -13 2h-8q-5 0 -18.5 5t-19 16t-5.5 18v154q11 11 19 18q51 -63 148 -187
q3 -3 3 -10q0 -16 -39 -16h-8.5h-11.5v-19h246z" />
    <glyph glyph-name="l" unicode="l" 
d="M914 -1h-382q-2 8 -6 25q-4 14 -24 26.5t-33 12.5q-2 0 -11.5 -1t-11.5 -1t-15 -4t-25 -17t-14 -26q1 -7 -3 -15h-387v801h388q1 -8 4 -22q0 -2 10 -21q5 -9 24 -19q16 -8 26 -8q1 0 9.5 1t10 1t4.5 1t6.5 1t20.5 11q27 17 25 52q0 1 2 3h382v-801zM881 742
q0 11 -9.5 21.5t-22.5 10.5q-12 0 -22 -10.5t-10 -21.5q0 -9 7.5 -19.5t18.5 -10.5q1 0 3 -1t3 -1h4q3 1 5.5 1t9.5 5q13 10 13 26zM755 742q0 11 -10 21.5t-22 10.5t-22 -10.5t-10 -21.5q0 -9 7.5 -19.5t18.5 -10.5q1 0 3 -1t3 -1h4q3 1 5.5 1t9.5 5q13 9 13 26zM629 742
q0 11 -10 21.5t-22 10.5t-22 -10.5t-10 -21.5q0 -9 7.5 -19.5t18.5 -10.5q1 0 3 -1t3 -1h4q3 1 5.5 1t9.5 5q13 9 13 26zM350 742q0 11 -9.5 21.5t-22.5 10.5q-12 0 -22 -10.5t-10 -21.5q0 -12 9.5 -22t22.5 -10h4q3 1 4 1q8 0 18 13q6 7 6 18zM224 742q0 11 -9.5 21.5
t-22.5 10.5q-12 0 -22 -10.5t-10 -21.5q0 -12 9.5 -22t22.5 -10h4q3 1 4 1q8 0 18 13q6 7 6 18zM881 60q0 11 -9.5 21.5t-22.5 10.5q-12 0 -22 -10.5t-10 -21.5q0 -12 10 -22t22 -10q13 0 22.5 10t9.5 22zM903 118v562h-890v-562h890zM98 742q0 11 -9.5 21.5t-22.5 10.5
q-12 0 -22 -10.5t-10 -21.5q0 -12 10 -22t22 -10h4q3 1 4 1q8 0 18 13q6 7 6 18zM755 60q0 12 -9.5 22t-22.5 10q-12 0 -22 -10.5t-10 -21.5q0 -12 9.5 -22t22.5 -10q11 0 21.5 10t10.5 22zM629 60q0 12 -9.5 22t-22.5 10q-12 0 -22 -10.5t-10 -21.5q0 -12 9.5 -22t22.5 -10
q11 0 21.5 10t10.5 22zM350 63q0 12 -9.5 22t-22.5 10q-12 0 -22 -10.5t-10 -21.5t9.5 -21.5t22.5 -10.5q11 0 21.5 10t10.5 22zM224 63q0 12 -9.5 22t-22.5 10q-12 0 -22 -10.5t-10 -21.5t9.5 -21.5t22.5 -10.5q11 0 21.5 10t10.5 22zM98 63q0 11 -9.5 21.5t-22.5 10.5
q-12 0 -22 -10.5t-10 -21.5t10 -21.5t22 -10.5q13 0 22.5 10.5t9.5 21.5zM891 129h-867v540h867v-540zM683 319h-21q-31 -80 -78 -114q-42 -29 -109 -29q-52 0 -59 19q-4 10 -4 13v368q0 30 17 42q10 7 26 9t31 3v18h-256v-18q9 0 41 -7q23 -8 23 -43v-359q0 -45 -64 -49
v-19h424z" />
    <glyph glyph-name="m" unicode="m" 
d="M914 -1h-382q-2 8 -6 25q-4 14 -24 26.5t-33 12.5q-2 0 -11.5 -1t-11.5 -1t-15 -4t-25 -17t-14 -26q1 -7 -3 -15h-387v801h388q1 -8 4 -22q0 -2 10 -21q5 -9 24 -19q16 -8 26 -8q1 0 9.5 1t10 1t4.5 1t6.5 1t20.5 11q27 17 25 52q0 1 2 3h382v-801zM881 742
q0 11 -9.5 21.5t-22.5 10.5q-12 0 -22 -10.5t-10 -21.5q0 -9 7.5 -19.5t18.5 -10.5q1 0 3 -1t3 -1h4q3 1 5.5 1t9.5 5q13 10 13 26zM755 742q0 11 -10 21.5t-22 10.5t-22 -10.5t-10 -21.5q0 -9 7.5 -19.5t18.5 -10.5q1 0 3 -1t3 -1h4q3 1 5.5 1t9.5 5q13 9 13 26zM629 742
q0 11 -10 21.5t-22 10.5t-22 -10.5t-10 -21.5q0 -9 7.5 -19.5t18.5 -10.5q1 0 3 -1t3 -1h4q3 1 5.5 1t9.5 5q13 9 13 26zM350 742q0 11 -9.5 21.5t-22.5 10.5q-12 0 -22 -10.5t-10 -21.5q0 -12 9.5 -22t22.5 -10h4q3 1 4 1q8 0 18 13q6 7 6 18zM224 742q0 11 -9.5 21.5
t-22.5 10.5q-12 0 -22 -10.5t-10 -21.5q0 -12 9.5 -22t22.5 -10h4q3 1 4 1q8 0 18 13q6 7 6 18zM881 60q0 11 -9.5 21.5t-22.5 10.5q-12 0 -22 -10.5t-10 -21.5q0 -12 10 -22t22 -10q13 0 22.5 10t9.5 22zM903 118v562h-890v-562h890zM98 742q0 11 -9.5 21.5t-22.5 10.5
q-12 0 -22 -10.5t-10 -21.5q0 -12 10 -22t22 -10h4q3 1 4 1q8 0 18 13q6 7 6 18zM755 60q0 12 -9.5 22t-22.5 10q-12 0 -22 -10.5t-10 -21.5q0 -12 9.5 -22t22.5 -10q11 0 21.5 10t10.5 22zM629 60q0 12 -9.5 22t-22.5 10q-12 0 -22 -10.5t-10 -21.5q0 -12 9.5 -22t22.5 -10
q11 0 21.5 10t10.5 22zM350 63q0 12 -9.5 22t-22.5 10q-12 0 -22 -10.5t-10 -21.5t9.5 -21.5t22.5 -10.5q11 0 21.5 10t10.5 22zM224 63q0 12 -9.5 22t-22.5 10q-12 0 -22 -10.5t-10 -21.5t9.5 -21.5t22.5 -10.5q11 0 21.5 10t10.5 22zM98 63q0 11 -9.5 21.5t-22.5 10.5
q-12 0 -22 -10.5t-10 -21.5t10 -21.5t22 -10.5q13 0 22.5 10.5t9.5 21.5zM891 129h-867v540h867v-540zM789 153v19l-28 4q-18 4 -27 15t-9 32v358q0 10 7 25q3 8 10 12q12 9 47 11v19h-184l-147 -343l-145 343h-186v-18q32 -5 33 -5q17 -4 24 -13t8 -23l1 -363q0 -17 -6 -30
q-5 -9 -13 -14q-13 -7 -25 -7h-4q-2 -1 -2.5 -1t-9.5 -2q-5 -1 -7 2v-21h171v19h-5.5h-4.5q-5 0 -29 6q-5 1 -14 6q-14 10 -18 28q-1 7 -3 20l1 352l184 -431h19l184 442v-374q1 -47 -48 -47q-1 0 -9 -2q-6 -1 -7 2v-21h242z" />
    <glyph glyph-name="n" unicode="n" 
d="M914 -1h-382q-2 8 -6 25q-4 14 -24 26.5t-33 12.5q-2 0 -11.5 -1t-11.5 -1t-15 -4t-25 -17t-14 -26q1 -7 -3 -15h-387v801h388q1 -8 4 -22q0 -2 10 -21q5 -9 24 -19q16 -8 26 -8q1 0 9.5 1t10 1t4.5 1t6.5 1t20.5 11q27 17 25 52q0 1 2 3h382v-801zM881 742
q0 11 -9.5 21.5t-22.5 10.5q-12 0 -22 -10.5t-10 -21.5q0 -9 7.5 -19.5t18.5 -10.5q1 0 3 -1t3 -1h4q3 1 5.5 1t9.5 5q13 10 13 26zM755 742q0 11 -10 21.5t-22 10.5t-22 -10.5t-10 -21.5q0 -9 7.5 -19.5t18.5 -10.5q1 0 3 -1t3 -1h4q3 1 5.5 1t9.5 5q13 9 13 26zM629 742
q0 11 -10 21.5t-22 10.5t-22 -10.5t-10 -21.5q0 -9 7.5 -19.5t18.5 -10.5q1 0 3 -1t3 -1h4q3 1 5.5 1t9.5 5q13 9 13 26zM350 742q0 11 -9.5 21.5t-22.5 10.5q-12 0 -22 -10.5t-10 -21.5q0 -12 9.5 -22t22.5 -10h4q3 1 4 1q8 0 18 13q6 7 6 18zM224 742q0 11 -9.5 21.5
t-22.5 10.5q-12 0 -22 -10.5t-10 -21.5q0 -12 9.5 -22t22.5 -10h4q3 1 4 1q8 0 18 13q6 7 6 18zM881 60q0 11 -9.5 21.5t-22.5 10.5q-12 0 -22 -10.5t-10 -21.5q0 -12 10 -22t22 -10q13 0 22.5 10t9.5 22zM903 118v562h-890v-562h890zM98 742q0 11 -9.5 21.5t-22.5 10.5
q-12 0 -22 -10.5t-10 -21.5q0 -12 10 -22t22 -10h4q3 1 4 1q8 0 18 13q6 7 6 18zM755 60q0 12 -9.5 22t-22.5 10q-12 0 -22 -10.5t-10 -21.5q0 -12 9.5 -22t22.5 -10q11 0 21.5 10t10.5 22zM629 60q0 12 -9.5 22t-22.5 10q-12 0 -22 -10.5t-10 -21.5q0 -12 9.5 -22t22.5 -10
q11 0 21.5 10t10.5 22zM350 63q0 12 -9.5 22t-22.5 10q-12 0 -22 -10.5t-10 -21.5t9.5 -21.5t22.5 -10.5q11 0 21.5 10t10.5 22zM224 63q0 12 -9.5 22t-22.5 10q-12 0 -22 -10.5t-10 -21.5t9.5 -21.5t22.5 -10.5q11 0 21.5 10t10.5 22zM98 63q0 11 -9.5 21.5t-22.5 10.5
q-12 0 -22 -10.5t-10 -21.5t10 -21.5t22 -10.5q13 0 22.5 10.5t9.5 21.5zM891 129h-867v540h867v-540zM709 626v22h-157v-19q22 0 41 -9q23 -13 25 -35q1 -2 1 -8v-241l-253 312h-156v-18q16 -3 29 -16.5t23.5 -25t10.5 -12.5v-352q0 -49 -65 -52v-19h166v19h-2.5h-3.5
q-6 0 -27 6q-36 10 -37 63v295l327 -396h21v434q0 34 18 44q15 9 25 9q14 0 14 -1z" />
    <glyph glyph-name="o" unicode="o" 
d="M914 -1h-382q-2 8 -6 25q-4 14 -24 26.5t-33 12.5q-2 0 -11.5 -1t-11.5 -1t-15 -4t-25 -17t-14 -26q1 -7 -3 -15h-387v801h388q1 -8 4 -22q0 -2 10 -21q5 -9 24 -19q16 -8 26 -8q1 0 9.5 1t10 1t4.5 1t6.5 1t20.5 11q27 17 25 52q0 1 2 3h382v-801zM881 742
q0 11 -9.5 21.5t-22.5 10.5q-12 0 -22 -10.5t-10 -21.5q0 -9 7.5 -19.5t18.5 -10.5q1 0 3 -1t3 -1h4q3 1 5.5 1t9.5 5q13 10 13 26zM755 742q0 11 -10 21.5t-22 10.5t-22 -10.5t-10 -21.5q0 -9 7.5 -19.5t18.5 -10.5q1 0 3 -1t3 -1h4q3 1 5.5 1t9.5 5q13 9 13 26zM629 742
q0 11 -10 21.5t-22 10.5t-22 -10.5t-10 -21.5q0 -9 7.5 -19.5t18.5 -10.5q1 0 3 -1t3 -1h4q3 1 5.5 1t9.5 5q13 9 13 26zM350 742q0 11 -9.5 21.5t-22.5 10.5q-12 0 -22 -10.5t-10 -21.5q0 -12 9.5 -22t22.5 -10h4q3 1 4 1q8 0 18 13q6 7 6 18zM224 742q0 11 -9.5 21.5
t-22.5 10.5q-12 0 -22 -10.5t-10 -21.5q0 -12 9.5 -22t22.5 -10h4q3 1 4 1q8 0 18 13q6 7 6 18zM881 60q0 11 -9.5 21.5t-22.5 10.5q-12 0 -22 -10.5t-10 -21.5q0 -12 10 -22t22 -10q13 0 22.5 10t9.5 22zM903 118v562h-890v-562h890zM98 742q0 11 -9.5 21.5t-22.5 10.5
q-12 0 -22 -10.5t-10 -21.5q0 -12 10 -22t22 -10h4q3 1 4 1q8 0 18 13q6 7 6 18zM755 60q0 12 -9.5 22t-22.5 10q-12 0 -22 -10.5t-10 -21.5q0 -12 9.5 -22t22.5 -10q11 0 21.5 10t10.5 22zM629 60q0 12 -9.5 22t-22.5 10q-12 0 -22 -10.5t-10 -21.5q0 -12 9.5 -22t22.5 -10
q11 0 21.5 10t10.5 22zM350 63q0 12 -9.5 22t-22.5 10q-12 0 -22 -10.5t-10 -21.5t9.5 -21.5t22.5 -10.5q11 0 21.5 10t10.5 22zM224 63q0 12 -9.5 22t-22.5 10q-12 0 -22 -10.5t-10 -21.5t9.5 -21.5t22.5 -10.5q11 0 21.5 10t10.5 22zM98 63q0 11 -9.5 21.5t-22.5 10.5
q-12 0 -22 -10.5t-10 -21.5t10 -21.5t22 -10.5q13 0 22.5 10.5t9.5 21.5zM891 129h-867v540h867v-540zM705 402q0 41 -11 78q-3 9 -9 26q-12 36 -50.5 73.5t-74.5 50t-38 12.5t-14 3t-17 3q-16 2 -33 2q-108 0 -177.5 -70.5t-69.5 -177.5q0 -28 6 -60q11 -61 56.5 -110.5
t105.5 -65.5l28 -8h8q1 0 8 -1.5t9 -1.5h30q22 1 18 1q2 0 10.5 1t10.5 1h7q2 0 6.5 1.5t5.5 1.5q-2 0 30 9q50 15 91 61q40 43 53 93q2 8 6 23q5 29 5 55zM581 400q0 -223 -123 -223h-9q-1 0 -4 1t-4 1q-25 1 -52 26q-22 21 -30 43q-24 64 -24 152q0 78 18 134
q30 92 105 92t105 -92q18 -55 18 -134z" />
    <glyph glyph-name="p" unicode="p" 
d="M914 -1h-382q-2 8 -6 25q-4 14 -24 26.5t-33 12.5q-2 0 -11.5 -1t-11.5 -1t-15 -4t-25 -17t-14 -26q1 -7 -3 -15h-387v801h388q1 -8 4 -22q0 -2 10 -21q5 -9 24 -19q16 -8 26 -8q1 0 9.5 1t10 1t4.5 1t6.5 1t20.5 11q27 17 25 52q0 1 2 3h382v-801zM881 742
q0 11 -9.5 21.5t-22.5 10.5q-12 0 -22 -10.5t-10 -21.5q0 -9 7.5 -19.5t18.5 -10.5q1 0 3 -1t3 -1h4q3 1 5.5 1t9.5 5q13 10 13 26zM755 742q0 11 -10 21.5t-22 10.5t-22 -10.5t-10 -21.5q0 -9 7.5 -19.5t18.5 -10.5q1 0 3 -1t3 -1h4q3 1 5.5 1t9.5 5q13 9 13 26zM629 742
q0 11 -10 21.5t-22 10.5t-22 -10.5t-10 -21.5q0 -9 7.5 -19.5t18.5 -10.5q1 0 3 -1t3 -1h4q3 1 5.5 1t9.5 5q13 9 13 26zM350 742q0 11 -9.5 21.5t-22.5 10.5q-12 0 -22 -10.5t-10 -21.5q0 -12 9.5 -22t22.5 -10h4q3 1 4 1q8 0 18 13q6 7 6 18zM224 742q0 11 -9.5 21.5
t-22.5 10.5q-12 0 -22 -10.5t-10 -21.5q0 -12 9.5 -22t22.5 -10h4q3 1 4 1q8 0 18 13q6 7 6 18zM881 60q0 11 -9.5 21.5t-22.5 10.5q-12 0 -22 -10.5t-10 -21.5q0 -12 10 -22t22 -10q13 0 22.5 10t9.5 22zM903 118v562h-890v-562h890zM98 742q0 11 -9.5 21.5t-22.5 10.5
q-12 0 -22 -10.5t-10 -21.5q0 -12 10 -22t22 -10h4q3 1 4 1q8 0 18 13q6 7 6 18zM755 60q0 12 -9.5 22t-22.5 10q-12 0 -22 -10.5t-10 -21.5q0 -12 9.5 -22t22.5 -10q11 0 21.5 10t10.5 22zM629 60q0 12 -9.5 22t-22.5 10q-12 0 -22 -10.5t-10 -21.5q0 -12 9.5 -22t22.5 -10
q11 0 21.5 10t10.5 22zM350 63q0 12 -9.5 22t-22.5 10q-12 0 -22 -10.5t-10 -21.5t9.5 -21.5t22.5 -10.5q11 0 21.5 10t10.5 22zM224 63q0 12 -9.5 22t-22.5 10q-12 0 -22 -10.5t-10 -21.5t9.5 -21.5t22.5 -10.5q11 0 21.5 10t10.5 22zM98 63q0 11 -9.5 21.5t-22.5 10.5
q-12 0 -22 -10.5t-10 -21.5t10 -21.5t22 -10.5q13 0 22.5 10.5t9.5 21.5zM891 129h-867v540h867v-540zM678 513q0 36 -15 62q-9 15 -31 35q-16 14 -55.5 26t-68.5 12h-259v-18q15 -2 38 -7q24 -8 24 -46v-353q0 -10 -5 -23q-7 -18 -17.5 -21t-39.5 -8v-19h245v19
q-17 2 -35.5 5.5t-22.5 17.5q-3 11 -6 25v154q1 0 3 2h71h7q6 1 8 1q67 3 111 39q48 38 48 97zM551 531q-1 -45 0 -46q-3 -16 -14 -48q-10 -17 -27 -25q-25 -12 -65 -12h-15v201q0 21 37 21q76 0 84 -91z" />
    <glyph glyph-name="q" unicode="q" 
d="M914 -1h-382q-2 8 -6 25q-4 14 -24 26.5t-33 12.5q-2 0 -11.5 -1t-11.5 -1t-15 -4t-25 -17t-14 -26q1 -7 -3 -15h-387v801h388q1 -8 4 -22q0 -2 10 -21q5 -9 24 -19q16 -8 26 -8q1 0 9.5 1t10 1t4.5 1t6.5 1t20.5 11q27 17 25 52q0 1 2 3h382v-801zM881 742
q0 11 -9.5 21.5t-22.5 10.5q-12 0 -22 -10.5t-10 -21.5q0 -9 7.5 -19.5t18.5 -10.5q1 0 3 -1t3 -1h4q3 1 5.5 1t9.5 5q13 10 13 26zM755 742q0 11 -10 21.5t-22 10.5t-22 -10.5t-10 -21.5q0 -9 7.5 -19.5t18.5 -10.5q1 0 3 -1t3 -1h4q3 1 5.5 1t9.5 5q13 9 13 26zM629 742
q0 11 -10 21.5t-22 10.5t-22 -10.5t-10 -21.5q0 -9 7.5 -19.5t18.5 -10.5q1 0 3 -1t3 -1h4q3 1 5.5 1t9.5 5q13 9 13 26zM350 742q0 11 -9.5 21.5t-22.5 10.5q-12 0 -22 -10.5t-10 -21.5q0 -12 9.5 -22t22.5 -10h4q3 1 4 1q8 0 18 13q6 7 6 18zM224 742q0 11 -9.5 21.5
t-22.5 10.5q-12 0 -22 -10.5t-10 -21.5q0 -12 9.5 -22t22.5 -10h4q3 1 4 1q8 0 18 13q6 7 6 18zM881 60q0 11 -9.5 21.5t-22.5 10.5q-12 0 -22 -10.5t-10 -21.5q0 -12 10 -22t22 -10q13 0 22.5 10t9.5 22zM903 118v562h-890v-562h890zM98 742q0 11 -9.5 21.5t-22.5 10.5
q-12 0 -22 -10.5t-10 -21.5q0 -12 10 -22t22 -10h4q3 1 4 1q8 0 18 13q6 7 6 18zM755 60q0 12 -9.5 22t-22.5 10q-12 0 -22 -10.5t-10 -21.5q0 -12 9.5 -22t22.5 -10q11 0 21.5 10t10.5 22zM629 60q0 12 -9.5 22t-22.5 10q-12 0 -22 -10.5t-10 -21.5q0 -12 9.5 -22t22.5 -10
q11 0 21.5 10t10.5 22zM350 63q0 12 -9.5 22t-22.5 10q-12 0 -22 -10.5t-10 -21.5t9.5 -21.5t22.5 -10.5q11 0 21.5 10t10.5 22zM224 63q0 12 -9.5 22t-22.5 10q-12 0 -22 -10.5t-10 -21.5t9.5 -21.5t22.5 -10.5q11 0 21.5 10t10.5 22zM98 63q0 11 -9.5 21.5t-22.5 10.5
q-12 0 -22 -10.5t-10 -21.5t10 -21.5t22 -10.5q13 0 22.5 10.5t9.5 21.5zM891 129h-867v540h867v-540zM656 446q0 57 -27 106q-33 58 -94 79q-6 3 -16 6q-29 8 -43 8q-49 0 -72 -6q-75 -19 -114 -81q-32 -51 -32 -117q0 -104 83 -162q13 -9 31 -17q7 -2 18 -6q4 -8 11 -21
q12 -20 34 -39q1 -1 20.5 -13.5t39.5 -17.5q30 -7 34 -7h11q10 -1 11 -1q44 0 101 20v3q0 7 -5 11q-25 -7 -36 -7q-30 0 -56 18q-29 20 -40 51q73 21 110 79q31 49 31 114zM556 444q0 -48 -8 -89q-7 -31 -25 -56q-23 -33 -53 -33h-6q-5 -1 -7 -1q-99 0 -99 179q0 182 99 182
q60 0 84 -74q15 -45 15 -108z" />
    <glyph glyph-name="r" unicode="r" 
d="M914 -1h-382q-2 8 -6 25q-4 14 -24 26.5t-33 12.5q-2 0 -11.5 -1t-11.5 -1t-15 -4t-25 -17t-14 -26q1 -7 -3 -15h-387v801h388q1 -8 4 -22q0 -2 10 -21q5 -9 24 -19q16 -8 26 -8q1 0 9.5 1t10 1t4.5 1t6.5 1t20.5 11q27 17 25 52q0 1 2 3h382v-801zM881 742
q0 11 -9.5 21.5t-22.5 10.5q-12 0 -22 -10.5t-10 -21.5q0 -9 7.5 -19.5t18.5 -10.5q1 0 3 -1t3 -1h4q3 1 5.5 1t9.5 5q13 10 13 26zM755 742q0 11 -10 21.5t-22 10.5t-22 -10.5t-10 -21.5q0 -9 7.5 -19.5t18.5 -10.5q1 0 3 -1t3 -1h4q3 1 5.5 1t9.5 5q13 9 13 26zM629 742
q0 11 -10 21.5t-22 10.5t-22 -10.5t-10 -21.5q0 -9 7.5 -19.5t18.5 -10.5q1 0 3 -1t3 -1h4q3 1 5.5 1t9.5 5q13 9 13 26zM350 742q0 11 -9.5 21.5t-22.5 10.5q-12 0 -22 -10.5t-10 -21.5q0 -12 9.5 -22t22.5 -10h4q3 1 4 1q8 0 18 13q6 7 6 18zM224 742q0 11 -9.5 21.5
t-22.5 10.5q-12 0 -22 -10.5t-10 -21.5q0 -12 9.5 -22t22.5 -10h4q3 1 4 1q8 0 18 13q6 7 6 18zM881 60q0 11 -9.5 21.5t-22.5 10.5q-12 0 -22 -10.5t-10 -21.5q0 -12 10 -22t22 -10q13 0 22.5 10t9.5 22zM903 118v562h-890v-562h890zM98 742q0 11 -9.5 21.5t-22.5 10.5
q-12 0 -22 -10.5t-10 -21.5q0 -12 10 -22t22 -10h4q3 1 4 1q8 0 18 13q6 7 6 18zM755 60q0 12 -9.5 22t-22.5 10q-12 0 -22 -10.5t-10 -21.5q0 -12 9.5 -22t22.5 -10q11 0 21.5 10t10.5 22zM629 60q0 12 -9.5 22t-22.5 10q-12 0 -22 -10.5t-10 -21.5q0 -12 9.5 -22t22.5 -10
q11 0 21.5 10t10.5 22zM350 63q0 12 -9.5 22t-22.5 10q-12 0 -22 -10.5t-10 -21.5t9.5 -21.5t22.5 -10.5q11 0 21.5 10t10.5 22zM224 63q0 12 -9.5 22t-22.5 10q-12 0 -22 -10.5t-10 -21.5t9.5 -21.5t22.5 -10.5q11 0 21.5 10t10.5 22zM98 63q0 11 -9.5 21.5t-22.5 10.5
q-12 0 -22 -10.5t-10 -21.5t10 -21.5t22 -10.5q13 0 22.5 10.5t9.5 21.5zM891 129h-867v540h867v-540zM724 154v19h-4q-3 1 -4 1q-13 0 -22 13q-6 9 -147 208q115 33 115 124q0 84 -89 113q-33 11 -48 11q-1 0 -21 3t-21 3h-263v-19q54 1 60 -30q4 -18 4 -20v-358
q0 -44 -64 -49v-19h247v19q-28 4 -37 7q-21 8 -24 26q-1 6 -3 14v163h19l153 -229h149zM537 527q0 1 0 -6q-1 -8 -2 -23.5t-9 -46.5q-17 -43 -98 -43h-25v188q0 5 8 20q7 8 36 8q19 0 42.5 -7t37.5 -39q10 -26 10 -51z" />
    <glyph glyph-name="s" unicode="s" 
d="M914 -1h-382q-2 8 -6 25q-4 14 -24 26.5t-33 12.5q-2 0 -11.5 -1t-11.5 -1t-15 -4t-25 -17t-14 -26q1 -7 -3 -15h-387v801h388q1 -8 4 -22q0 -2 10 -21q5 -9 24 -19q16 -8 26 -8q1 0 9.5 1t10 1t4.5 1t6.5 1t20.5 11q27 17 25 52q0 1 2 3h382v-801zM881 742
q0 11 -9.5 21.5t-22.5 10.5q-12 0 -22 -10.5t-10 -21.5q0 -9 7.5 -19.5t18.5 -10.5q1 0 3 -1t3 -1h4q3 1 5.5 1t9.5 5q13 10 13 26zM755 742q0 11 -10 21.5t-22 10.5t-22 -10.5t-10 -21.5q0 -9 7.5 -19.5t18.5 -10.5q1 0 3 -1t3 -1h4q3 1 5.5 1t9.5 5q13 9 13 26zM629 742
q0 11 -10 21.5t-22 10.5t-22 -10.5t-10 -21.5q0 -9 7.5 -19.5t18.5 -10.5q1 0 3 -1t3 -1h4q3 1 5.5 1t9.5 5q13 9 13 26zM350 742q0 11 -9.5 21.5t-22.5 10.5q-12 0 -22 -10.5t-10 -21.5q0 -12 9.5 -22t22.5 -10h4q3 1 4 1q8 0 18 13q6 7 6 18zM224 742q0 11 -9.5 21.5
t-22.5 10.5q-12 0 -22 -10.5t-10 -21.5q0 -12 9.5 -22t22.5 -10h4q3 1 4 1q8 0 18 13q6 7 6 18zM881 60q0 11 -9.5 21.5t-22.5 10.5q-12 0 -22 -10.5t-10 -21.5q0 -12 10 -22t22 -10q13 0 22.5 10t9.5 22zM903 118v562h-890v-562h890zM98 742q0 11 -9.5 21.5t-22.5 10.5
q-12 0 -22 -10.5t-10 -21.5q0 -12 10 -22t22 -10h4q3 1 4 1q8 0 18 13q6 7 6 18zM755 60q0 12 -9.5 22t-22.5 10q-12 0 -22 -10.5t-10 -21.5q0 -12 9.5 -22t22.5 -10q11 0 21.5 10t10.5 22zM629 60q0 12 -9.5 22t-22.5 10q-12 0 -22 -10.5t-10 -21.5q0 -12 9.5 -22t22.5 -10
q11 0 21.5 10t10.5 22zM350 63q0 12 -9.5 22t-22.5 10q-12 0 -22 -10.5t-10 -21.5t9.5 -21.5t22.5 -10.5q11 0 21.5 10t10.5 22zM224 63q0 12 -9.5 22t-22.5 10q-12 0 -22 -10.5t-10 -21.5t9.5 -21.5t22.5 -10.5q11 0 21.5 10t10.5 22zM98 63q0 11 -9.5 21.5t-22.5 10.5
q-12 0 -22 -10.5t-10 -21.5t10 -21.5t22 -10.5q13 0 22.5 10.5t9.5 21.5zM891 129h-867v540h867v-540zM627 300q0 32 -15 64q-17 37 -47 55q-52 26 -138 70q-31 17 -40 29q-12 15 -12 42q0 67 83 67q-3 0 9 -1q9 -2 22 -6q36 -11 65 -52q24 -33 33 -70h20v152h-22
q-4 -24 -23 -24q-8 0 -33.5 9t-41 11.5t-35.5 2.5q-112 0 -142 -84q-11 -29 -11 -56q0 -67 62 -113q24 -17 133 -70q50 -25 50 -71q0 -11 -6.5 -30.5t-26.5 -32.5t-36 -13q-2 0 -14.5 -1.5t-13.5 -1.5q-2 0 -5 1t-4 1q-23 2 -51 20.5t-41 41.5t-23 50q-4 13 -10 36h-20v-172
h20q7 23 21 23q1 0 32 -9t45.5 -11.5t42.5 -2.5q106 0 151 71q8 12 12 25q10 28 10 50z" />
    <glyph glyph-name="t" unicode="t" 
d="M914 -1h-382q-2 8 -6 25q-4 14 -24 26.5t-33 12.5q-2 0 -11.5 -1t-11.5 -1t-15 -4t-25 -17t-14 -26q1 -7 -3 -15h-387v801h388q1 -8 4 -22q0 -2 10 -21q5 -9 24 -19q16 -8 26 -8q1 0 9.5 1t10 1t4.5 1t6.5 1t20.5 11q27 17 25 52q0 1 2 3h382v-801zM881 742
q0 11 -9.5 21.5t-22.5 10.5q-12 0 -22 -10.5t-10 -21.5q0 -9 7.5 -19.5t18.5 -10.5q1 0 3 -1t3 -1h4q3 1 5.5 1t9.5 5q13 10 13 26zM755 742q0 11 -10 21.5t-22 10.5t-22 -10.5t-10 -21.5q0 -9 7.5 -19.5t18.5 -10.5q1 0 3 -1t3 -1h4q3 1 5.5 1t9.5 5q13 9 13 26zM629 742
q0 11 -10 21.5t-22 10.5t-22 -10.5t-10 -21.5q0 -9 7.5 -19.5t18.5 -10.5q1 0 3 -1t3 -1h4q3 1 5.5 1t9.5 5q13 9 13 26zM350 742q0 11 -9.5 21.5t-22.5 10.5q-12 0 -22 -10.5t-10 -21.5q0 -12 9.5 -22t22.5 -10h4q3 1 4 1q8 0 18 13q6 7 6 18zM224 742q0 11 -9.5 21.5
t-22.5 10.5q-12 0 -22 -10.5t-10 -21.5q0 -12 9.5 -22t22.5 -10h4q3 1 4 1q8 0 18 13q6 7 6 18zM881 60q0 11 -9.5 21.5t-22.5 10.5q-12 0 -22 -10.5t-10 -21.5q0 -12 10 -22t22 -10q13 0 22.5 10t9.5 22zM903 118v562h-890v-562h890zM98 742q0 11 -9.5 21.5t-22.5 10.5
q-12 0 -22 -10.5t-10 -21.5q0 -12 10 -22t22 -10h4q3 1 4 1q8 0 18 13q6 7 6 18zM755 60q0 12 -9.5 22t-22.5 10q-12 0 -22 -10.5t-10 -21.5q0 -12 9.5 -22t22.5 -10q11 0 21.5 10t10.5 22zM629 60q0 12 -9.5 22t-22.5 10q-12 0 -22 -10.5t-10 -21.5q0 -12 9.5 -22t22.5 -10
q11 0 21.5 10t10.5 22zM350 63q0 12 -9.5 22t-22.5 10q-12 0 -22 -10.5t-10 -21.5t9.5 -21.5t22.5 -10.5q11 0 21.5 10t10.5 22zM224 63q0 12 -9.5 22t-22.5 10q-12 0 -22 -10.5t-10 -21.5t9.5 -21.5t22.5 -10.5q11 0 21.5 10t10.5 22zM98 63q0 11 -9.5 21.5t-22.5 10.5
q-12 0 -22 -10.5t-10 -21.5t10 -21.5t22 -10.5q13 0 22.5 10.5t9.5 21.5zM891 129h-867v540h867v-540zM673 498v141h-420v-141h19q6 64 42 92q25 19 91 26l1 -379q-1 -11 -9 -34q-8 -13 -28 -16q-15 -1 -31 -3v-17h250v17q-18 0 -53 11q-12 6 -14 26q-1 3 -2 9v385h16
q36 0 66 -19q35 -23 43 -60q4 -14 8 -38h21z" />
    <glyph glyph-name="u" unicode="u" 
d="M914 -1h-382q-2 8 -6 25q-4 14 -24 26.5t-33 12.5q-2 0 -11.5 -1t-11.5 -1t-15 -4t-25 -17t-14 -26q1 -7 -3 -15h-387v801h388q1 -8 4 -22q0 -2 10 -21q5 -9 24 -19q16 -8 26 -8q1 0 9.5 1t10 1t4.5 1t6.5 1t20.5 11q27 17 25 52q0 1 2 3h382v-801zM881 742
q0 11 -9.5 21.5t-22.5 10.5q-12 0 -22 -10.5t-10 -21.5q0 -9 7.5 -19.5t18.5 -10.5q1 0 3 -1t3 -1h4q3 1 5.5 1t9.5 5q13 10 13 26zM755 742q0 11 -10 21.5t-22 10.5t-22 -10.5t-10 -21.5q0 -9 7.5 -19.5t18.5 -10.5q1 0 3 -1t3 -1h4q3 1 5.5 1t9.5 5q13 9 13 26zM629 742
q0 11 -10 21.5t-22 10.5t-22 -10.5t-10 -21.5q0 -9 7.5 -19.5t18.5 -10.5q1 0 3 -1t3 -1h4q3 1 5.5 1t9.5 5q13 9 13 26zM350 742q0 11 -9.5 21.5t-22.5 10.5q-12 0 -22 -10.5t-10 -21.5q0 -12 9.5 -22t22.5 -10h4q3 1 4 1q8 0 18 13q6 7 6 18zM224 742q0 11 -9.5 21.5
t-22.5 10.5q-12 0 -22 -10.5t-10 -21.5q0 -12 9.5 -22t22.5 -10h4q3 1 4 1q8 0 18 13q6 7 6 18zM881 60q0 11 -9.5 21.5t-22.5 10.5q-12 0 -22 -10.5t-10 -21.5q0 -12 10 -22t22 -10q13 0 22.5 10t9.5 22zM903 118v562h-890v-562h890zM98 742q0 11 -9.5 21.5t-22.5 10.5
q-12 0 -22 -10.5t-10 -21.5q0 -12 10 -22t22 -10h4q3 1 4 1q8 0 18 13q6 7 6 18zM755 60q0 12 -9.5 22t-22.5 10q-12 0 -22 -10.5t-10 -21.5q0 -12 9.5 -22t22.5 -10q11 0 21.5 10t10.5 22zM629 60q0 12 -9.5 22t-22.5 10q-12 0 -22 -10.5t-10 -21.5q0 -12 9.5 -22t22.5 -10
q11 0 21.5 10t10.5 22zM350 63q0 12 -9.5 22t-22.5 10q-12 0 -22 -10.5t-10 -21.5t9.5 -21.5t22.5 -10.5q11 0 21.5 10t10.5 22zM224 63q0 12 -9.5 22t-22.5 10q-12 0 -22 -10.5t-10 -21.5t9.5 -21.5t22.5 -10.5q11 0 21.5 10t10.5 22zM98 63q0 11 -9.5 21.5t-22.5 10.5
q-12 0 -22 -10.5t-10 -21.5t10 -21.5t22 -10.5q13 0 22.5 10.5t9.5 21.5zM891 129h-867v540h867v-540zM699 621v17h-154v-17q24 1 43 -9q23 -12 24 -35q0 -1 1 -3t1 -3v-256l-6 -37q-3 -21 -19 -45t-37 -32q-5 -3 -13 -6q-26 -7 -49 -7q-1 0 -9.5 1t-10.5 1q-27 0 -50 24.5
t-27 59.5q-3 23 -3 22v280q0 10 8 26q5 10 17 13.5t42 5.5v18h-236v-18q9 -2 14 -2q43 0 43 -51v-269q0 -2 1.5 -5.5t1.5 -5.5q0 -41 30 -75.5t77 -47.5q39 -11 54 -11h25q126 0 159 85q9 23 14 48t5 39v250q0 20 16 32t38 13z" />
    <glyph glyph-name="v" unicode="v" 
d="M914 -1h-382q-2 8 -6 25q-4 14 -24 26.5t-33 12.5q-2 0 -11.5 -1t-11.5 -1t-15 -4t-25 -17t-14 -26q1 -7 -3 -15h-387v801h388q1 -8 4 -22q0 -2 10 -21q5 -9 24 -19q16 -8 26 -8q1 0 9.5 1t10 1t4.5 1t6.5 1t20.5 11q27 17 25 52q0 1 2 3h382v-801zM881 742
q0 11 -9.5 21.5t-22.5 10.5q-12 0 -22 -10.5t-10 -21.5q0 -9 7.5 -19.5t18.5 -10.5q1 0 3 -1t3 -1h4q3 1 5.5 1t9.5 5q13 10 13 26zM755 742q0 11 -10 21.5t-22 10.5t-22 -10.5t-10 -21.5q0 -9 7.5 -19.5t18.5 -10.5q1 0 3 -1t3 -1h4q3 1 5.5 1t9.5 5q13 9 13 26zM629 742
q0 11 -10 21.5t-22 10.5t-22 -10.5t-10 -21.5q0 -9 7.5 -19.5t18.5 -10.5q1 0 3 -1t3 -1h4q3 1 5.5 1t9.5 5q13 9 13 26zM350 742q0 11 -9.5 21.5t-22.5 10.5q-12 0 -22 -10.5t-10 -21.5q0 -12 9.5 -22t22.5 -10h4q3 1 4 1q8 0 18 13q6 7 6 18zM224 742q0 11 -9.5 21.5
t-22.5 10.5q-12 0 -22 -10.5t-10 -21.5q0 -12 9.5 -22t22.5 -10h4q3 1 4 1q8 0 18 13q6 7 6 18zM881 60q0 11 -9.5 21.5t-22.5 10.5q-12 0 -22 -10.5t-10 -21.5q0 -12 10 -22t22 -10q13 0 22.5 10t9.5 22zM903 118v562h-890v-562h890zM98 742q0 11 -9.5 21.5t-22.5 10.5
q-12 0 -22 -10.5t-10 -21.5q0 -12 10 -22t22 -10h4q3 1 4 1q8 0 18 13q6 7 6 18zM755 60q0 12 -9.5 22t-22.5 10q-12 0 -22 -10.5t-10 -21.5q0 -12 9.5 -22t22.5 -10q11 0 21.5 10t10.5 22zM629 60q0 12 -9.5 22t-22.5 10q-12 0 -22 -10.5t-10 -21.5q0 -12 9.5 -22t22.5 -10
q11 0 21.5 10t10.5 22zM350 63q0 12 -9.5 22t-22.5 10q-12 0 -22 -10.5t-10 -21.5t9.5 -21.5t22.5 -10.5q11 0 21.5 10t10.5 22zM224 63q0 12 -9.5 22t-22.5 10q-12 0 -22 -10.5t-10 -21.5t9.5 -21.5t22.5 -10.5q11 0 21.5 10t10.5 22zM98 63q0 11 -9.5 21.5t-22.5 10.5
q-12 0 -22 -10.5t-10 -21.5t10 -21.5t22 -10.5q13 0 22.5 10.5t9.5 21.5zM891 129h-867v540h867v-540zM699 621v18h-148v-19q59 3 59 -31q0 -12 -6 -28q-34 -91 -95 -247q-1 -1 -1 0q-4 8 -49 116q-64 154 -64 162q0 21 25 26q18 1 36 3v17h-235v-17q11 -1 32 -10
q10 -7 30 -45q4 -12 14 -35q20 -45 49 -112l56 -132q19 -45 57 -133h19q48 123 143 369q7 18 19.5 52.5t35.5 40.5q9 2 23 5z" />
    <glyph glyph-name="w" unicode="w" 
d="M914 -1h-382q-2 8 -6 25q-4 14 -24 26.5t-33 12.5q-2 0 -11.5 -1t-11.5 -1t-15 -4t-25 -17t-14 -26q1 -7 -3 -15h-387v801h388q1 -8 4 -22q0 -2 10 -21q5 -9 24 -19q16 -8 26 -8q1 0 9.5 1t10 1t4.5 1t6.5 1t20.5 11q27 17 25 52q0 1 2 3h382v-801zM881 742
q0 11 -9.5 21.5t-22.5 10.5q-12 0 -22 -10.5t-10 -21.5q0 -9 7.5 -19.5t18.5 -10.5q1 0 3 -1t3 -1h4q3 1 5.5 1t9.5 5q13 10 13 26zM755 742q0 11 -10 21.5t-22 10.5t-22 -10.5t-10 -21.5q0 -9 7.5 -19.5t18.5 -10.5q1 0 3 -1t3 -1h4q3 1 5.5 1t9.5 5q13 9 13 26zM629 742
q0 11 -10 21.5t-22 10.5t-22 -10.5t-10 -21.5q0 -9 7.5 -19.5t18.5 -10.5q1 0 3 -1t3 -1h4q3 1 5.5 1t9.5 5q13 9 13 26zM350 742q0 11 -9.5 21.5t-22.5 10.5q-12 0 -22 -10.5t-10 -21.5q0 -12 9.5 -22t22.5 -10h4q3 1 4 1q8 0 18 13q6 7 6 18zM224 742q0 11 -9.5 21.5
t-22.5 10.5q-12 0 -22 -10.5t-10 -21.5q0 -12 9.5 -22t22.5 -10h4q3 1 4 1q8 0 18 13q6 7 6 18zM881 60q0 11 -9.5 21.5t-22.5 10.5q-12 0 -22 -10.5t-10 -21.5q0 -12 10 -22t22 -10q13 0 22.5 10t9.5 22zM903 118v562h-890v-562h890zM98 742q0 11 -9.5 21.5t-22.5 10.5
q-12 0 -22 -10.5t-10 -21.5q0 -12 10 -22t22 -10h4q3 1 4 1q8 0 18 13q6 7 6 18zM755 60q0 12 -9.5 22t-22.5 10q-12 0 -22 -10.5t-10 -21.5q0 -12 9.5 -22t22.5 -10q11 0 21.5 10t10.5 22zM629 60q0 12 -9.5 22t-22.5 10q-12 0 -22 -10.5t-10 -21.5q0 -12 9.5 -22t22.5 -10
q11 0 21.5 10t10.5 22zM350 63q0 12 -9.5 22t-22.5 10q-12 0 -22 -10.5t-10 -21.5t9.5 -21.5t22.5 -10.5q11 0 21.5 10t10.5 22zM224 63q0 12 -9.5 22t-22.5 10q-12 0 -22 -10.5t-10 -21.5t9.5 -21.5t22.5 -10.5q11 0 21.5 10t10.5 22zM98 63q0 11 -9.5 21.5t-22.5 10.5
q-12 0 -22 -10.5t-10 -21.5t10 -21.5t22 -10.5q13 0 22.5 10.5t9.5 21.5zM891 129h-867v540h867v-540zM798 621v18h-128v-18q48 -1 48 -33q0 -11 -2 -17q-39 -129 -80 -247q-29 83 -82 251q-3 13 -3 20q0 23 30 23q-2 0 11 2q8 2 9 -1v20h-218v-20l2 1q8 0 21 -2
q19 -3 28 -26t17 -44q5 -8 6 -18l-81 -213l-63 185q2 2 -12 39.5t-14 49.5q0 18 13 24q6 3 32 6v18h-205v-18q14 -3 18 -5q12 -4 17.5 -13t18.5 -45t36 -100.5t63 -180.5l43 -121h19l127 326h4l118 -326h19l104 314l26 78q6 16 11 32q8 20 20 30t27 11z" />
    <glyph glyph-name="x" unicode="x" 
d="M914 -1h-382q-2 8 -6 25q-4 14 -24 26.5t-33 12.5q-2 0 -11.5 -1t-11.5 -1t-15 -4t-25 -17t-14 -26q1 -7 -3 -15h-387v801h388q1 -8 4 -22q0 -2 10 -21q5 -9 24 -19q16 -8 26 -8q1 0 9.5 1t10 1t4.5 1t6.5 1t20.5 11q27 17 25 52q0 1 2 3h382v-801zM881 742
q0 11 -9.5 21.5t-22.5 10.5q-12 0 -22 -10.5t-10 -21.5q0 -9 7.5 -19.5t18.5 -10.5q1 0 3 -1t3 -1h4q3 1 5.5 1t9.5 5q13 10 13 26zM755 742q0 11 -10 21.5t-22 10.5t-22 -10.5t-10 -21.5q0 -9 7.5 -19.5t18.5 -10.5q1 0 3 -1t3 -1h4q3 1 5.5 1t9.5 5q13 9 13 26zM629 742
q0 11 -10 21.5t-22 10.5t-22 -10.5t-10 -21.5q0 -9 7.5 -19.5t18.5 -10.5q1 0 3 -1t3 -1h4q3 1 5.5 1t9.5 5q13 9 13 26zM350 742q0 11 -9.5 21.5t-22.5 10.5q-12 0 -22 -10.5t-10 -21.5q0 -12 9.5 -22t22.5 -10h4q3 1 4 1q8 0 18 13q6 7 6 18zM224 742q0 11 -9.5 21.5
t-22.5 10.5q-12 0 -22 -10.5t-10 -21.5q0 -12 9.5 -22t22.5 -10h4q3 1 4 1q8 0 18 13q6 7 6 18zM881 60q0 11 -9.5 21.5t-22.5 10.5q-12 0 -22 -10.5t-10 -21.5q0 -12 10 -22t22 -10q13 0 22.5 10t9.5 22zM903 118v562h-890v-562h890zM98 742q0 11 -9.5 21.5t-22.5 10.5
q-12 0 -22 -10.5t-10 -21.5q0 -12 10 -22t22 -10h4q3 1 4 1q8 0 18 13q6 7 6 18zM755 60q0 12 -9.5 22t-22.5 10q-12 0 -22 -10.5t-10 -21.5q0 -12 9.5 -22t22.5 -10q11 0 21.5 10t10.5 22zM629 60q0 12 -9.5 22t-22.5 10q-12 0 -22 -10.5t-10 -21.5q0 -12 9.5 -22t22.5 -10
q11 0 21.5 10t10.5 22zM350 63q0 12 -9.5 22t-22.5 10q-12 0 -22 -10.5t-10 -21.5t9.5 -21.5t22.5 -10.5q11 0 21.5 10t10.5 22zM224 63q0 12 -9.5 22t-22.5 10q-12 0 -22 -10.5t-10 -21.5t9.5 -21.5t22.5 -10.5q11 0 21.5 10t10.5 22zM98 63q0 11 -9.5 21.5t-22.5 10.5
q-12 0 -22 -10.5t-10 -21.5t10 -21.5t22 -10.5q13 0 22.5 10.5t9.5 21.5zM891 129h-867v540h867v-540zM698 166v18q-11 2 -12 2q-16 0 -39 34q-17 24 -81 125l-63 96q25 34 72 99q41 57 70 70q18 9 45 11v18h-174v-18q18 -2 35 -4q14 -5 14 -23q0 -11 -6 -22
q-10 -20 -58 -84q-5 -7 -15 -19q-28 42 -45 69q-33 54 -33 60q0 16 18 20q19 1 38 3v18h-242v-18q27 -1 43 -23q39 -55 151 -221q-33 -42 -99 -124q-15 -18 -30 -36.5t-34 -25.5q-1 0 -32 -7v-18h174v18q-16 3 -32 5q-24 7 -24 25q0 13 20 43l26 36q7 10 46 62
q28 -43 45 -71q10 -17 21 -33q19 -31 19 -45q0 -18 -47 -21q-14 -1 -8 -1v-18h237z" />
    <glyph glyph-name="y" unicode="y" 
d="M914 -1h-382q-2 8 -6 25q-4 14 -24 26.5t-33 12.5q-2 0 -11.5 -1t-11.5 -1t-15 -4t-25 -17t-14 -26q1 -7 -3 -15h-387v801h388q1 -8 4 -22q0 -2 10 -21q5 -9 24 -19q16 -8 26 -8q1 0 9.5 1t10 1t4.5 1t6.5 1t20.5 11q27 17 25 52q0 1 2 3h382v-801zM881 742
q0 11 -9.5 21.5t-22.5 10.5q-12 0 -22 -10.5t-10 -21.5q0 -9 7.5 -19.5t18.5 -10.5q1 0 3 -1t3 -1h4q3 1 5.5 1t9.5 5q13 10 13 26zM755 742q0 11 -10 21.5t-22 10.5t-22 -10.5t-10 -21.5q0 -9 7.5 -19.5t18.5 -10.5q1 0 3 -1t3 -1h4q3 1 5.5 1t9.5 5q13 9 13 26zM629 742
q0 11 -10 21.5t-22 10.5t-22 -10.5t-10 -21.5q0 -9 7.5 -19.5t18.5 -10.5q1 0 3 -1t3 -1h4q3 1 5.5 1t9.5 5q13 9 13 26zM350 742q0 11 -9.5 21.5t-22.5 10.5q-12 0 -22 -10.5t-10 -21.5q0 -12 9.5 -22t22.5 -10h4q3 1 4 1q8 0 18 13q6 7 6 18zM224 742q0 11 -9.5 21.5
t-22.5 10.5q-12 0 -22 -10.5t-10 -21.5q0 -12 9.5 -22t22.5 -10h4q3 1 4 1q8 0 18 13q6 7 6 18zM881 60q0 11 -9.5 21.5t-22.5 10.5q-12 0 -22 -10.5t-10 -21.5q0 -12 10 -22t22 -10q13 0 22.5 10t9.5 22zM903 118v562h-890v-562h890zM98 742q0 11 -9.5 21.5t-22.5 10.5
q-12 0 -22 -10.5t-10 -21.5q0 -12 10 -22t22 -10h4q3 1 4 1q8 0 18 13q6 7 6 18zM755 60q0 12 -9.5 22t-22.5 10q-12 0 -22 -10.5t-10 -21.5q0 -12 9.5 -22t22.5 -10q11 0 21.5 10t10.5 22zM629 60q0 12 -9.5 22t-22.5 10q-12 0 -22 -10.5t-10 -21.5q0 -12 9.5 -22t22.5 -10
q11 0 21.5 10t10.5 22zM350 63q0 12 -9.5 22t-22.5 10q-12 0 -22 -10.5t-10 -21.5t9.5 -21.5t22.5 -10.5q11 0 21.5 10t10.5 22zM224 63q0 12 -9.5 22t-22.5 10q-12 0 -22 -10.5t-10 -21.5t9.5 -21.5t22.5 -10.5q11 0 21.5 10t10.5 22zM98 63q0 11 -9.5 21.5t-22.5 10.5
q-12 0 -22 -10.5t-10 -21.5t10 -21.5t22 -10.5q13 0 22.5 10.5t9.5 21.5zM891 129h-867v540h867v-540zM698 621v18h-154v-18q18 -2 35 -4q23 -5 23 -27q0 -19 -20 -54q-44 -74 -84 -139q-18 37 -57 111q-43 81 -43 90q0 19 23 22q17 0 34 1v18h-235v-18q36 -5 49 -28
q32 -55 106 -189q10 -18 28 -54l1 -110q0 -12 -4 -29q-3 -10 -10 -14q-16 -11 -37 -11q-4 0 -14 -2v-18h242v19h-15q-12 0 -28 7q-21 9 -21 47v137l73 120l18 29q15 25 45 72q15 21 36 21q1 0 4.5 1.5t4.5 1.5z" />
    <glyph glyph-name="z" unicode="z" 
d="M914 -1h-382q-2 8 -6 25q-4 14 -24 26.5t-33 12.5q-2 0 -11.5 -1t-11.5 -1t-15 -4t-25 -17t-14 -26q1 -7 -3 -15h-387v801h388q1 -8 4 -22q0 -2 10 -21q5 -9 24 -19q16 -8 26 -8q1 0 9.5 1t10 1t4.5 1t6.5 1t20.5 11q27 17 25 52q0 1 2 3h382v-801zM881 742
q0 11 -9.5 21.5t-22.5 10.5q-12 0 -22 -10.5t-10 -21.5q0 -9 7.5 -19.5t18.5 -10.5q1 0 3 -1t3 -1h4q3 1 5.5 1t9.5 5q13 10 13 26zM755 742q0 11 -10 21.5t-22 10.5t-22 -10.5t-10 -21.5q0 -9 7.5 -19.5t18.5 -10.5q1 0 3 -1t3 -1h4q3 1 5.5 1t9.5 5q13 9 13 26zM629 742
q0 11 -10 21.5t-22 10.5t-22 -10.5t-10 -21.5q0 -9 7.5 -19.5t18.5 -10.5q1 0 3 -1t3 -1h4q3 1 5.5 1t9.5 5q13 9 13 26zM350 742q0 11 -9.5 21.5t-22.5 10.5q-12 0 -22 -10.5t-10 -21.5q0 -12 9.5 -22t22.5 -10h4q3 1 4 1q8 0 18 13q6 7 6 18zM224 742q0 11 -9.5 21.5
t-22.5 10.5q-12 0 -22 -10.5t-10 -21.5q0 -12 9.5 -22t22.5 -10h4q3 1 4 1q8 0 18 13q6 7 6 18zM881 60q0 11 -9.5 21.5t-22.5 10.5q-12 0 -22 -10.5t-10 -21.5q0 -12 10 -22t22 -10q13 0 22.5 10t9.5 22zM903 118v562h-890v-562h890zM98 742q0 11 -9.5 21.5t-22.5 10.5
q-12 0 -22 -10.5t-10 -21.5q0 -12 10 -22t22 -10h4q3 1 4 1q8 0 18 13q6 7 6 18zM755 60q0 12 -9.5 22t-22.5 10q-12 0 -22 -10.5t-10 -21.5q0 -12 9.5 -22t22.5 -10q11 0 21.5 10t10.5 22zM629 60q0 12 -9.5 22t-22.5 10q-12 0 -22 -10.5t-10 -21.5q0 -12 9.5 -22t22.5 -10
q11 0 21.5 10t10.5 22zM350 63q0 12 -9.5 22t-22.5 10q-12 0 -22 -10.5t-10 -21.5t9.5 -21.5t22.5 -10.5q11 0 21.5 10t10.5 22zM224 63q0 12 -9.5 22t-22.5 10q-12 0 -22 -10.5t-10 -21.5t9.5 -21.5t22.5 -10.5q11 0 21.5 10t10.5 22zM98 63q0 11 -9.5 21.5t-22.5 10.5
q-12 0 -22 -10.5t-10 -21.5t10 -21.5t22 -10.5q13 0 22.5 10.5t9.5 21.5zM891 129h-867v540h867v-540zM672 335h-19q-18 -81 -67 -115q-41 -28 -111 -28h-87l263 435v12h-367l-13 -144h20q27 86 75 105q16 6 21 6q1 0 6.5 1.5t8.5 1.5q10 1 29 2q68 2 84 2l-248 -405
q-19 -32 -19 -35q0 -4 2 -6h404z" />
    <glyph glyph-name="asciitilde" unicode="~" horiz-adv-x="905" 
d="M914 -1h-382q-2 8 -6 25q-4 14 -24 26.5t-33 12.5q-2 0 -11.5 -1t-11.5 -1t-15 -4t-25 -17t-14 -26q1 -7 -3 -15h-387v801h388q1 -8 4 -22q0 -2 10 -21q5 -9 24 -19q16 -8 26 -8q1 0 9.5 1t10 1t4.5 1t6.5 1t20.5 11q27 17 25 52q0 1 2 3h382v-801zM881 742
q0 11 -9.5 21.5t-22.5 10.5q-12 0 -22 -10.5t-10 -21.5q0 -9 7.5 -19.5t18.5 -10.5q1 0 3 -1t3 -1h4q3 1 5.5 1t9.5 5q13 10 13 26zM755 742q0 11 -10 21.5t-22 10.5t-22 -10.5t-10 -21.5q0 -9 7.5 -19.5t18.5 -10.5q1 0 3 -1t3 -1h4q3 1 5.5 1t9.5 5q13 9 13 26zM629 742
q0 11 -10 21.5t-22 10.5t-22 -10.5t-10 -21.5q0 -9 7.5 -19.5t18.5 -10.5q1 0 3 -1t3 -1h4q3 1 5.5 1t9.5 5q13 9 13 26zM350 742q0 11 -9.5 21.5t-22.5 10.5q-12 0 -22 -10.5t-10 -21.5q0 -12 9.5 -22t22.5 -10h4q3 1 4 1q8 0 18 13q6 7 6 18zM224 742q0 11 -9.5 21.5
t-22.5 10.5q-12 0 -22 -10.5t-10 -21.5q0 -12 9.5 -22t22.5 -10h4q3 1 4 1q8 0 18 13q6 7 6 18zM881 60q0 11 -9.5 21.5t-22.5 10.5q-12 0 -22 -10.5t-10 -21.5q0 -12 10 -22t22 -10q13 0 22.5 10t9.5 22zM903 118v562h-890v-562h890zM98 742q0 11 -9.5 21.5t-22.5 10.5
q-12 0 -22 -10.5t-10 -21.5q0 -12 10 -22t22 -10h4q3 1 4 1q8 0 18 13q6 7 6 18zM755 60q0 12 -9.5 22t-22.5 10q-12 0 -22 -10.5t-10 -21.5q0 -12 9.5 -22t22.5 -10q11 0 21.5 10t10.5 22zM629 60q0 12 -9.5 22t-22.5 10q-12 0 -22 -10.5t-10 -21.5q0 -12 9.5 -22t22.5 -10
q11 0 21.5 10t10.5 22zM350 63q0 12 -9.5 22t-22.5 10q-12 0 -22 -10.5t-10 -21.5t9.5 -21.5t22.5 -10.5q11 0 21.5 10t10.5 22zM224 63q0 12 -9.5 22t-22.5 10q-12 0 -22 -10.5t-10 -21.5t9.5 -21.5t22.5 -10.5q11 0 21.5 10t10.5 22zM98 63q0 11 -9.5 21.5t-22.5 10.5
q-12 0 -22 -10.5t-10 -21.5t10 -21.5t22 -10.5q13 0 22.5 10.5t9.5 21.5zM891 129h-867v540h867v-540zM825 592q0 19 -14 19t-14 -19t14 -19t14 19zM825 525q0 18 -14 18t-14 -18t14 -18t14 18zM782 603v4h-24v-5q9 0 9 -4q0 -13 -13 -50q-15 45 -15 49q0 2 3.5 3.5t4.5 1.5
v5h-40v-4q5 -1 12 -19q23 -61 23 -78q-5 -27 -12 -27q-2 0 -3 1q1 17 -10 17q-10 0 -10 -14q0 -16 15 -16q12 0 16 9.5t8 19.5q1 3 8 27q1 6 18 64q2 8 10 16zM700 561q0 17 -7 31q-8 19 -23 19t-18 -12v54h-32v-5q4 -2 9 -11v-130q4 4 13 11q12 -11 22 -11q18 0 28 19
q8 15 8 35zM573 514v5q-9 0 -9 7v127h-33l-1 -5q8 0 10 -4t2 -24q0 -18 -1 -22q-9 13 -18 13q-16 0 -24 -21q-7 -16 -7 -34q0 -49 29 -49q11 0 20 11q1 -5 1 -11q14 5 31 7zM879 240q0 17 -13 17q-9 0 -20 -17q-1 7 0 15h-31v-5q3 0 8 -6v-76q-4 -4 -8 -5v-6h43v5
q-13 -2 -13 36q0 42 10 40q16 -12 14 -12q10 0 10 14zM667 417q0 17 -13 17q-9 0 -20 -18q-2 8 0 16h-31v-6q7 -2 7 -6v-37q0 -34 -1 -41q-1 -3 -6 -3v-6h42v5q-11 3 -12 10v53q0 2 5 11q1 1 5 4q3 -1 5.5 -7.5t7.5 -6.5q1 0 1 1t1 1q9 0 9 13zM485 534l-1.5 1t-2.5 1
q-8 -14 -19 -14q-17 0 -17 34q0 5 1 5q38 0 39 2q-8 48 -30 48q-34 0 -34 -52t34 -52q17 0 30 27zM807 180l-3 3l-9 -9q-4 -4 -10 -4q-18 0 -18 34v5h40v4q-6 44 -24 44q-40 0 -40 -51q0 -52 32 -52h6q12 0 26 26zM418 532l-5 1q-6 -10 -9 -10q-1 0 -5 4v71h14v10
q-7 -1 -14 0v35h-5q-12 -25 -27 -38v-7q6 1 8 -1v-67q0 -23 14 -23h6q13 0 23 25zM595 358q-5 1 -6 0q-7 -12 -17 -12q-18 0 -18 35q0 4 1 5h40v4q-7 44 -31 44q-34 0 -34 -52t34 -52q19 0 31 28zM736 157v6q-8 -2 -8 7v66q0 7 -7 16q-3 3 -9 5h-5q-12 0 -22 -14v57h-32v-5
q9 -3 9 -9v-113q0 -6 -9 -12v-4h39v6q-7 1 -7 6v64q9 10 13 10q8 0 8 -11v-62q0 -5 -8 -7v-6h38zM527 356h-5q0 -2 -3 -6t-5 -4q-6 0 -6 5v71h14v10q-7 -1 -14 0v36h-4q-4 -7 -15.5 -23.5t-11.5 -17.5v-5q7 0 9 -1v-75q-1 -7 8 -13q4 -3 9 -3q15 0 24 26zM363 519q0 2 -3 5
l-3 -3l-3 3v64q0 9 -11 16t-21 7q-30 0 -30 -27q1 -15 7 -15h4q10 0 10 12q0 2 -2 7.5t-2 6.5q0 8 10 8q11 0 13 -14q-1 -9 -1 -19q-42 -20 -42 -40q0 -23 18 -23q8 0 17 6q2 3 8 7q4 -13 12 -13q19 0 19 12zM393 463q0 17 -13 17q-12 0 -12 -17t13 -17q12 0 12 17zM649 176
q0 -2 -3 5q-7 -13 -13 -13h-4q-22 0 -22 47q0 36 13 36q7 0 7.5 -15.5t8.5 -15.5q10 0 10 14q0 23 -24 23q-38 0 -38 -53q0 -50 34 -50q17 0 24 12t7 10zM471 355v3l-4 2q-9 -14 -19 -14q-18 0 -18 35q0 4 1 5h40v5q0 -3 -2 8q-4 35 -29 35q-33 0 -33 -52t33 -52q5 0 10 1.5
t13 11t8 12.5zM282 532q0 -1 -2 4q-4 -4 -9 -8.5t-11 -4.5q-19 0 -19 34q0 3 1 4h40v6q0 -4 -2 8q-4 36 -29 36q-16 0 -26 -19q-7 -15 -7 -34q0 -51 33 -51q9 0 15 4q2 1 9 9.5t7 11.5zM400 333v6q-8 3 -8 8v85h-30v-7q5 0 6 -3q2 -6 2 -40q0 -33 -0.5 -36t-7.5 -7v-6h38z
M579 166q0 2 -3 5l-3 -4q-1 1 -3 2v64q0 3 -3 8q-8 16 -29 16q-31 0 -31 -26q0 -14 11 -14t11 12q0 1 -2 7t-2 9q5 6 9 6q12 0 14 -15q-1 -9 -1 -19q-15 -8 -28.5 -16.5t-13.5 -23.5q0 -23 16 -23h2q1 1 2 1q10 0 22 12q0 -1 1 -3q0 -10 12 -10h5q14 8 14 12zM214 594
q0 17 -13 17q-7 0 -21 -18q-1 6 0 14h-31v-5q7 0 8 -4q1 -12 1 -39q0 -32 -1 -39q-1 -3 -8 -5v-5h43v5h-4q-7 0 -7 36q0 30 2 34t7 7q12 -13 14 -13q10 0 10 15zM354 407q0 11 -2 20q-3 18 -16.5 34t-30.5 16h-59v-6q13 0 13 -11v-111q0 -10 -13 -10v-6h51q26 0 41.5 21
t15.5 53zM142 529q0 1 -3 4q-6 -11 -16 -11q-22 0 -22 46q0 35 13 35q6 0 6.5 -15t9.5 -15q10 0 10 15q0 23 -24 23q-38 0 -38 -54q0 -50 35 -50h6q4 1 13.5 8.5t9.5 13.5zM498 157v6q-8 1 -8 5v64q0 8 -6 16.5t-15 8.5q-12 0 -24 -18q-6 18 -21 18q-11 0 -22 -15q-2 5 0 13
h-31v-5q9 0 9 -10l-1 -69q0 -5 -8 -8v-6h38v6q-8 2 -8 7l1 61q1 12 13 12q9 0 9 -42q0 -28 -1.5 -33t-6.5 -5v-6h37v6q-3 0 -7 4v66q9 10 13 10q8 0 8 -11v-62q0 -9 -7 -7v-6h38zM365 161v5q-7 2 -9 9v80h-32v-5q10 1 10 -8v-65q-9 -9 -13 -9q-4 1 -9 8v79h-30v-5q8 -2 8 -8
v-67q0 -8 7 -14.5t14 -6.5q8 0 15 5q2 3 7 7q1 -5 1 -12q7 3 31 7zM276 157v4q-8 5 -8 9v66l-1 4q-5 17 -19 17q-13 0 -23 -14v57h-32v-5q9 1 9 -9v-115q0 -7 -9 -8v-6h39v6q-7 1 -7.5 5.5t-0.5 32.5q0 27 0 25q2 17 13 17q9 0 9 -42q0 -29 -1 -33.5t-7 -4.5v-6h38zM188 176
q0 2 -3 5q0 -13 -16 -13t-22 34v27q0 3 3.5 12.5t9.5 9.5t7 -15.5t9 -15.5q10 0 10 14q0 23 -23 23q-39 0 -39 -54q0 -49 34 -49q-1 0 10 1q2 1 11 9t9 12zM113 198q0 23 -14 36q-12 8 -37 26q-3 3 -5 7v9q0 21 16 21q21 0 31 -39h4v45h-5q0 -5 -5 -6q-1 0 -8.5 3t-8.5 3
q-42 0 -42 -42q0 -18 10 -31q6 -7 22 -17q23 -16 23 -28q0 -24 -19 -24q-27 0 -33 44h-5v-52h4q5 8 7 8l9 -4t16 -4h6h3q2 1 4.5 1t10.5 7t10 10q6 13 6 27zM677 557q0 -43 -15 -43q4 0 -6 1q-2 3 -5 10v31q0 42 11 42q15 0 15 -41zM542 531q0 -2 -6 -7.5t-8 -5.5
q-10 0 -12 37q0 43 14 43q3 0 7.5 -5.5t4.5 -7.5v-54zM465 570h-21v11q4 23 9 23q13 0 12 -29v-5zM787 217h-20q-1 1 -1 5q0 29 11 29q5 0 7.5 -7.5t2.5 -10.5v-16zM574 394h-21v7q0 26 11 26q12 0 10 -22v-11zM331 531q0 -2 -4.5 -5.5t-5.5 -3.5q-9 0 -9 14q0 19 19 25v-30
zM451 394h-22v6q0 27 11 27t11 -20v-13zM262 570h-22v6q0 28 13 28q6 0 9 -21v-13zM547 193q0 -23 -11 -23q-8 0 -8 13q0 14 18 26q1 -6 1 -16zM326 384q-4 -30 -17 -39q-5 -3 -13 -3q-11 0 -11 7v115q3 5 10 5q25 0 31 -46q2 -18 0 -39z" />
    <glyph glyph-name="Adieresis" unicode="&#xc4;" 
d="M914 -1h-382q-2 8 -6 25q-4 14 -24 26.5t-33 12.5q-2 0 -11.5 -1t-11.5 -1t-15 -4t-25 -17t-14 -26q1 -7 -3 -15h-387v801h388q1 -8 4 -22q0 -2 10 -21q5 -9 24 -19q16 -8 26 -8q1 0 9.5 1t10 1t4.5 1t6.5 1t20.5 11q27 17 25 52q0 1 2 3h382v-801zM881 742
q0 11 -9.5 21.5t-22.5 10.5q-12 0 -22 -10.5t-10 -21.5q0 -9 7.5 -19.5t18.5 -10.5q1 0 3 -1t3 -1h4q3 1 5.5 1t9.5 5q13 10 13 26zM755 742q0 11 -10 21.5t-22 10.5t-22 -10.5t-10 -21.5q0 -9 7.5 -19.5t18.5 -10.5q1 0 3 -1t3 -1h4q3 1 5.5 1t9.5 5q13 9 13 26zM629 742
q0 11 -10 21.5t-22 10.5t-22 -10.5t-10 -21.5q0 -9 7.5 -19.5t18.5 -10.5q1 0 3 -1t3 -1h4q3 1 5.5 1t9.5 5q13 9 13 26zM350 742q0 11 -9.5 21.5t-22.5 10.5q-12 0 -22 -10.5t-10 -21.5q0 -12 9.5 -22t22.5 -10h4q3 1 4 1q8 0 18 13q6 7 6 18zM224 742q0 11 -9.5 21.5
t-22.5 10.5q-12 0 -22 -10.5t-10 -21.5q0 -12 9.5 -22t22.5 -10h4q3 1 4 1q8 0 18 13q6 7 6 18zM881 60q0 11 -9.5 21.5t-22.5 10.5q-12 0 -22 -10.5t-10 -21.5q0 -12 10 -22t22 -10q13 0 22.5 10t9.5 22zM903 118v562h-890v-562h890zM98 742q0 11 -9.5 21.5t-22.5 10.5
q-12 0 -22 -10.5t-10 -21.5q0 -12 10 -22t22 -10h4q3 1 4 1q8 0 18 13q6 7 6 18zM755 60q0 12 -9.5 22t-22.5 10q-12 0 -22 -10.5t-10 -21.5q0 -12 9.5 -22t22.5 -10q11 0 21.5 10t10.5 22zM629 60q0 12 -9.5 22t-22.5 10q-12 0 -22 -10.5t-10 -21.5q0 -12 9.5 -22t22.5 -10
q11 0 21.5 10t10.5 22zM350 63q0 12 -9.5 22t-22.5 10q-12 0 -22 -10.5t-10 -21.5t9.5 -21.5t22.5 -10.5q11 0 21.5 10t10.5 22zM224 63q0 12 -9.5 22t-22.5 10q-12 0 -22 -10.5t-10 -21.5t9.5 -21.5t22.5 -10.5q11 0 21.5 10t10.5 22zM98 63q0 11 -9.5 21.5t-22.5 10.5
q-12 0 -22 -10.5t-10 -21.5t10 -21.5t22 -10.5q13 0 22.5 10.5t9.5 21.5zM575 624q0 -17 -11 -27.5t-26 -10.5t-26 12t-11 26t10.5 26t26.5 12q15 0 26 -11.5t11 -26.5zM453 624q0 -13 -9 -25t-23 -12q-1 0 -3 -1h-2q-16 0 -26.5 12t-10.5 26q0 15 11.5 26.5t25.5 11.5
q17 0 27 -12.5t10 -25.5zM673 150h-190v14q15 1 31 3.5t16 18.5q0 13 -27 78h-131q-26 -61 -26 -75q0 -25 47 -25v-14h-118v14h4q9 0 21 12q11 9 14.5 15.5t11.5 26.5q3 6 8 20q10 26 31 78l97 237h16q11 -25 34 -78q10 -24 32 -74q10 -25 31 -74q18 -47 61 -141
q15 -26 37 -22v-14zM494 288l-59 140l-54 -140h113z" />
    <glyph glyph-name="Eth" unicode="&#xd0;" horiz-adv-x="456" 
 />
    <glyph glyph-name="Odieresis" unicode="&#xd6;" 
d="M914 -1h-382q-2 8 -6 25q-4 14 -24 26.5t-33 12.5q-2 0 -11.5 -1t-11.5 -1t-15 -4t-25 -17t-14 -26q1 -7 -3 -15h-387v801h388q1 -8 4 -22q0 -2 10 -21q5 -9 24 -19q16 -8 26 -8q1 0 9.5 1t10 1t4.5 1t6.5 1t20.5 11q27 17 25 52q0 1 2 3h382v-801zM881 742
q0 11 -9.5 21.5t-22.5 10.5q-12 0 -22 -10.5t-10 -21.5q0 -9 7.5 -19.5t18.5 -10.5q1 0 3 -1t3 -1h4q3 1 5.5 1t9.5 5q13 10 13 26zM755 742q0 11 -10 21.5t-22 10.5t-22 -10.5t-10 -21.5q0 -9 7.5 -19.5t18.5 -10.5q1 0 3 -1t3 -1h4q3 1 5.5 1t9.5 5q13 9 13 26zM629 742
q0 11 -10 21.5t-22 10.5t-22 -10.5t-10 -21.5q0 -9 7.5 -19.5t18.5 -10.5q1 0 3 -1t3 -1h4q3 1 5.5 1t9.5 5q13 9 13 26zM350 742q0 11 -9.5 21.5t-22.5 10.5q-12 0 -22 -10.5t-10 -21.5q0 -12 9.5 -22t22.5 -10h4q3 1 4 1q8 0 18 13q6 7 6 18zM224 742q0 11 -9.5 21.5
t-22.5 10.5q-12 0 -22 -10.5t-10 -21.5q0 -12 9.5 -22t22.5 -10h4q3 1 4 1q8 0 18 13q6 7 6 18zM881 60q0 11 -9.5 21.5t-22.5 10.5q-12 0 -22 -10.5t-10 -21.5q0 -12 10 -22t22 -10q13 0 22.5 10t9.5 22zM903 118v562h-890v-562h890zM98 742q0 11 -9.5 21.5t-22.5 10.5
q-12 0 -22 -10.5t-10 -21.5q0 -12 10 -22t22 -10h4q3 1 4 1q8 0 18 13q6 7 6 18zM755 60q0 12 -9.5 22t-22.5 10q-12 0 -22 -10.5t-10 -21.5q0 -12 9.5 -22t22.5 -10q11 0 21.5 10t10.5 22zM629 60q0 12 -9.5 22t-22.5 10q-12 0 -22 -10.5t-10 -21.5q0 -12 9.5 -22t22.5 -10
q11 0 21.5 10t10.5 22zM350 63q0 12 -9.5 22t-22.5 10q-12 0 -22 -10.5t-10 -21.5t9.5 -21.5t22.5 -10.5q11 0 21.5 10t10.5 22zM224 63q0 12 -9.5 22t-22.5 10q-12 0 -22 -10.5t-10 -21.5t9.5 -21.5t22.5 -10.5q11 0 21.5 10t10.5 22zM98 63q0 11 -9.5 21.5t-22.5 10.5
q-12 0 -22 -10.5t-10 -21.5t10 -21.5t22 -10.5q13 0 22.5 10.5t9.5 21.5zM578 624q0 -12 -10 -24.5t-23 -12.5q-1 0 -3 -1h-3q-15 0 -26 12t-11 26t11 26t26 12t27 -11.5t12 -26.5zM454 624q0 -17 -11 -27.5t-26 -10.5q-16 0 -26.5 12t-10.5 26q0 15 11 26.5t26 11.5
q17 0 27 -12t10 -26zM686 346q0 -31 -7 -59q-6 -21 -21 -51q-13 -26 -42 -50.5t-57 -33.5q-36 -12 -50 -12q-2 0 -15.5 -1t-15.5 -1q-1 0 -14.5 1t-15.5 1q-23 0 -61 17q-60 26 -91 84q-25 48 -25 105q0 89 58 148t149 59q2 0 15.5 -1t15.5 -1q20 0 57 -16q61 -25 92 -82
q28 -49 28 -107zM582 345q0 63 -15 110q-26 79 -88 79q-79 0 -98 -112q-6 -34 -6 -44v-70q0 -11 10 -61q4 -26 23 -53q25 -35 54 -35q2 0 8.5 -1t7.5 -1q90 0 103 152q1 12 1 36z" />
    <glyph glyph-name="Udieresis" unicode="&#xdc;" 
d="M914 -1h-382q-2 8 -6 25q-4 14 -24 26.5t-33 12.5q-2 0 -11.5 -1t-11.5 -1t-15 -4t-25 -17t-14 -26q1 -7 -3 -15h-387v801h388q1 -8 4 -22q0 -2 10 -21q5 -9 24 -19q16 -8 26 -8q1 0 9.5 1t10 1t4.5 1t6.5 1t20.5 11q27 17 25 52q0 1 2 3h382v-801zM881 742
q0 11 -9.5 21.5t-22.5 10.5q-12 0 -22 -10.5t-10 -21.5q0 -9 7.5 -19.5t18.5 -10.5q1 0 3 -1t3 -1h4q3 1 5.5 1t9.5 5q13 10 13 26zM755 742q0 11 -10 21.5t-22 10.5t-22 -10.5t-10 -21.5q0 -9 7.5 -19.5t18.5 -10.5q1 0 3 -1t3 -1h4q3 1 5.5 1t9.5 5q13 9 13 26zM629 742
q0 11 -10 21.5t-22 10.5t-22 -10.5t-10 -21.5q0 -9 7.5 -19.5t18.5 -10.5q1 0 3 -1t3 -1h4q3 1 5.5 1t9.5 5q13 9 13 26zM350 742q0 11 -9.5 21.5t-22.5 10.5q-12 0 -22 -10.5t-10 -21.5q0 -12 9.5 -22t22.5 -10h4q3 1 4 1q8 0 18 13q6 7 6 18zM224 742q0 11 -9.5 21.5
t-22.5 10.5q-12 0 -22 -10.5t-10 -21.5q0 -12 9.5 -22t22.5 -10h4q3 1 4 1q8 0 18 13q6 7 6 18zM881 60q0 11 -9.5 21.5t-22.5 10.5q-12 0 -22 -10.5t-10 -21.5q0 -12 10 -22t22 -10q13 0 22.5 10t9.5 22zM903 118v562h-890v-562h890zM98 742q0 11 -9.5 21.5t-22.5 10.5
q-12 0 -22 -10.5t-10 -21.5q0 -12 10 -22t22 -10h4q3 1 4 1q8 0 18 13q6 7 6 18zM755 60q0 12 -9.5 22t-22.5 10q-12 0 -22 -10.5t-10 -21.5q0 -12 9.5 -22t22.5 -10q11 0 21.5 10t10.5 22zM629 60q0 12 -9.5 22t-22.5 10q-12 0 -22 -10.5t-10 -21.5q0 -12 9.5 -22t22.5 -10
q11 0 21.5 10t10.5 22zM350 63q0 12 -9.5 22t-22.5 10q-12 0 -22 -10.5t-10 -21.5t9.5 -21.5t22.5 -10.5q11 0 21.5 10t10.5 22zM224 63q0 12 -9.5 22t-22.5 10q-12 0 -22 -10.5t-10 -21.5t9.5 -21.5t22.5 -10.5q11 0 21.5 10t10.5 22zM98 63q0 11 -9.5 21.5t-22.5 10.5
q-12 0 -22 -10.5t-10 -21.5t10 -21.5t22 -10.5q13 0 22.5 10.5t9.5 21.5zM596 624q0 -17 -12 -27.5t-27 -10.5q-16 0 -26 12t-10 26q0 16 11 27t25 11q16 0 27.5 -11.5t11.5 -26.5zM473 624q0 -13 -9.5 -25t-22.5 -12q-1 0 -6 -1h-6q-7 0 -16.5 9t-11.5 14q-2 10 -2 15
q0 38 43 38q1 0 10.5 -5t11.5 -7.5t8 -14.5q1 -5 1 -11zM680 530q-46 -4 -46 -40v-215q0 -6 -5 -34q-3 -14 -9 -31q-14 -39 -61 -58q-35 -14 -75 -14q-1 0 -14 1t-15 1q-27 0 -54 13q-73 35 -73 110l-1 228q-1 6 -5 19t-19 17q-11 1 -23 3v14h196v-14q-36 0 -46 -12t-10 -27
v-234q0 -7 4 -24q1 -2 2 -9q3 -16 17.5 -32.5t32.5 -21.5q4 -2 6 -2h7q2 0 8 -1t8 -1q32 0 58 15q31 19 39 55q6 32 6 31v223q0 1 -1 3v2q-4 34 -56 36v13h129v-14z" />
    <glyph glyph-name="germandbls" unicode="&#xdf;" horiz-adv-x="900" 
d="M914 -1h-382q-2 8 -6 25q-4 14 -24 26.5t-33 12.5q-2 0 -11.5 -1t-11.5 -1t-15 -4t-25 -17t-14 -26q1 -7 -3 -15h-387v801h388q1 -8 4 -22q0 -2 10 -21q5 -9 24 -19q16 -8 26 -8q1 0 9.5 1t10 1t4.5 1t6.5 1t20.5 11q27 17 25 52q0 1 2 3h382v-801zM881 742
q0 11 -9.5 21.5t-22.5 10.5q-12 0 -22 -10.5t-10 -21.5q0 -9 7.5 -19.5t18.5 -10.5q1 0 3 -1t3 -1h4q3 1 5.5 1t9.5 5q13 10 13 26zM755 742q0 11 -10 21.5t-22 10.5t-22 -10.5t-10 -21.5q0 -9 7.5 -19.5t18.5 -10.5q1 0 3 -1t3 -1h4q3 1 5.5 1t9.5 5q13 9 13 26zM629 742
q0 11 -10 21.5t-22 10.5t-22 -10.5t-10 -21.5q0 -9 7.5 -19.5t18.5 -10.5q1 0 3 -1t3 -1h4q3 1 5.5 1t9.5 5q13 9 13 26zM350 742q0 11 -9.5 21.5t-22.5 10.5q-12 0 -22 -10.5t-10 -21.5q0 -12 9.5 -22t22.5 -10h4q3 1 4 1q8 0 18 13q6 7 6 18zM224 742q0 11 -9.5 21.5
t-22.5 10.5q-12 0 -22 -10.5t-10 -21.5q0 -12 9.5 -22t22.5 -10h4q3 1 4 1q8 0 18 13q6 7 6 18zM881 60q0 11 -9.5 21.5t-22.5 10.5q-12 0 -22 -10.5t-10 -21.5q0 -12 10 -22t22 -10q13 0 22.5 10t9.5 22zM903 118v562h-890v-562h890zM98 742q0 11 -9.5 21.5t-22.5 10.5
q-12 0 -22 -10.5t-10 -21.5q0 -12 10 -22t22 -10h4q3 1 4 1q8 0 18 13q6 7 6 18zM755 60q0 12 -9.5 22t-22.5 10q-12 0 -22 -10.5t-10 -21.5q0 -12 9.5 -22t22.5 -10q11 0 21.5 10t10.5 22zM629 60q0 12 -9.5 22t-22.5 10q-12 0 -22 -10.5t-10 -21.5q0 -12 9.5 -22t22.5 -10
q11 0 21.5 10t10.5 22zM350 63q0 12 -9.5 22t-22.5 10q-12 0 -22 -10.5t-10 -21.5t9.5 -21.5t22.5 -10.5q11 0 21.5 10t10.5 22zM224 63q0 12 -9.5 22t-22.5 10q-12 0 -22 -10.5t-10 -21.5t9.5 -21.5t22.5 -10.5q11 0 21.5 10t10.5 22zM98 63q0 11 -9.5 21.5t-22.5 10.5
q-12 0 -22 -10.5t-10 -21.5t10 -21.5t22 -10.5q13 0 22.5 10.5t9.5 21.5zM891 129h-867v540h867v-540zM646 652q-3 0 -8 1h-6h-42q-25 0 -66 -11q-44 -12 -71 -29q-65 -38 -101 -93q-14 -21 -24 -56q-3 -10 -3 -6q0 -4 -2 -7h-51v-41h46v-19h-48v-40h53q4 -13 13 -38
q5 -13 18 -34q35 -56 104 -93t135 -37h52q1 29 0 31q-8 -2 -23 -3q-23 -1 -72 6q-1 0 -3.5 1t-4.5 1q-19 0 -64 25q-14 8 -22 14.5t-18 14.5q-17 17 -25 27q-29 36 -42 84h246v41h-252v19h252v41h-245v5q6 17 21 48q22 40 63 70q11 9 25 16q44 25 66 25q1 0 2 1h3q1 0 5.5 1
t5.5 1t3.5 1t3.5 1t9 1.5t9 1.5q44 0 57 -3z" />
    <glyph glyph-name="adieresis" unicode="&#xe4;" horiz-adv-x="900" 
d="M914 -1h-382q-2 8 -6 25q-4 14 -24 26.5t-33 12.5q-2 0 -11.5 -1t-11.5 -1t-15 -4t-25 -17t-14 -26q1 -7 -3 -15h-387v801h388q1 -8 4 -22q0 -2 10 -21q5 -9 24 -19q16 -8 26 -8q1 0 9.5 1t10 1t4.5 1t6.5 1t20.5 11q27 17 25 52q0 1 2 3h382v-801zM881 742
q0 11 -9.5 21.5t-22.5 10.5q-12 0 -22 -10.5t-10 -21.5q0 -9 7.5 -19.5t18.5 -10.5q1 0 3 -1t3 -1h4q3 1 5.5 1t9.5 5q13 10 13 26zM755 742q0 11 -10 21.5t-22 10.5t-22 -10.5t-10 -21.5q0 -9 7.5 -19.5t18.5 -10.5q1 0 3 -1t3 -1h4q3 1 5.5 1t9.5 5q13 9 13 26zM629 742
q0 11 -10 21.5t-22 10.5t-22 -10.5t-10 -21.5q0 -9 7.5 -19.5t18.5 -10.5q1 0 3 -1t3 -1h4q3 1 5.5 1t9.5 5q13 9 13 26zM350 742q0 11 -9.5 21.5t-22.5 10.5q-12 0 -22 -10.5t-10 -21.5q0 -12 9.5 -22t22.5 -10h4q3 1 4 1q8 0 18 13q6 7 6 18zM224 742q0 11 -9.5 21.5
t-22.5 10.5q-12 0 -22 -10.5t-10 -21.5q0 -12 9.5 -22t22.5 -10h4q3 1 4 1q8 0 18 13q6 7 6 18zM881 60q0 11 -9.5 21.5t-22.5 10.5q-12 0 -22 -10.5t-10 -21.5q0 -12 10 -22t22 -10q13 0 22.5 10t9.5 22zM903 118v562h-890v-562h890zM98 742q0 11 -9.5 21.5t-22.5 10.5
q-12 0 -22 -10.5t-10 -21.5q0 -12 10 -22t22 -10h4q3 1 4 1q8 0 18 13q6 7 6 18zM755 60q0 12 -9.5 22t-22.5 10q-12 0 -22 -10.5t-10 -21.5q0 -12 9.5 -22t22.5 -10q11 0 21.5 10t10.5 22zM629 60q0 12 -9.5 22t-22.5 10q-12 0 -22 -10.5t-10 -21.5q0 -12 9.5 -22t22.5 -10
q11 0 21.5 10t10.5 22zM350 63q0 12 -9.5 22t-22.5 10q-12 0 -22 -10.5t-10 -21.5t9.5 -21.5t22.5 -10.5q11 0 21.5 10t10.5 22zM224 63q0 12 -9.5 22t-22.5 10q-12 0 -22 -10.5t-10 -21.5t9.5 -21.5t22.5 -10.5q11 0 21.5 10t10.5 22zM98 63q0 11 -9.5 21.5t-22.5 10.5
q-12 0 -22 -10.5t-10 -21.5t10 -21.5t22 -10.5q13 0 22.5 10.5t9.5 21.5zM891 129h-867v540h867v-540zM555 611q0 13 -10 25t-26 12q-14 0 -25 -10.5t-11 -26.5q0 -26 21 -34l7 -2h9q14 0 24.5 10t10.5 26zM437 611q0 14 -10 25.5t-26 11.5q-15 0 -25.5 -10.5t-10.5 -26.5
q0 -15 10.5 -25.5t25.5 -10.5q36 0 36 36zM648 154v14q-16 1 -21 6q-16 17 -25 38t-17 41q-7 15 -123 290h-16q-37 -92 -112 -276q-11 -29 -23 -59q-18 -33 -45 -40v-13h115v13q-14 0 -21 2q-25 6 -25 23q0 13 24 72h126q7 -17 14 -33q12 -30 12 -42q0 -16 -18 -19
q-13 -1 -26 -3v-14h181zM476 288h-107l51 134z" />
    <glyph glyph-name="odieresis" unicode="&#xf6;" 
d="M914 -1h-382q-2 8 -6 25q-4 14 -24 26.5t-33 12.5q-2 0 -11.5 -1t-11.5 -1t-15 -4t-25 -17t-14 -26q1 -7 -3 -15h-387v801h388q1 -8 4 -22q0 -2 10 -21q5 -9 24 -19q16 -8 26 -8q1 0 9.5 1t10 1t4.5 1t6.5 1t20.5 11q27 17 25 52q0 1 2 3h382v-801zM881 742
q0 11 -9.5 21.5t-22.5 10.5q-12 0 -22 -10.5t-10 -21.5q0 -9 7.5 -19.5t18.5 -10.5q1 0 3 -1t3 -1h4q3 1 5.5 1t9.5 5q13 10 13 26zM755 742q0 11 -10 21.5t-22 10.5t-22 -10.5t-10 -21.5q0 -9 7.5 -19.5t18.5 -10.5q1 0 3 -1t3 -1h4q3 1 5.5 1t9.5 5q13 9 13 26zM629 742
q0 11 -10 21.5t-22 10.5t-22 -10.5t-10 -21.5q0 -9 7.5 -19.5t18.5 -10.5q1 0 3 -1t3 -1h4q3 1 5.5 1t9.5 5q13 9 13 26zM350 742q0 11 -9.5 21.5t-22.5 10.5q-12 0 -22 -10.5t-10 -21.5q0 -12 9.5 -22t22.5 -10h4q3 1 4 1q8 0 18 13q6 7 6 18zM224 742q0 11 -9.5 21.5
t-22.5 10.5q-12 0 -22 -10.5t-10 -21.5q0 -12 9.5 -22t22.5 -10h4q3 1 4 1q8 0 18 13q6 7 6 18zM881 60q0 11 -9.5 21.5t-22.5 10.5q-12 0 -22 -10.5t-10 -21.5q0 -12 10 -22t22 -10q13 0 22.5 10t9.5 22zM903 118v562h-890v-562h890zM98 742q0 11 -9.5 21.5t-22.5 10.5
q-12 0 -22 -10.5t-10 -21.5q0 -12 10 -22t22 -10h4q3 1 4 1q8 0 18 13q6 7 6 18zM755 60q0 12 -9.5 22t-22.5 10q-12 0 -22 -10.5t-10 -21.5q0 -12 9.5 -22t22.5 -10q11 0 21.5 10t10.5 22zM629 60q0 12 -9.5 22t-22.5 10q-12 0 -22 -10.5t-10 -21.5q0 -12 9.5 -22t22.5 -10
q11 0 21.5 10t10.5 22zM350 63q0 12 -9.5 22t-22.5 10q-12 0 -22 -10.5t-10 -21.5t9.5 -21.5t22.5 -10.5q11 0 21.5 10t10.5 22zM224 63q0 12 -9.5 22t-22.5 10q-12 0 -22 -10.5t-10 -21.5t9.5 -21.5t22.5 -10.5q11 0 21.5 10t10.5 22zM98 63q0 11 -9.5 21.5t-22.5 10.5
q-12 0 -22 -10.5t-10 -21.5t10 -21.5t22 -10.5q13 0 22.5 10.5t9.5 21.5zM891 129h-867v540h867v-540zM560 611q0 14 -11 25.5t-26 11.5q-35 0 -35 -37q0 -36 35 -36q13 0 25 9.5t12 26.5zM442 611q0 14 -11 25.5t-27 11.5q-14 0 -24 -10.5t-10 -26.5q0 -36 35 -36
q28 0 34 23q3 11 3 13zM663 343q0 58 -27 106q-33 58 -95 80l-15 6q-29 8 -43 8q-62 0 -100 -15q-118 -49 -118 -185q0 -127 109 -180q37 -18 60 -18q2 0 15 -1h15q88 0 143.5 56t55.5 143zM563 341q0 -47 -9 -89q-6 -30 -24 -56q-23 -32 -53 -32q-1 0 -6 -1h-7
q-99 0 -99 178q0 183 99 183q60 0 84 -75q15 -45 15 -108z" />
    <glyph glyph-name="udieresis" unicode="&#xfc;" 
d="M914 -1h-382q-2 8 -6 25q-4 14 -24 26.5t-33 12.5q-2 0 -11.5 -1t-11.5 -1t-15 -4t-25 -17t-14 -26q1 -7 -3 -15h-387v801h388q1 -8 4 -22q0 -2 10 -21q5 -9 24 -19q16 -8 26 -8q1 0 9.5 1t10 1t4.5 1t6.5 1t20.5 11q27 17 25 52q0 1 2 3h382v-801zM881 742
q0 11 -9.5 21.5t-22.5 10.5q-12 0 -22 -10.5t-10 -21.5q0 -9 7.5 -19.5t18.5 -10.5q1 0 3 -1t3 -1h4q3 1 5.5 1t9.5 5q13 10 13 26zM755 742q0 11 -10 21.5t-22 10.5t-22 -10.5t-10 -21.5q0 -9 7.5 -19.5t18.5 -10.5q1 0 3 -1t3 -1h4q3 1 5.5 1t9.5 5q13 9 13 26zM629 742
q0 11 -10 21.5t-22 10.5t-22 -10.5t-10 -21.5q0 -9 7.5 -19.5t18.5 -10.5q1 0 3 -1t3 -1h4q3 1 5.5 1t9.5 5q13 9 13 26zM350 742q0 11 -9.5 21.5t-22.5 10.5q-12 0 -22 -10.5t-10 -21.5q0 -12 9.5 -22t22.5 -10h4q3 1 4 1q8 0 18 13q6 7 6 18zM224 742q0 11 -9.5 21.5
t-22.5 10.5q-12 0 -22 -10.5t-10 -21.5q0 -12 9.5 -22t22.5 -10h4q3 1 4 1q8 0 18 13q6 7 6 18zM881 60q0 11 -9.5 21.5t-22.5 10.5q-12 0 -22 -10.5t-10 -21.5q0 -12 10 -22t22 -10q13 0 22.5 10t9.5 22zM903 118v562h-890v-562h890zM98 742q0 11 -9.5 21.5t-22.5 10.5
q-12 0 -22 -10.5t-10 -21.5q0 -12 10 -22t22 -10h4q3 1 4 1q8 0 18 13q6 7 6 18zM755 60q0 12 -9.5 22t-22.5 10q-12 0 -22 -10.5t-10 -21.5q0 -12 9.5 -22t22.5 -10q11 0 21.5 10t10.5 22zM629 60q0 12 -9.5 22t-22.5 10q-12 0 -22 -10.5t-10 -21.5q0 -12 9.5 -22t22.5 -10
q11 0 21.5 10t10.5 22zM350 63q0 12 -9.5 22t-22.5 10q-12 0 -22 -10.5t-10 -21.5t9.5 -21.5t22.5 -10.5q11 0 21.5 10t10.5 22zM224 63q0 12 -9.5 22t-22.5 10q-12 0 -22 -10.5t-10 -21.5t9.5 -21.5t22.5 -10.5q11 0 21.5 10t10.5 22zM98 63q0 11 -9.5 21.5t-22.5 10.5
q-12 0 -22 -10.5t-10 -21.5t10 -21.5t22 -10.5q13 0 22.5 10.5t9.5 21.5zM891 129h-867v540h867v-540zM574 611q0 14 -10.5 25.5t-26.5 11.5q-14 0 -24.5 -11t-10.5 -26t10.5 -25.5t25.5 -10.5q36 0 36 36zM456 611q0 21 -19 33q-7 4 -9 4q-16 0 -20 -2q-24 -9 -24 -35
q0 -14 10 -25t25 -11q37 0 37 36zM655 521v14h-123v-16l2 1q53 1 53 -52v-181q0 -12 -3 -33q-1 -5 -3 -12q-7 -36 -33 -54q-21 -14 -37 -14q-2 0 -12 -1t-11 -1q-2 0 -11.5 1t-10.5 1q-21 0 -40 22q-15 18 -19 51q0 2 -1 5v4v226q0 13 6.5 23.5t22.5 13.5l26 2v14h-191v-14
q43 -2 44 -28q0 -2 1 -5.5t1 -4.5v-220q0 -5 2 -20q9 -49 51 -75q39 -24 96 -24h19q1 0 9 1t8.5 1t33.5 10q18 5 38 22t24 36q3 8 7 21q7 34 7 42v207q0 33 44 37z" />
    <glyph glyph-name="ebreve" unicode="&#x115;" horiz-adv-x="456" 
 />
    <glyph glyph-name="oe" unicode="&#x153;" horiz-adv-x="456" 
 />
    <glyph glyph-name="Scaron" unicode="&#x160;" horiz-adv-x="456" 
 />
    <glyph glyph-name="wcircumflex" unicode="&#x175;" horiz-adv-x="456" 
 />
    <glyph glyph-name="Ydieresis" unicode="&#x178;" horiz-adv-x="456" 
 />
    <glyph glyph-name="Epsilontonos" unicode="&#x388;" horiz-adv-x="456" 
 />
  </font>
</defs>
</svg>
